<svg width="150" height="40" viewBox="0 0 150 40" fill="none" xmlns="http://www.w3.org/2000/svg">
<path d="M23.4696 26.3636H31.0976L12.2014 7.27271H4.57324L23.4696 26.3636Z" fill="#728095"/>
<path d="M15.5488 7.27271L34.7561 25.4545V7.27271H29.5583V13.013L23.4941 7.27271L15.5488 7.27271Z" fill="#4B5567"/>
<path d="M0.915039 8.18176V26.3636H5.85234V20.6383L11.6125 26.3636H19.2077L0.915039 8.18176Z" fill="#A1AEBF"/>
<path d="M61.9945 20.592C61.9945 21.904 61.6985 23.064 61.1065 24.072C60.5305 25.064 59.7465 25.84 58.7545 26.4C57.7785 26.96 56.6825 27.24 55.4665 27.24C54.2505 27.24 53.1465 26.96 52.1545 26.4C51.1785 25.84 50.3945 25.064 49.8025 24.072C49.2265 23.064 48.9385 21.904 48.9385 20.592C48.9385 19.28 49.2265 18.128 49.8025 17.136C50.3945 16.128 51.1785 15.344 52.1545 14.784C53.1465 14.208 54.2505 13.92 55.4665 13.92C56.6825 13.92 57.7785 14.208 58.7545 14.784C59.7465 15.344 60.5305 16.128 61.1065 17.136C61.6985 18.128 61.9945 19.28 61.9945 20.592ZM59.1145 20.592C59.1145 19.776 58.9465 19.072 58.6105 18.48C58.2905 17.872 57.8505 17.4 57.2905 17.064C56.7465 16.728 56.1385 16.56 55.4665 16.56C54.7945 16.56 54.1785 16.728 53.6185 17.064C53.0745 17.4 52.6345 17.872 52.2985 18.48C51.9785 19.072 51.8185 19.776 51.8185 20.592C51.8185 21.392 51.9785 22.096 52.2985 22.704C52.6345 23.296 53.0745 23.76 53.6185 24.096C54.1785 24.432 54.7945 24.6 55.4665 24.6C56.1385 24.6 56.7465 24.432 57.2905 24.096C57.8505 23.76 58.2905 23.296 58.6105 22.704C58.9465 22.096 59.1145 21.392 59.1145 20.592ZM71.5951 9.24C71.9471 9.24 72.2911 9.288 72.6271 9.384C72.9631 9.48 73.2431 9.64 73.4671 9.864C73.6911 10.072 73.8031 10.352 73.8031 10.704C73.8031 11.104 73.6831 11.424 73.4431 11.664C73.2191 11.888 72.9551 12 72.6511 12C72.5071 12 72.2911 11.968 72.0031 11.904C71.7151 11.824 71.4351 11.784 71.1631 11.784C70.7631 11.784 70.4511 11.872 70.2271 12.048C70.0191 12.224 69.8751 12.432 69.7951 12.672C69.7151 12.896 69.6751 13.096 69.6751 13.272V25.536C69.6751 25.952 69.5391 26.304 69.2671 26.592C68.9951 26.864 68.6511 27 68.2351 27C67.8191 27 67.4751 26.864 67.2031 26.592C66.9311 26.304 66.7951 25.952 66.7951 25.536V13.296C66.7951 12.16 67.1951 11.2 67.9951 10.416C68.7951 9.632 69.9951 9.24 71.5951 9.24ZM71.8591 14.4C72.2431 14.4 72.5631 14.528 72.8191 14.784C73.0751 15.024 73.2031 15.336 73.2031 15.72C73.2031 16.104 73.0751 16.424 72.8191 16.68C72.5631 16.92 72.2431 17.04 71.8591 17.04H65.4991C65.1151 17.04 64.7951 16.92 64.5391 16.68C64.2831 16.424 64.1551 16.104 64.1551 15.72C64.1551 15.336 64.2831 15.024 64.5391 14.784C64.7951 14.528 65.1151 14.4 65.4991 14.4H71.8591ZM82.0831 9.24C82.4351 9.24 82.7791 9.288 83.1151 9.384C83.4511 9.48 83.7311 9.64 83.9551 9.864C84.1791 10.072 84.2911 10.352 84.2911 10.704C84.2911 11.104 84.1711 11.424 83.9311 11.664C83.7071 11.888 83.4431 12 83.1391 12C82.9951 12 82.7791 11.968 82.4911 11.904C82.2031 11.824 81.9231 11.784 81.6511 11.784C81.2511 11.784 80.9391 11.872 80.7151 12.048C80.5071 12.224 80.3631 12.432 80.2831 12.672C80.2031 12.896 80.1631 13.096 80.1631 13.272V25.536C80.1631 25.952 80.0271 26.304 79.7551 26.592C79.4831 26.864 79.1391 27 78.7231 27C78.3071 27 77.9631 26.864 77.6911 26.592C77.4191 26.304 77.2831 25.952 77.2831 25.536V13.296C77.2831 12.16 77.6831 11.2 78.4831 10.416C79.2831 9.632 80.4831 9.24 82.0831 9.24ZM82.3471 14.4C82.7311 14.4 83.0511 14.528 83.3071 14.784C83.5631 15.024 83.6911 15.336 83.6911 15.72C83.6911 16.104 83.5631 16.424 83.3071 16.68C83.0511 16.92 82.7311 17.04 82.3471 17.04H75.9871C75.6031 17.04 75.2831 16.92 75.0271 16.68C74.7711 16.424 74.6431 16.104 74.6431 15.72C74.6431 15.336 74.7711 15.024 75.0271 14.784C75.2831 14.528 75.6031 14.4 75.9871 14.4H82.3471ZM93.1956 13.92C94.4756 13.92 95.4196 14.232 96.0276 14.856C96.6356 15.464 97.0356 16.256 97.2276 17.232L96.8196 17.016L97.0116 16.632C97.2036 16.264 97.4996 15.872 97.8996 15.456C98.2996 15.024 98.7796 14.664 99.3396 14.376C99.9156 14.072 100.556 13.92 101.26 13.92C102.412 13.92 103.284 14.168 103.876 14.664C104.484 15.16 104.9 15.824 105.124 16.656C105.348 17.472 105.46 18.384 105.46 19.392V25.536C105.46 25.952 105.324 26.304 105.052 26.592C104.78 26.864 104.436 27 104.02 27C103.604 27 103.26 26.864 102.988 26.592C102.716 26.304 102.58 25.952 102.58 25.536V19.392C102.58 18.864 102.516 18.392 102.388 17.976C102.26 17.544 102.028 17.2 101.692 16.944C101.356 16.688 100.876 16.56 100.252 16.56C99.6436 16.56 99.1236 16.688 98.6916 16.944C98.2596 17.2 97.9316 17.544 97.7076 17.976C97.4996 18.392 97.3956 18.864 97.3956 19.392V25.536C97.3956 25.952 97.2596 26.304 96.9876 26.592C96.7156 26.864 96.3716 27 95.9556 27C95.5396 27 95.1956 26.864 94.9236 26.592C94.6516 26.304 94.5156 25.952 94.5156 25.536V19.392C94.5156 18.864 94.4516 18.392 94.3236 17.976C94.1956 17.544 93.9636 17.2 93.6276 16.944C93.2916 16.688 92.8116 16.56 92.1876 16.56C91.5796 16.56 91.0596 16.688 90.6276 16.944C90.1956 17.2 89.8676 17.544 89.6436 17.976C89.4356 18.392 89.3316 18.864 89.3316 19.392V25.536C89.3316 25.952 89.1956 26.304 88.9236 26.592C88.6516 26.864 88.3076 27 87.8916 27C87.4756 27 87.1316 26.864 86.8596 26.592C86.5876 26.304 86.4516 25.952 86.4516 25.536V15.624C86.4516 15.208 86.5876 14.864 86.8596 14.592C87.1316 14.304 87.4756 14.16 87.8916 14.16C88.3076 14.16 88.6516 14.304 88.9236 14.592C89.1956 14.864 89.3316 15.208 89.3316 15.624V16.656L88.9716 16.584C89.1156 16.312 89.3156 16.024 89.5716 15.72C89.8276 15.4 90.1396 15.104 90.5076 14.832C90.8756 14.56 91.2836 14.344 91.7316 14.184C92.1796 14.008 92.6676 13.92 93.1956 13.92ZM119.569 13.92C119.985 13.92 120.329 14.056 120.601 14.328C120.873 14.6 121.009 14.952 121.009 15.384V25.536C121.009 25.952 120.873 26.304 120.601 26.592C120.329 26.864 119.985 27 119.569 27C119.153 27 118.809 26.864 118.537 26.592C118.265 26.304 118.129 25.952 118.129 25.536V24.36L118.657 24.576C118.657 24.784 118.545 25.04 118.321 25.344C118.097 25.632 117.793 25.92 117.409 26.208C117.025 26.496 116.569 26.744 116.041 26.952C115.529 27.144 114.969 27.24 114.361 27.24C113.257 27.24 112.257 26.96 111.361 26.4C110.465 25.824 109.753 25.04 109.225 24.048C108.713 23.04 108.457 21.888 108.457 20.592C108.457 19.28 108.713 18.128 109.225 17.136C109.753 16.128 110.457 15.344 111.337 14.784C112.217 14.208 113.193 13.92 114.265 13.92C114.953 13.92 115.585 14.024 116.161 14.232C116.737 14.44 117.233 14.704 117.649 15.024C118.081 15.344 118.409 15.672 118.633 16.008C118.873 16.328 118.993 16.6 118.993 16.824L118.129 17.136V15.384C118.129 14.968 118.265 14.624 118.537 14.352C118.809 14.064 119.153 13.92 119.569 13.92ZM114.721 24.6C115.425 24.6 116.041 24.424 116.569 24.072C117.097 23.72 117.505 23.24 117.793 22.632C118.097 22.024 118.249 21.344 118.249 20.592C118.249 19.824 118.097 19.136 117.793 18.528C117.505 17.92 117.097 17.44 116.569 17.088C116.041 16.736 115.425 16.56 114.721 16.56C114.033 16.56 113.425 16.736 112.897 17.088C112.369 17.44 111.953 17.92 111.649 18.528C111.361 19.136 111.217 19.824 111.217 20.592C111.217 21.344 111.361 22.024 111.649 22.632C111.953 23.24 112.369 23.72 112.897 24.072C113.425 24.424 114.033 24.6 114.721 24.6ZM124.871 14.16C125.335 14.16 125.727 14.36 126.047 14.76L134.063 24.72C134.271 24.976 134.375 25.264 134.375 25.584C134.375 25.984 134.223 26.328 133.919 26.616C133.615 26.904 133.279 27.048 132.911 27.048C132.447 27.048 132.055 26.84 131.735 26.424L123.719 16.464C123.511 16.208 123.407 15.92 123.407 15.6C123.407 15.184 123.551 14.84 123.839 14.568C124.143 14.296 124.487 14.16 124.871 14.16ZM124.895 27.024C124.575 27.024 124.255 26.904 123.935 26.664C123.631 26.408 123.479 26.104 123.479 25.752C123.479 25.432 123.599 25.128 123.839 24.84L127.511 20.352L128.951 22.752L126.047 26.424C125.743 26.824 125.359 27.024 124.895 27.024ZM132.887 14.16C133.271 14.16 133.591 14.296 133.847 14.568C134.119 14.824 134.255 15.12 134.255 15.456C134.255 15.616 134.231 15.776 134.183 15.936C134.135 16.096 134.047 16.248 133.919 16.392L130.295 20.808L128.783 18.72L131.735 14.808C132.055 14.376 132.439 14.16 132.887 14.16Z" fill="white"/>
</svg>
