<svg width="150" height="40" viewBox="0 0 150 40" fill="none" xmlns="http://www.w3.org/2000/svg">
<path d="M27.8006 17.0172C30.6884 17.0172 31.3381 18.2563 31.3381 19.8018C31.3381 21.4399 30.5522 22.6136 27.8126 22.6136C25.0905 22.6136 24.3037 21.5081 24.3037 19.8018C24.3037 18.1227 25.1614 17.0172 27.8006 17.0172Z" fill="white"/>
<path d="M57.9794 17.0172C60.8671 17.0172 61.5168 18.2563 61.5168 19.8018C61.5168 21.4399 60.73 22.6136 57.9913 22.6136C55.2702 22.6136 54.4824 21.5081 54.4824 19.8018C54.4824 18.1227 55.3401 17.0172 57.9794 17.0172Z" fill="white"/>
<path fill-rule="evenodd" clip-rule="evenodd" d="M2.2334 35.9091V3.67908H148.164V35.9091H2.2334ZM71.7837 34.0909H146.324V5.49726H71.7837V34.0909ZM27.8146 25.3573C32.9413 25.3573 35.0965 23.1727 35.0965 19.7609C35.0965 16.2936 32.6689 14.2327 27.8146 14.2327C23.0348 14.2327 20.5189 16.4709 20.5189 19.7609C20.5189 23.4736 23.1582 25.3573 27.8146 25.3573ZM9.99037 14.4782V25.1936H20.3376V22.34H13.7339V14.4782H9.99037ZM46.6769 25.1936L46.5802 24.1554C45.3279 25.0383 43.8036 25.4633 42.2689 25.3573C39.9618 25.3573 38.0404 24.6745 36.9628 23.2963C36.252 22.2902 35.8931 21.0823 35.9404 19.8563C35.9 18.6561 36.2713 17.4775 36.994 16.5118C38.0845 15.1745 40.0612 14.2873 43.0042 14.2873C46.3898 14.2873 48.3793 15.3109 49.2351 17.0309C49.4188 17.436 49.5268 17.8705 49.5536 18.3136H45.972C45.8817 18.0443 45.7137 17.8071 45.4888 17.6309C44.7754 17.1636 43.9234 16.9475 43.0704 17.0173C42.5701 16.9573 42.0625 17.003 41.5814 17.1513C41.1003 17.2995 40.6564 17.547 40.2793 17.8773C39.851 18.4564 39.65 19.1693 39.7134 19.8836C39.6637 20.5652 39.8486 21.2434 40.2379 21.8082C40.6184 22.1584 41.0708 22.4237 41.5643 22.5863C42.0578 22.7487 42.5808 22.8046 43.098 22.75C44.1253 22.8325 45.1452 22.5195 45.9444 21.8763C46.116 21.6643 46.2343 21.4151 46.2894 21.1491H42.4355V18.8464H49.6474V25.1936H46.6769ZM57.9931 25.3573C63.1189 25.3573 65.275 23.1727 65.275 19.7609C65.275 16.2936 62.8437 14.2327 57.9931 14.2327C53.2134 14.2327 50.6974 16.4709 50.6974 19.7609C50.6974 23.4736 53.3367 25.3573 57.9931 25.3573Z" fill="white"/>
<path d="M78.0898 25.1527V14.4373H80.7586V25.1527H78.0898Z" fill="white"/>
<path d="M94.4619 20.6754C93.7855 21.549 92.6214 21.9481 90.9806 21.9581C90.6346 21.9581 86.0472 21.9445 86.0472 21.9445V25.1526H83.4355V14.4372H90.9816C91.5863 14.374 92.1981 14.4374 92.776 14.6231C93.3549 14.8089 93.8868 15.1129 94.3386 15.5154C94.9349 16.2828 95.2248 17.2397 95.154 18.2044C95.2147 19.0819 94.9708 19.9536 94.4619 20.6754ZM92.3205 17.1817C92.0444 16.7726 91.449 16.5454 90.4414 16.5454H86.0334V19.8072H90.4128C91.4905 19.8072 92.0582 19.589 92.3205 19.1654C92.476 18.8669 92.5432 18.5308 92.5138 18.1963C92.5368 17.8474 92.4705 17.4984 92.3205 17.1817Z" fill="white"/>
<path d="M102.85 25.3164C97.9303 25.3164 96.4248 23.4982 96.4248 21.6991H99.2159C99.2159 22.5864 100.445 23.2555 102.974 23.2555C105.488 23.2555 106.152 22.8182 106.152 22.1082C106.152 21.3164 105.655 21.071 103.319 20.8119C102.859 20.771 101.607 20.621 101.136 20.5528C97.8236 20.1837 96.5481 19.2146 96.5481 17.481C96.5481 15.6519 98.4144 14.2737 102.463 14.2737C106.857 14.2737 108.543 15.98 108.543 17.7546H105.782C105.782 16.8537 104.746 16.3346 102.3 16.3346C99.7846 16.3346 99.2463 16.6755 99.2463 17.3446C99.2463 18.041 99.7984 18.2591 102.467 18.5728C103.075 18.6555 104.429 18.8055 104.802 18.8455C107.621 19.1319 108.892 20.1419 108.892 21.93C108.888 24.06 106.953 25.3164 102.85 25.3164Z" fill="white"/>
<path d="M116.752 25.3027C113.146 25.3027 110.797 23.8963 110.797 20.9391V14.4373H113.435V20.9754C113.435 22.3273 114.555 23.2273 116.862 23.2273C118.948 23.2273 120.193 22.3818 120.193 20.9754V14.4373H122.804V21.1818C122.804 23.87 120.62 25.3027 116.752 25.3027Z" fill="white"/>
<path d="M137.104 25.1527V18L133.719 25.1527H131.15L127.861 18V25.1527H125.376V14.4373H128.742L132.473 22.6L136.286 14.4373H139.599V25.1527H137.104Z" fill="white"/>
</svg>
