<svg width="150" height="40" viewBox="0 0 150 40" fill="none" xmlns="http://www.w3.org/2000/svg">
<path d="M74.6963 26.2879H69.6436V12.8618H74.6963V26.2879ZM70.1371 25.7974H74.2029V13.3523H70.1371V25.7974ZM81.7265 26.2879H76.7756V12.8618H87.1196C88.6015 12.7426 90.0772 13.1561 91.2782 14.0271C91.7952 14.4972 92.1959 15.0797 92.4491 15.7292C92.7023 16.3786 92.8011 17.0774 92.7377 17.771C92.8115 18.9696 92.4277 20.1518 91.663 21.0814C90.7581 22.1133 89.2522 22.6449 87.1877 22.6636C86.6676 22.6773 82.7706 22.6636 81.7295 22.6636L81.7265 26.2879ZM77.266 25.7974H81.2331V22.1682H81.4808C81.5311 22.1682 86.5907 22.1839 87.1759 22.1682C89.0992 22.1516 90.4818 21.6778 91.29 20.7529C91.9707 19.9117 92.3088 18.8472 92.2374 17.7701C92.2981 17.1486 92.2139 16.5215 91.9915 15.9376C91.7689 15.3536 91.4142 14.8284 90.9545 14.4028C89.8409 13.6084 88.4785 13.2355 87.1127 13.3513H77.269L77.266 25.7974ZM86.0716 19.6474H81.1996V15.9927H86.1042C86.4518 15.945 86.806 15.9853 87.1337 16.11C87.4616 16.2346 87.7524 16.4396 87.9792 16.7058C88.1849 17.0461 88.2819 17.4405 88.2574 17.8368C88.2759 18.2047 88.196 18.5709 88.0255 18.898C87.7916 19.1785 87.4889 19.3943 87.1467 19.5249C86.8045 19.6554 86.4343 19.6963 86.0716 19.6435V19.6474ZM81.693 19.157H86.0716C86.8808 19.157 87.3821 18.9893 87.6042 18.644C87.7264 18.3931 87.7818 18.1151 87.765 17.8368C87.7866 17.5445 87.7229 17.2523 87.5815 16.9952L87.5755 16.9863C87.3407 16.643 86.8739 16.4832 86.1042 16.4832H81.693V19.157ZM101.743 26.486C97.3117 26.486 94.667 25.3923 93.6594 23.1432C93.4945 22.7088 93.3826 22.2563 93.3259 21.7955L93.2825 21.513H98.5542L98.5887 21.719C98.6293 21.9281 98.719 22.125 98.8492 22.2938C99.0574 22.5439 99.7522 22.9637 102.057 22.9637C104.829 22.9637 104.828 22.4802 104.828 22.2202C104.828 21.7818 104.508 21.6317 102.248 21.3924L101.819 21.3522C100.968 21.2727 99.8923 21.1717 99.4009 21.1295C95.2561 20.7568 93.4058 19.4768 93.4058 16.9805C93.4058 14.3586 96.5548 12.6647 101.429 12.6647C105.405 12.6647 107.967 13.7063 109.041 15.7632C109.296 16.2417 109.468 16.7598 109.548 17.2953L109.582 17.5709H104.304L104.283 17.3493C104.262 17.176 104.188 17.0135 104.07 16.8843C103.872 16.6215 103.249 16.1869 101.312 16.1869C98.9351 16.1869 98.6074 16.4891 98.6074 16.8147C98.6074 17.2492 99.3584 17.4032 101.765 17.6592C102.769 17.7406 104.382 17.9054 104.935 17.9721C108.41 18.3468 109.96 19.5954 109.96 22.0221C109.961 24.0574 108.535 26.486 101.743 26.486ZM93.8588 22.0035C93.9082 22.3269 93.9933 22.644 94.1124 22.949C95.0301 24.998 97.5269 25.9956 101.743 25.9956C105.268 25.9956 109.471 25.309 109.471 22.0221C109.471 19.8711 108.099 18.8058 104.883 18.4596C104.33 18.3929 102.727 18.2291 101.725 18.1467C99.1591 17.8701 98.116 17.723 98.116 16.8147C98.116 15.875 99.24 15.6965 101.314 15.6965C102.954 15.6965 104.012 15.9908 104.461 16.5842C104.584 16.7304 104.677 16.899 104.734 17.0805H109.011C108.925 16.7012 108.789 16.3348 108.606 15.9908C107.619 14.1085 105.208 13.1551 101.431 13.1551C96.8568 13.1551 93.9012 14.6568 93.9012 16.9805C93.9012 19.1972 95.5601 20.2918 99.4463 20.641C99.9397 20.6832 101.014 20.7842 101.867 20.8647L102.299 20.9049C104.398 21.1246 105.324 21.2619 105.324 22.2202C105.324 23.2521 104.127 23.4541 102.059 23.4541C100.147 23.4541 98.939 23.1687 98.4723 22.6067C98.3284 22.4275 98.2198 22.2228 98.1525 22.0035H93.8588ZM119.335 26.4693C114.184 26.4693 111.342 24.3987 111.342 20.6381V12.8618H116.327V20.6381C116.327 21.9279 117.489 22.6675 119.513 22.6675C121.447 22.6675 122.648 21.8956 122.648 20.6548V12.8618H127.582V21.0501C127.587 24.4939 124.578 26.4693 119.332 26.4693H119.335ZM111.835 13.3523V20.6381C111.835 25.2854 116.53 25.9789 119.335 25.9789C122.234 25.9789 127.097 25.3384 127.097 21.0501V13.3523H123.149V20.6548C123.149 22.1751 121.724 23.1579 119.521 23.1579C117.217 23.1579 115.842 22.2163 115.842 20.6381V13.3523H111.835ZM148.491 26.2879H143.786V20.2261L141.118 26.2879H137.013L134.373 20.2379V26.2879H129.651V12.8618H135.862L139.089 20.2644L142.472 12.8618H148.497L148.491 26.2879ZM144.279 25.7974H147.998V13.3523H142.785L139.073 21.4728L135.534 13.3523H130.14V25.7974H133.875V17.878L137.329 25.8004H140.783L144.274 17.8897L144.279 25.7974ZM5.97357 13.107H1.47949V26.0426H13.8979V22.5988H5.97357V13.107ZM22.969 12.8128C17.2325 12.8128 14.2157 15.5151 14.2157 19.4826C14.2157 23.9652 17.3825 26.2388 22.969 26.2388C29.119 26.2388 31.7055 23.6023 31.7055 19.4826C31.7055 15.2993 28.7874 12.8108 22.969 12.8108V12.8128ZM22.9522 16.1742C23.3427 16.1724 23.733 16.195 24.1206 16.2419L19.0966 21.2354C18.8589 20.701 18.7429 20.1208 18.7571 19.5366C18.7571 17.5072 19.7854 16.1722 22.9522 16.1722V16.1742ZM22.969 22.9304C22.5927 22.932 22.2167 22.911 21.843 22.8676L26.8759 17.8652C27.1047 18.3908 27.2143 18.9602 27.1966 19.5327C27.1966 21.5071 26.2492 22.9284 22.969 22.9284V22.9304ZM40.6098 21.1648H45.2351C45.167 21.4839 45.0251 21.7828 44.8206 22.0378C43.8617 22.8142 42.6379 23.1921 41.4052 23.0922C40.7846 23.1582 40.1572 23.0908 39.5652 22.8947C38.9732 22.6986 38.4304 22.3782 37.9739 21.9554C37.5062 21.2736 37.2841 20.4548 37.3433 19.6317C37.2676 18.7693 37.5092 17.9089 38.0232 17.21C38.6696 16.4841 39.764 16.1713 41.3726 16.1713C42.396 16.087 43.4182 16.3483 44.2739 16.9128C44.5436 17.1257 44.7452 17.412 44.8542 17.7367H49.144C49.1128 17.2016 48.9833 16.6767 48.7621 16.1879C47.7348 14.1114 45.3466 12.8756 41.2857 12.8756C37.7538 12.8756 35.3834 13.9467 34.0739 15.5621C33.209 16.7287 32.7651 18.1511 32.8137 19.5994C32.7577 21.0805 33.1903 22.5391 34.0453 23.7533C35.339 25.4208 37.6433 26.2408 40.4124 26.2408C42.2533 26.3684 44.0818 25.8559 45.5844 24.7911L45.7009 26.0426H49.2644V18.3802H40.6098V21.1648ZM59.3785 12.8098C53.643 12.8098 50.6252 15.5121 50.6252 19.4797C50.6252 23.9622 53.791 26.2359 59.3785 26.2359C65.5295 26.2359 68.116 23.5993 68.116 19.4797C68.116 15.2993 65.1979 12.8108 59.3785 12.8108V12.8098ZM59.3627 16.1713C59.7429 16.1701 60.1229 16.1918 60.5005 16.236L55.4963 21.2129C55.2659 20.6843 55.1538 20.1125 55.1676 19.5366C55.1637 17.5072 56.1959 16.1722 59.3627 16.1722V16.1713ZM59.3785 22.9274C58.9923 22.9291 58.6063 22.9067 58.2229 22.8607L63.2726 17.8407C63.5101 18.3733 63.6238 18.9523 63.6052 19.5346C63.6071 21.5071 62.6637 22.9284 59.3785 22.9284V22.9274Z" fill="white"/>
</svg>
