<svg width="388" height="260" viewBox="0 0 388 260" fill="none" xmlns="http://www.w3.org/2000/svg">
<g clip-path="url(#clip0_8_1978)">
<path d="M290.751 52.6658L290.76 52.6661C290.775 52.6667 290.789 52.6634 290.802 52.6567L290.809 52.653C292.013 52.0428 293.249 51.499 294.512 51.0242C295.765 50.5481 297.063 50.0869 298.325 49.7171L298.222 49.732L298.241 49.7325C298.272 49.7334 298.304 49.7294 298.334 49.7204L298.359 49.7127C305.028 47.6208 311.953 46.4545 318.939 46.2465C322.421 46.1433 325.906 46.2544 329.374 46.5792L339.886 47.4673C346.897 48.0329 353.921 48.4372 360.941 48.8841C367.963 49.3096 374.982 49.771 381.991 50.3547L381.841 49.8178C380.601 50.719 379.466 51.7573 378.459 52.913C377.462 54.0824 376.612 55.3696 375.929 56.7459C375.268 58.1313 374.744 59.578 374.365 61.0655C374.005 62.556 373.775 64.0747 373.675 65.6047C373.505 68.6625 373.711 71.7297 374.288 74.7375C374.834 77.7584 375.69 80.7149 376.844 83.5597L377.679 82.4853C372.747 81.5536 367.817 80.6137 362.879 79.7182L348.071 76.9996L348.88 77.7288L348.773 77.411L348.805 77.4974C348.089 75.2306 346.613 73.2799 344.627 71.9736C342.653 70.6707 340.311 70.0387 337.95 70.1715C335.578 70.3239 333.328 71.275 331.566 72.87C331.336 73.0544 331.128 73.2651 330.947 73.4978L330.375 74.1703C330.032 74.6442 329.715 75.1368 329.427 75.646C329.153 76.151 328.966 76.6703 328.734 77.1823C328.625 77.4398 328.507 77.6946 328.408 77.9544L328.163 78.7481C326.985 82.9457 326.532 87.3138 326.824 91.664C327.018 95.9554 327.62 100.219 328.622 104.396L329.363 103.653L319.408 101.571L309.433 99.5768C309.408 99.5718 309.382 99.5767 309.36 99.5906C309.338 99.6045 309.323 99.6263 309.318 99.6513C309.312 99.6762 309.316 99.7024 309.329 99.7243C309.343 99.7462 309.364 99.762 309.389 99.7683L319.227 102.349L329.083 104.855C329.182 104.88 329.286 104.88 329.385 104.854C329.484 104.829 329.575 104.779 329.65 104.709C329.724 104.639 329.78 104.551 329.812 104.454C329.844 104.356 329.85 104.253 329.831 104.152L329.824 104.112C329.028 99.9897 328.574 95.8088 328.465 91.6119C328.286 87.4696 328.813 83.327 330.023 79.3613L330.256 78.6369C330.349 78.4032 330.459 78.1779 330.559 77.9479C330.772 77.4981 330.95 77.0139 331.187 76.5917C331.455 76.1996 331.666 75.7633 331.97 75.4022L332.437 74.8689C332.58 74.6815 332.749 74.5145 332.937 74.3722C334.364 73.1148 336.173 72.3752 338.072 72.2729C339.98 72.1634 341.873 72.6706 343.47 73.7196C345.061 74.7691 346.251 76.3245 346.849 78.1343L346.882 78.2212C346.887 78.246 346.894 78.2702 346.904 78.2933L346.97 78.4433C347.037 78.5934 347.14 78.7247 347.27 78.8258C347.399 78.9268 347.552 78.9945 347.714 79.0228L362.558 81.5359C367.505 82.3844 372.459 83.1884 377.412 84.0007C377.549 84.0232 377.69 84.0083 377.82 83.9574C377.949 83.9065 378.063 83.8216 378.149 83.7116C378.234 83.6016 378.288 83.4706 378.305 83.3323C378.323 83.1941 378.302 83.0538 378.247 82.9261C377.07 80.2066 376.152 77.3822 375.505 74.4903C374.833 71.594 374.531 68.6242 374.606 65.6519C374.654 64.1703 374.83 62.6957 375.131 61.2442C375.45 59.7981 375.929 58.3921 376.559 57.0523C377.202 55.719 378.006 54.4696 378.953 53.3319C379.914 52.2027 381 51.1855 382.189 50.2993L382.198 50.2929C382.245 50.2562 382.28 50.206 382.298 50.149C382.317 50.092 382.317 50.0308 382.3 49.9735C382.283 49.9161 382.249 49.8652 382.202 49.8276C382.156 49.7899 382.099 49.7671 382.04 49.7623C375.029 49.1928 368.029 48.5052 361.032 47.7738C354.034 47.0651 347.039 46.3138 340.03 45.7237L329.514 44.8785C325.975 44.5765 322.419 44.5221 318.871 44.7155C315.326 44.9119 311.8 45.3751 308.324 46.1013C304.851 46.804 301.44 47.783 298.123 49.0289L298.241 49.0092L298.222 49.0097L298.195 49.0105C298.169 49.0113 298.144 49.0161 298.12 49.0246C296.805 49.4941 295.575 50.0159 294.324 50.5751C293.079 51.1308 291.872 51.7678 290.711 52.482L290.76 52.469L290.751 52.4693C290.725 52.4703 290.701 52.4811 290.684 52.4994C290.666 52.5177 290.656 52.5422 290.656 52.5676C290.656 52.593 290.666 52.6174 290.684 52.6357C290.701 52.654 290.725 52.6648 290.751 52.6658L290.751 52.6658Z" fill="url(#paint0_linear_8_1978)"/>
<path d="M247.763 78.8661C248.323 76.0596 249.447 73.3961 251.068 71.0372C251.876 69.9063 252.806 68.8675 253.841 67.9393C254.889 67.0235 256.013 66.1976 257.199 65.4705C259.637 64.0452 262.238 62.9195 264.945 62.1178C267.691 61.2863 270.499 60.6749 273.341 60.2892L273.396 60.2838C274.368 60.013 275.336 59.7239 276.301 59.4163C275.289 59.4661 274.281 59.5381 273.277 59.6267L273.331 59.6214C270.363 59.4917 267.391 59.7746 264.5 60.462C261.564 61.1232 258.756 62.2585 256.185 63.8233C253.564 65.4025 251.382 67.6151 249.84 70.2578C248.356 72.8766 247.637 75.8589 247.763 78.8661Z" fill="url(#paint1_linear_8_1978)"/>
<path d="M340.812 70.772C339.1 70.1093 337.368 69.5323 335.625 69.0091C333.884 68.4786 332.133 67.9888 330.373 67.5397C328.619 67.0668 326.845 66.6811 325.078 66.2642C323.302 65.8915 321.529 65.5018 319.739 65.1887L319.325 65.1164L319.065 65.3149C318.331 65.8819 317.654 66.5187 317.043 67.2164C316.437 67.8803 315.88 68.5876 315.376 69.3325C314.872 70.0684 314.419 70.8384 314.021 71.6371C313.621 72.4271 313.282 73.2471 313.008 74.0895C313.52 73.372 314.048 72.6774 314.592 72.0058C315.143 71.3352 315.699 70.6661 316.279 70.0589C316.871 69.4433 317.476 68.8477 318.106 68.2869C318.72 67.7462 319.364 67.2395 320.034 66.7691L319.361 66.8953C321.116 67.3656 322.887 67.7603 324.653 68.1784C326.43 68.5506 328.2 68.9539 329.989 69.2701C331.772 69.6128 333.565 69.912 335.367 70.1678C337.168 70.4337 338.98 70.6457 340.812 70.772Z" fill="url(#paint2_linear_8_1978)"/>
<path d="M365.734 48.7195C363.636 50.6604 361.984 53.0344 360.895 55.6771C359.755 58.3192 359.037 61.1234 358.764 63.9878C358.537 66.8452 358.712 69.7205 359.285 72.5291C359.354 72.8782 359.407 73.2298 359.49 73.5752L359.783 74.6008L360.399 76.6344C360.896 77.9599 361.478 79.2524 362.087 80.5135C361.889 79.1067 361.561 77.7581 361.333 76.3936L361.045 74.343L360.886 73.3265C360.843 72.9867 360.83 72.6427 360.801 72.3019C360.754 71.6185 360.699 70.9386 360.627 70.2617C360.577 69.583 360.603 68.9006 360.587 68.2225C360.556 66.8684 360.601 65.5136 360.72 64.1644C360.969 61.4666 361.506 58.8032 362.322 56.2197C363.144 53.5878 364.29 51.0684 365.734 48.7195Z" fill="url(#paint3_linear_8_1978)"/>
<path d="M312.478 69.1644C311.009 68.6162 309.532 68.0772 308.045 67.5661C308.127 68.1729 308.171 68.7843 308.175 69.3967C309.448 69.7963 310.731 70.1773 312.022 70.549C312.896 70.7999 313.769 71.0509 314.652 71.3017C314.773 71.1159 314.894 70.9393 315.015 70.772C315.135 70.5955 315.265 70.4282 315.377 70.2702C314.411 69.8893 313.444 69.5268 312.478 69.1644Z" fill="url(#paint4_linear_8_1978)"/>
<path d="M297.832 66.0234C298.965 66.4137 300.081 66.8041 301.214 67.185H301.224C301.577 66.626 301.988 66.1058 302.45 65.6332L302.032 65.4937C300.778 65.0849 299.523 64.676 298.268 64.2764C298.12 64.9083 297.962 65.4937 297.832 66.0234Z" fill="url(#paint5_linear_8_1978)"/>
<path d="M304.217 59.8995C302.349 59.2955 300.481 58.6914 298.604 58.106C298.807 58.7298 298.904 59.3831 298.892 60.0389C300.462 60.5965 302.051 61.1261 303.631 61.6651C307.135 62.8081 310.656 63.9326 314.206 64.9455C315.851 65.4287 317.505 65.8902 319.169 66.3301C321.083 66.8412 322.997 67.3245 324.939 67.7426C324.168 67.3988 323.397 67.0549 322.616 66.7204C322.607 66.7204 322.607 66.7204 322.598 66.7111C319.977 65.596 317.319 64.5645 314.662 63.5701C311.205 62.2692 307.711 61.0797 304.217 59.8995Z" fill="url(#paint6_linear_8_1978)"/>
<path d="M289.599 56.6099C289.757 56.6749 289.915 56.74 290.073 56.7957C290.479 56.4558 290.937 56.1829 291.43 55.9873C290.928 55.8479 290.426 55.7085 289.924 55.5691C289.803 55.9594 289.692 56.3125 289.599 56.6099Z" fill="url(#paint7_linear_8_1978)"/>
<path d="M377.543 83.2394C398.523 64.0909 382.011 50.0623 382.011 50.0623C367.348 60.6802 377.543 83.2394 377.543 83.2394Z" fill="url(#paint8_linear_8_1978)"/>
<path d="M329.225 104.25C346.537 109.414 347.892 78.0098 347.892 78.0098C347.871 77.9453 347.851 77.8813 347.83 77.8178C345.227 69.822 334.07 68.7878 330.221 76.264C325.005 86.3949 329.225 104.25 329.225 104.25Z" fill="url(#paint9_linear_8_1978)"/>
<path d="M316.166 100.5C319.033 107.565 321.967 114.557 324.666 121.614C327.425 128.584 329.749 135.718 331.627 142.975C332.07 144.756 332.41 146.561 332.646 148.381C332.902 150.143 332.894 151.933 332.622 153.693C332.479 154.52 332.199 155.318 331.791 156.052C331.376 156.75 330.8 157.339 330.112 157.77C328.541 158.567 326.755 158.834 325.019 158.532C321.334 157.893 317.787 156.615 314.54 154.758C313.715 154.301 312.889 153.85 312.075 153.373L309.667 151.875C308.042 150.911 306.52 149.783 304.961 148.724C303.408 147.654 301.931 146.475 300.416 145.36L298.217 143.587C297.485 142.997 296.732 142.435 296.026 141.813C294.606 140.579 293.128 139.421 291.748 138.146L289.643 136.277L287.592 134.349C284.869 131.769 282.249 129.086 279.733 126.302C277.199 123.539 274.767 120.684 272.393 117.781C267.633 111.961 263.2 105.881 259.116 99.5684C257.067 96.4059 255.101 93.1845 253.218 89.9042C251.332 86.6269 249.527 83.2883 247.883 79.8663L247.513 79.9978C249.737 87.3443 252.734 94.4339 256.455 101.148C260.128 107.913 264.367 114.356 269.127 120.406C273.938 126.433 279.279 132.017 285.087 137.091L287.267 138.986L289.508 140.809C290.992 142.034 292.546 143.174 294.099 144.309C295.654 145.44 297.27 146.49 298.87 147.55C300.519 148.544 302.123 149.596 303.799 150.534C305.472 151.475 307.123 152.445 308.83 153.316C310.521 154.211 312.208 155.112 313.937 155.948C317.379 157.727 321.051 159.021 324.848 159.795C326.873 160.222 328.981 160.01 330.879 159.187C331.86 158.695 332.708 157.976 333.353 157.088C333.959 156.211 334.423 155.243 334.725 154.22C335.261 152.259 335.496 150.228 335.422 148.196C335.369 146.226 335.171 144.262 334.831 142.321C334.137 138.506 333.119 134.757 331.789 131.115C330.514 127.48 329.057 123.928 327.476 120.44C326.701 118.689 325.859 116.97 325.011 115.256C324.17 113.539 323.284 111.845 322.371 110.166C320.552 106.806 318.635 103.5 316.512 100.314L316.166 100.5Z" fill="url(#paint10_linear_8_1978)"/>
<path d="M362.354 54.1322C357.002 53.3269 351.636 52.7148 346.265 52.1708C340.894 51.6145 335.515 51.1728 330.135 50.7533C324.752 50.3705 319.367 50.0122 313.973 49.7679C308.581 49.5115 303.183 49.3246 297.771 49.3324C303.122 50.1402 308.489 50.7533 313.86 51.2968C319.23 51.8525 324.609 52.2942 329.989 52.7113C335.373 53.0918 340.758 53.4501 346.151 53.6937C351.544 53.9496 356.942 54.1376 362.354 54.1322Z" fill="url(#paint11_linear_8_1978)"/>
<path d="M296.624 144.286C297.393 137.461 298.133 130.625 298.796 123.782L299.05 121.216L299.177 119.933C299.19 119.833 299.194 119.703 299.214 119.627C299.237 119.566 299.256 119.504 299.27 119.441C299.334 119.269 299.408 119.101 299.489 118.937C300.248 117.5 301.243 116.063 302.166 114.628C304.05 111.756 305.868 108.812 307.492 105.747C308.296 104.209 309.053 102.641 309.715 101.023C310.37 99.384 310.919 97.7523 311.487 96.1412C312.629 92.9062 313.761 89.6681 314.85 86.4152L316.504 81.5424L316.917 80.3241C317.078 79.8631 317.186 79.3852 317.239 78.8997C317.354 77.9122 317.215 76.9116 316.835 75.9931C316.456 75.0154 315.736 74.2079 314.808 73.7202C313.849 73.2989 312.765 73.2554 311.775 73.5986C310.073 74.2374 308.519 75.2183 307.21 76.4807L308.232 77.0545C308.468 75.3974 308.62 73.7293 308.686 72.0567C308.718 71.222 308.723 70.378 308.69 69.5425C308.619 68.7002 308.585 67.8442 308.443 67.0083C308.321 66.118 308.003 65.2658 307.513 64.5129C307.22 64.09 306.788 63.7835 306.292 63.6467C305.816 63.549 305.323 63.5762 304.861 63.7256C303.191 64.2931 301.791 65.457 300.927 66.9939L301.224 66.8323H301.215L301.022 66.8334L300.92 66.9907C300.349 67.9056 299.833 68.8532 299.373 69.8287C299.159 70.2925 298.909 70.7384 298.624 71.162C298.448 71.3703 298.45 71.3674 298.2 71.3819C298.122 71.3899 298.043 71.3736 297.974 71.3353C297.905 71.297 297.849 71.2385 297.814 71.1677C297.641 70.7227 297.571 70.2441 297.611 69.7682C297.624 69.2463 297.665 68.7255 297.734 68.208C297.867 67.1618 298.073 66.1262 298.35 65.1086C298.633 64.0726 298.861 63.0223 299.033 61.9623C299.228 60.8781 299.243 59.7691 299.077 58.6801C298.973 58.1155 298.764 57.5756 298.459 57.0889C298.139 56.5968 297.703 56.1913 297.188 55.9086C296.173 55.4116 295.043 55.1939 293.916 55.2778L293.974 55.2805C293.493 55.2342 293.008 55.2502 292.531 55.328C292.06 55.4042 291.598 55.5347 291.156 55.717C290.263 56.0914 289.488 56.7026 288.916 57.4847L288.952 57.4429C288.878 57.5216 288.835 57.6247 288.83 57.7329L288.837 59.3175L289.564 57.9073L289.573 57.889L289.583 57.8714L289.598 57.8269C290.9 54.377 291.776 50.7817 292.209 47.12C292.301 46.1714 292.288 45.2155 292.171 44.2697C292.083 43.2151 291.626 42.2252 290.88 41.4742C290.445 41.0975 289.913 40.8503 289.344 40.7605C288.793 40.6961 288.235 40.753 287.708 40.9272C286.767 41.28 285.907 41.8195 285.18 42.5132C283.814 43.8112 282.614 45.2728 281.606 46.8649C280.59 48.4118 279.657 50.0112 278.81 51.6565C277.046 54.919 275.653 58.3694 274.66 61.9428C273.713 65.4809 272.819 68.9866 271.604 72.3698C270.379 75.711 268.901 79.0731 266.549 81.5098C265.458 82.7054 263.996 83.4979 262.398 83.7594C261.578 83.8448 260.75 83.8112 259.939 83.6595C259.076 83.5404 258.221 83.365 257.38 83.1343C255.693 82.6774 254.066 82.0216 252.534 81.1808C251.019 80.353 249.619 79.3294 248.37 78.1366L247.367 77.1405L246.833 78.3593C246.253 79.7287 245.901 81.1834 245.791 82.666C245.67 84.1037 245.722 85.5505 245.944 86.9759C246.417 89.796 247.437 92.4963 248.948 94.924C249.698 96.1571 250.611 97.2836 251.661 98.2734C252.73 99.2228 253.897 100.055 255.143 100.756C256.369 101.445 257.626 102.017 258.777 102.659C259.901 103.203 260.863 104.033 261.566 105.065C262.152 106.184 262.462 107.427 262.47 108.69C262.56 110.034 262.611 111.389 262.627 112.749C262.661 115.468 262.609 118.196 262.512 120.922C262.407 123.649 262.301 126.377 262.124 129.102C261.931 131.822 261.781 134.561 261.323 137.241L261.504 137.283C262.088 134.593 262.358 131.868 262.674 129.149C262.962 126.427 263.225 123.701 263.405 120.968C263.586 118.235 263.723 115.498 263.774 112.751C263.8 111.377 263.789 109.998 263.741 108.613C263.765 107.136 263.431 105.674 262.768 104.353C261.962 103.094 260.838 102.068 259.511 101.38C258.287 100.669 257.062 100.084 255.917 99.4109C254.791 98.7496 253.739 97.9706 252.778 97.0869C251.854 96.1816 251.057 95.1563 250.407 94.0385C249.064 91.7855 248.172 89.2924 247.782 86.6986C247.588 85.4204 247.546 84.1236 247.659 82.8356C247.758 81.5881 248.051 80.3636 248.525 79.2056L246.987 79.4283C249.759 82.0906 253.159 84.0083 256.871 85.003C257.787 85.2582 258.72 85.4534 259.662 85.5875C260.143 85.6395 260.584 85.7298 261.099 85.7486L261.872 85.7719C262.13 85.7566 262.389 85.7267 262.648 85.7024C264.687 85.4003 266.558 84.4037 267.947 82.881C270.652 79.992 272.094 76.4529 273.342 72.9832C274.556 69.4842 275.427 65.9022 276.329 62.3876C276.558 61.5121 276.788 60.6404 277.065 59.8141C277.347 58.9716 277.666 58.1322 277.999 57.2976C278.666 55.6281 279.402 53.979 280.205 52.3667C280.998 50.7539 281.876 49.184 282.834 47.6636C283.755 46.1559 284.849 44.7612 286.094 43.5082C286.672 42.9209 287.36 42.4539 288.118 42.1342C288.457 42.0112 288.817 41.9606 289.176 41.9856C289.513 42.0308 289.832 42.1677 290.097 42.3815C290.646 42.9371 290.987 43.665 291.062 44.4426C291.192 45.305 291.227 46.1791 291.167 47.0491C290.829 50.6484 290.053 54.193 288.856 57.6042L288.88 57.5424L288.871 57.561L289.605 57.7354C289.606 57.7825 289.597 57.8292 289.58 57.8728C289.562 57.9164 289.535 57.9558 289.501 57.9885L289.538 57.9465C290.013 57.2559 290.67 56.7097 291.436 56.3678C292.206 56.0298 293.046 55.8865 293.884 55.9505L293.921 55.954L293.943 55.9533C294.949 55.8662 295.96 56.0461 296.875 56.4749C297.299 56.717 297.663 57.0519 297.939 57.4547C298.216 57.8574 298.397 58.3175 298.47 58.8004C298.631 59.8203 298.624 60.8596 298.448 61.877C298.288 62.9211 298.073 63.956 297.804 64.9774C297.52 66.0147 297.301 67.0688 297.148 68.1334C297.071 68.6708 297.022 69.212 297.002 69.7546C296.947 70.3431 297.038 70.936 297.269 71.4804C297.364 71.6386 297.496 71.7709 297.655 71.8654C297.813 71.9599 297.993 72.0137 298.177 72.0221C298.362 72.0304 298.545 71.9929 298.712 71.9131C298.878 71.8333 299.022 71.7135 299.131 71.5645C299.45 71.1108 299.73 70.6309 299.968 70.1299C300.428 69.1839 300.942 68.2656 301.509 67.3795L301.215 67.5378L301.224 67.5378L301.415 67.539L301.52 67.376C302.292 66.0018 303.559 64.9732 305.062 64.4994C305.368 64.3673 305.711 64.3478 306.03 64.4443C306.349 64.5407 306.623 64.747 306.805 65.0266C307.189 65.6798 307.429 66.4083 307.506 67.1624C307.616 67.9582 307.62 68.7593 307.666 69.562C307.674 70.3771 307.644 71.1852 307.588 71.9991C307.474 73.6244 307.279 75.243 307.003 76.8488L306.718 78.5039L308.025 77.4227C309.224 76.3267 310.631 75.4824 312.163 74.9397C312.815 74.7207 313.526 74.7558 314.154 75.038C314.741 75.392 315.187 75.9378 315.417 76.5831C315.689 77.2618 315.783 77.9988 315.69 78.724C315.647 79.0922 315.561 79.4541 315.435 79.8028L315.01 81.0187L313.309 85.8822C312.163 89.1203 311.059 92.3731 309.965 95.629C309.41 97.2613 308.881 98.8906 308.279 100.446C307.659 102.013 306.94 103.548 306.172 105.061C304.626 108.087 302.833 110.991 301.033 113.91C300.144 115.388 299.209 116.801 298.409 118.424C298.305 118.647 298.215 118.876 298.14 119.109C298.105 119.255 298.074 119.402 298.048 119.549C298.027 119.683 298.029 119.77 298.019 119.883L297.928 121.165L297.747 123.729C297.249 130.568 296.829 137.413 296.439 144.27L296.624 144.286Z" fill="url(#paint12_linear_8_1978)"/>
<path d="M285.427 67.742L289.65 57.901L288.781 57.572L285.427 67.742Z" fill="url(#paint13_linear_8_1978)"/>
<path d="M147.83 34.1235C151.255 35.575 154.826 36.7954 158.401 37.9151C161.995 39.0233 165.648 39.9316 169.342 40.6357C173.057 41.3962 176.839 41.7731 180.631 41.7605C182.555 41.743 184.473 41.5462 186.36 41.1727C188.304 40.8022 190.165 40.0819 191.852 39.0467L191.77 39.0938C194.607 37.6784 197.459 36.2929 200.28 34.8462L201.221 34.3635L200.654 33.5483C200.586 33.4388 200.501 33.3411 200.402 33.2587C200.354 33.2139 200.303 33.1729 200.249 33.1361C200.163 33.0773 200.063 33.0004 199.987 32.9606C199.831 32.8746 199.663 32.7683 199.514 32.7046C199.207 32.5531 198.905 32.4232 198.606 32.3099C198.006 32.0762 197.411 31.869 196.814 31.6918C195.622 31.3138 194.422 31.0279 193.224 30.7475C190.826 30.1944 188.42 29.7266 186.005 29.3441C183.593 28.9386 181.177 28.5827 178.758 28.2544C176.341 27.912 173.918 27.6267 171.498 27.3235L171.826 27.504L166.876 21.8394C165.224 19.9487 163.631 18.0293 161.923 16.1596C158.472 12.4603 154.474 9.31234 150.068 6.82574C147.858 5.59646 145.561 4.5294 143.195 3.63299C140.82 2.76103 138.39 2.0479 135.92 1.49829C130.971 0.239662 125.844 -0.166756 120.758 0.296475C115.611 0.932636 110.704 2.84525 106.483 5.86047C102.286 8.92013 98.8657 12.9239 96.5001 17.5486C95.3288 19.8592 94.4156 22.2917 93.7769 24.8023L93.3627 26.7C93.2476 27.3285 93.1367 27.9524 93.041 28.5825C92.8405 29.8393 92.6775 31.1032 92.5521 32.3741C92.2799 34.9253 92.2176 37.4946 92.366 40.056C92.5042 42.6565 92.9784 45.2283 93.7768 47.7071L94.0978 48.671L95.068 48.3793L108.178 44.4384L121.324 40.6114C125.706 39.3359 130.098 38.0982 134.51 36.9427C136.712 36.3479 138.922 35.7872 141.139 35.2604C142.252 35.0296 143.359 34.7318 144.48 34.5554L146.159 34.2545L147.83 34.1235ZM147.875 33.9226L146.125 33.9408L144.415 34.1362C143.27 34.2569 142.153 34.4966 141.019 34.6714C138.768 35.0846 136.521 35.5267 134.288 36.0201C129.821 37.0113 125.376 38.0845 120.942 39.1954C116.506 40.3034 112.095 41.5024 107.682 42.6933C103.273 43.899 98.8627 45.0903 94.4715 46.3732L95.7624 47.0453C94.2893 42.4761 94.2997 37.4668 94.7431 32.5897C94.8608 31.3649 95.0165 30.1424 95.2104 28.9223C95.3018 28.3128 95.4095 27.702 95.5192 27.0976L95.9045 25.3206C96.4764 22.9618 97.3034 20.6722 98.371 18.4923C100.537 14.1215 103.699 10.3207 107.604 7.39621C111.543 4.49473 116.131 2.6001 120.97 1.87732C125.881 1.29701 130.855 1.53554 135.689 2.58319C140.593 3.45743 145.327 5.10515 149.715 7.46478C154.102 9.84276 158.064 12.9313 161.441 16.6049C164.725 20.3533 167.855 24.3032 171.027 28.178L171.148 28.3247L171.356 28.3587C173.757 28.7498 176.161 29.1262 178.555 29.5532C180.951 29.9662 183.342 30.4065 185.719 30.8941C188.097 31.3763 190.466 31.8921 192.806 32.4712C193.974 32.7637 195.136 33.0826 196.267 33.4375C196.837 33.6083 197.393 33.806 197.926 34.0157C198.197 34.1195 198.452 34.2312 198.692 34.3508C198.823 34.4072 198.91 34.4713 199.022 34.5292C199.062 34.5533 199.101 34.5795 199.139 34.6077C199.161 34.6212 199.177 34.6335 199.165 34.626C199.152 34.604 199.2 34.6799 199.074 34.4977L199.448 33.2001C196.609 34.6107 193.801 36.0827 190.978 37.5247L190.933 37.5477L190.896 37.5719C187.965 39.4811 184.219 40.0312 180.594 40.1613C178.754 40.2063 176.913 40.1518 175.079 39.9983C173.236 39.8655 171.395 39.6429 169.561 39.3569C165.888 38.8074 162.254 37.9738 158.636 37.0775C155.012 36.1675 151.45 35.1097 147.875 33.9226Z" fill="url(#paint14_linear_8_1978)"/>
<path d="M125.185 5.83307C126.945 7.90041 128.747 9.90984 130.558 11.9084L135.987 17.8947C137.796 19.8866 139.59 21.8909 141.37 23.9076C143.138 25.9368 144.886 27.9778 146.622 30.0667C145.333 27.6741 143.855 25.3883 142.202 23.2312C140.576 21.0553 138.809 18.9952 137.004 16.9728C135.176 14.9718 133.289 13.0261 131.323 11.1628C129.371 9.28097 127.322 7.502 125.185 5.83307Z" fill="url(#paint15_linear_8_1978)"/>
<path d="M115.789 6.82217C114.334 9.46293 113.047 12.1931 111.936 14.9962C110.806 17.7918 109.82 20.6418 108.976 23.5463C108.14 26.4526 107.487 29.4088 107.023 32.3973C106.562 35.3886 106.433 38.4219 106.64 41.4416C106.965 38.4678 107.445 35.513 108.078 32.5891C108.72 29.6779 109.475 26.7937 110.296 23.9257C111.106 21.0537 112.024 18.2106 112.939 15.3618C113.882 12.5222 114.811 9.67138 115.789 6.82217Z" fill="url(#paint16_linear_8_1978)"/>
<path d="M171.427 27.8411C169.803 27.8635 168.182 27.9771 166.571 28.1812C164.965 28.3619 163.373 28.6216 161.784 28.8967C160.199 29.1969 158.618 29.5142 157.05 29.9102C155.47 30.2858 153.913 30.7509 152.386 31.303C154.01 31.2823 155.631 31.1694 157.242 30.9649C158.848 30.7839 160.44 30.5241 162.029 30.2475C163.613 29.9455 165.195 29.6282 166.762 29.2319C168.342 28.8559 169.899 28.3916 171.427 27.8411Z" fill="url(#paint17_linear_8_1978)"/>
<path d="M171.428 40.313C171.402 41.692 171.475 43.0686 171.573 44.4474C171.661 45.839 171.86 47.2214 172.166 48.5817C172.318 49.3166 172.595 50.0199 172.985 50.6607C173.337 51.1852 173.679 51.7983 174.019 52.3819C174.706 53.561 175.369 54.7607 176.03 55.9595C177.368 58.3498 178.683 60.752 179.976 63.166C180.611 64.3775 181.268 65.5777 181.875 66.7963C182.181 67.4044 182.471 68.0181 182.754 68.6274C182.893 68.9328 183.025 69.2392 183.139 69.5412C183.19 69.6892 183.251 69.8449 183.281 69.9771C183.3 70.0328 183.313 70.0905 183.319 70.1492C183.321 70.1602 183.331 70.2155 183.33 70.1912C183.33 70.1681 183.336 70.1454 183.347 70.1252C183.359 70.105 183.375 70.088 183.394 70.0759L183.647 69.8988C183.178 70.0102 182.696 70.0556 182.214 70.0337C181.7 70.0133 181.189 69.9445 180.687 69.8281C180.177 69.7084 179.674 69.5572 179.182 69.3753C178.686 69.1859 178.2 68.9695 177.727 68.727L177.657 68.6921L177.611 68.7012C177.129 68.7925 176.676 69.002 176.295 69.3109C175.93 69.6181 175.669 70.0308 175.549 70.4922C175.729 70.0746 176.035 69.7232 176.423 69.4859C176.792 69.2527 177.213 69.1128 177.648 69.0784L177.533 69.0526C178.444 69.6847 179.44 70.1856 180.491 70.5406C181.031 70.7147 181.585 70.8375 182.148 70.9072C182.743 70.9896 183.348 70.9696 183.936 70.8481L184.105 70.8106L184.189 70.6709C184.254 70.5588 184.3 70.436 184.324 70.3081C184.332 70.2371 184.332 70.1655 184.326 70.0944C184.323 69.9815 184.308 69.8692 184.281 69.7595C184.244 69.5726 184.196 69.3879 184.139 69.206C184.032 68.8581 183.912 68.5255 183.786 68.197C183.536 67.5408 183.253 66.9058 182.967 66.2747C182.39 65.0151 181.793 63.7705 181.154 62.5483C179.899 60.0931 178.557 57.6888 177.174 55.3066C176.471 54.1212 175.757 52.9442 175.019 51.7744C174.643 51.1872 174.275 50.6225 173.828 50.0293C173.482 49.5069 173.221 48.9332 173.054 48.3295C172.32 45.7 171.776 43.0208 171.428 40.313Z" fill="url(#paint18_linear_8_1978)"/>
<path d="M167.965 73.9178C171.921 67.8182 177.629 70.4921 177.629 70.4921C177.629 70.4921 179.834 100.789 166.316 101.613C156.029 102.241 147.177 95.9934 140.953 89.266C137.729 85.7643 135.689 81.3369 135.121 76.6111C134.277 69.7106 133.008 59.2857 132.686 56.2784C132.192 51.6625 130.321 39.5764 123.619 40.313C123.619 40.313 109.607 40.4524 116.86 64.686C116.86 64.686 118.838 79.8525 105.98 78.0391C105.98 78.0391 108.618 70.4558 105.156 64.686C101.694 58.9161 97.1423 51.6215 97.3573 46.614C97.3573 46.614 142.742 33.1988 147.853 34.0231C144.707 35.6835 142.177 38.3089 140.634 41.5135C139.091 44.7181 138.617 48.3331 139.28 51.8273C140.788 61.6269 148.04 74.7777 151.406 80.4801C151.939 81.3897 152.709 82.1377 153.634 82.6446C154.559 83.1514 155.604 83.3982 156.658 83.3586C158.607 83.2803 160.843 82.9949 161.907 82.1605C164.008 80.5119 167.965 73.9178 167.965 73.9178Z" fill="url(#paint19_linear_8_1978)"/>
<path d="M168.45 44.8546C167.487 44.1127 166.384 43.5718 165.207 43.2642C164.01 42.9275 162.76 42.8231 161.523 42.9569C160.259 43.108 159.057 43.5872 158.036 44.3467C157.043 45.0881 156.281 46.0959 155.838 47.2531C156.671 46.4701 157.603 45.7978 158.608 45.2529C159.573 44.7605 160.618 44.4443 161.694 44.3192C162.795 44.1971 163.906 44.1951 165.008 44.3133C166.134 44.431 167.272 44.6158 168.45 44.8546Z" fill="url(#paint20_linear_8_1978)"/>
<path d="M129.554 61.7186C127.344 62.5852 124.786 62.4874 123.15 61.0366C122.324 60.305 121.665 59.405 121.217 58.3972C120.734 57.3612 120.348 56.2831 120.062 55.1765C119.425 52.945 119.048 50.6472 118.939 48.329C118.889 47.1655 118.918 45.9999 119.027 44.8403C119.081 44.2574 119.166 43.6776 119.28 43.1033C119.331 42.8129 119.405 42.5302 119.482 42.2453C119.542 41.9571 119.66 41.6838 119.827 41.4416C119.413 41.8859 119.102 42.4158 118.915 42.9937C118.694 43.5584 118.51 44.1365 118.362 44.7246C118.082 45.907 117.916 47.1138 117.867 48.3281C117.779 50.7647 118.073 53.2001 118.74 55.5455C119.401 57.8239 120.361 60.3458 122.504 61.8873C123.558 62.6418 124.841 63.0065 126.134 62.9189C127.362 62.8376 128.544 62.4226 129.554 61.7186Z" fill="url(#paint21_linear_8_1978)"/>
<path d="M145.547 93.6655C144.739 94.159 143.991 94.7462 143.321 95.4148C142.646 96.0648 142.025 96.7674 141.462 97.516C140.891 98.2717 140.399 99.084 139.993 99.94C139.52 100.802 139.329 101.791 139.446 102.767C139.842 101.952 140.335 101.187 140.913 100.49C141.457 99.7736 142.027 99.0701 142.562 98.3381C143.106 97.6114 143.635 96.8673 144.142 96.098C144.669 95.3227 145.139 94.5096 145.547 93.6655Z" fill="url(#paint22_linear_8_1978)"/>
<path d="M105.98 78.0391C105.107 79.3903 104.311 80.7901 103.597 82.2318C103.236 82.9212 102.879 83.6017 102.477 84.2501C102.08 84.9329 101.595 85.5605 101.035 86.117C101.907 85.9954 102.71 85.5753 103.307 84.9283C103.918 84.3292 104.426 83.6342 104.812 82.8708C105.2 82.1295 105.499 81.3449 105.702 80.5332C105.924 79.7214 106.018 78.8799 105.98 78.0391Z" fill="url(#paint23_linear_8_1978)"/>
<path d="M85.8644 74.5728C85.8644 74.5728 101.764 75.7344 104.45 82.0814L103.967 82.992L102.192 82.0814C93.661 77.8346 88.838 83.4753 94.7668 84.4696C100.705 85.4546 136.064 101.652 136.064 101.652C151.397 105.992 160.383 129.307 160.383 129.307C157.911 128.248 155.393 127.3 152.893 126.287C150.328 125.46 147.782 124.568 145.189 123.834C139.984 122.364 134.675 121.286 129.308 120.609C123.932 119.917 118.501 119.749 113.092 120.107C111.745 120.256 110.397 120.34 109.05 120.535C107.721 120.767 106.374 120.925 105.054 121.241C102.4 121.763 99.8148 122.589 97.3502 123.704C99.9132 122.937 102.542 122.412 105.203 122.133C106.522 121.929 107.86 121.864 109.18 121.743C110.509 121.659 111.838 121.613 113.166 121.548C118.487 121.467 123.807 121.768 129.085 122.449L133.044 122.96L136.984 123.657L138.954 123.983L140.905 124.41C142.216 124.698 143.517 124.977 144.827 125.246C147.429 125.85 150.012 126.538 152.624 127.161C155.207 127.867 157.772 128.647 160.383 129.307C200.602 135.905 239.846 160.633 242.475 159.973C245.115 159.314 247.428 138.544 247.428 133.201C247.428 127.867 248.413 117.766 256.331 117.766C264.239 117.766 263.254 124.689 263.254 124.689C248.414 128.648 282.704 131.621 292.926 132.931C303.148 134.251 297.544 130.302 297.544 130.302C297.544 130.302 300.509 127.133 303.687 131.073C304.679 132.344 305.347 133.836 305.635 135.423C305.924 137.009 305.823 138.641 305.341 140.18C304.328 143.562 302.832 148.692 301.828 152.716C300.174 159.314 294.245 206.79 292.266 211.409C290.287 216.018 249.408 228.22 162.362 221.956C155.309 220.85 148.284 219.68 141.259 218.509C134.243 217.31 127.226 216.083 120.266 214.661C116.781 213.964 113.297 213.24 109.849 212.413C106.383 211.623 102.944 210.746 99.534 209.783C96.1217 208.824 92.7597 207.695 89.4606 206.4C86.12 205.198 83.0088 203.435 80.2608 201.187C81.4716 202.512 82.8601 203.663 84.3868 204.607C85.8969 205.582 87.4674 206.46 89.0889 207.236C92.3439 208.752 95.6895 210.065 99.1066 211.167C105.929 213.335 112.869 215.11 119.894 216.483C126.91 217.877 133.961 219.029 141.045 219.94C148.126 220.878 155.235 221.566 162.362 221.956C162.362 221.956 165.531 241.22 167.185 258.551H43.2012C43.3313 241.629 43.3592 219.206 42.8388 199.04C41.8538 160.141 42.8388 141.834 42.8388 141.834C44.6214 141.637 46.3821 141.276 48.0985 140.756C49.8177 140.264 51.4997 139.678 53.1817 139.074C56.5364 137.866 59.8074 136.454 63.0599 135.004C66.2938 133.526 69.4904 131.984 72.6407 130.32C75.791 128.675 78.904 126.938 81.9149 125.023C78.5602 126.25 75.2799 127.616 72.0181 129.019C68.7563 130.404 65.5318 131.872 62.2885 133.313L52.6334 137.736C49.3902 139.167 46.2214 140.71 42.8388 141.834C42.8388 141.834 26.5207 149.259 25.0338 130.46C23.5563 111.67 41.3613 71.1159 85.8644 74.5728ZM79.0155 135.626C77.3756 137.175 75.9448 138.93 74.7595 140.849C74.1741 141.806 73.6722 142.819 73.1426 143.823C72.6872 144.854 72.3155 145.913 71.888 146.964C71.6863 147.49 71.5247 148.03 71.4049 148.58L70.9774 150.216C70.6891 151.303 70.4779 152.408 70.3455 153.524L70.1225 155.197L70.0109 156.033L69.9737 156.87L69.8622 160.224L69.8344 161.061L69.8902 161.897L70.0109 163.57C70.0852 164.685 70.1596 165.791 70.2804 166.897C70.6521 169.09 71.0052 171.283 71.4792 173.448C72.0832 175.585 72.6687 177.713 73.3377 179.813C73.0683 177.611 72.7244 175.446 72.3806 173.281C72.1204 171.106 71.9717 168.922 71.7208 166.757L71.6372 163.495L71.5907 161.869L71.5628 161.061L71.6186 160.252L71.7858 157.009L71.823 156.201L71.9438 155.401L72.1854 153.803C72.7305 149.531 74.0234 145.388 76.0047 141.564C77.0308 139.669 78.2583 137.89 79.6661 136.258C81.0706 134.588 82.7146 133.135 84.5448 131.946C82.4923 132.825 80.6182 134.072 79.0155 135.626ZM55.5885 97.9906C56.2537 99.3903 57.3927 100.509 58.8038 101.15C59.5022 101.469 60.235 101.706 60.9876 101.856C61.7393 101.963 62.4963 102.028 63.2551 102.052C64.0078 102.014 64.7698 102.014 65.5132 101.921L67.7249 101.559C68.459 101.41 69.1653 101.197 69.8901 101.011L71.981 100.444C73.3441 100.088 74.733 99.8395 76.1348 99.7004C78.975 99.4356 81.8331 99.4263 84.6749 99.6726C90.4178 100.191 96.1086 101.179 101.69 102.628C104.496 103.334 107.303 104.096 110.081 104.923C112.878 105.713 115.629 106.624 118.398 107.544C113.134 105.007 107.674 102.897 102.071 101.234C96.4559 99.5011 90.6755 98.3582 84.8236 97.8233C81.8616 97.5881 78.8842 97.6316 75.9304 97.9534C74.4435 98.1446 72.9737 98.4522 71.5349 98.8734L67.3996 100.146L65.3273 100.592C64.6303 100.713 63.9334 100.741 63.2365 100.834C62.5395 100.881 61.8425 100.825 61.1549 100.806C60.4731 100.715 59.8032 100.55 59.1569 100.314C57.8422 99.8616 56.7318 98.9555 56.0253 97.7582C55.6602 97.1505 55.3847 96.4932 55.2075 95.8067C54.9984 95.113 54.8858 94.3938 54.8729 93.6694C54.7113 95.1481 54.9588 96.6429 55.5885 97.9906H55.5885Z" fill="url(#paint24_linear_8_1978)"/>
<path d="M219.399 258.554C201.101 258.023 182.802 257.667 164.503 257.486C155.354 257.36 146.204 257.332 137.055 257.257L109.607 257.181L82.1585 257.253C73.0091 257.33 63.8597 257.354 54.7103 257.482C36.4114 257.662 18.1126 258.019 -0.186096 258.554C18.1127 259.088 36.4115 259.446 54.7103 259.626C63.8597 259.754 73.0091 259.778 82.1585 259.855L109.607 259.927L137.055 259.851C146.204 259.777 155.354 259.749 164.503 259.622C182.802 259.441 201.101 259.085 219.399 258.554Z" fill="url(#paint25_linear_8_1978)"/>
<path d="M165.369 54.806C161.781 54.806 161.775 49.2303 165.369 49.2303C168.956 49.2303 168.962 54.806 165.369 54.806Z" fill="url(#paint26_linear_8_1978)"/>
</g>
<defs>
<linearGradient id="paint0_linear_8_1978" x1="316.577" y1="58.1857" x2="340.149" y2="104.387" gradientUnits="userSpaceOnUse">
<stop stop-color="#9DE8EE"/>
<stop offset="0.0001" stop-color="#9DE8EE"/>
<stop offset="0.490049" stop-color="#FA7C0B"/>
<stop offset="1" stop-color="#9F8CED"/>
</linearGradient>
<linearGradient id="paint1_linear_8_1978" x1="255.823" y1="63.7997" x2="263.586" y2="78.4871" gradientUnits="userSpaceOnUse">
<stop stop-color="#9DE8EE"/>
<stop offset="0.0001" stop-color="#9DE8EE"/>
<stop offset="0.490049" stop-color="#FA7C0B"/>
<stop offset="1" stop-color="#9F8CED"/>
</linearGradient>
<linearGradient id="paint2_linear_8_1978" x1="320.871" y1="67.1387" x2="322.913" y2="75.296" gradientUnits="userSpaceOnUse">
<stop stop-color="#9DE8EE"/>
<stop offset="0.0001" stop-color="#9DE8EE"/>
<stop offset="0.490049" stop-color="#FA7C0B"/>
<stop offset="1" stop-color="#9F8CED"/>
</linearGradient>
<linearGradient id="paint3_linear_8_1978" x1="360.666" y1="55.8849" x2="368.798" y2="58.2144" gradientUnits="userSpaceOnUse">
<stop stop-color="#9DE8EE"/>
<stop offset="0.0001" stop-color="#9DE8EE"/>
<stop offset="0.490049" stop-color="#FA7C0B"/>
<stop offset="1" stop-color="#9F8CED"/>
</linearGradient>
<linearGradient id="paint4_linear_8_1978" x1="310.118" y1="68.408" x2="311.352" y2="71.5292" gradientUnits="userSpaceOnUse">
<stop stop-color="#9DE8EE"/>
<stop offset="0.0001" stop-color="#9DE8EE"/>
<stop offset="0.490049" stop-color="#FA7C0B"/>
<stop offset="1" stop-color="#9F8CED"/>
</linearGradient>
<linearGradient id="paint5_linear_8_1978" x1="299.138" y1="64.9319" x2="300.246" y2="67.2003" gradientUnits="userSpaceOnUse">
<stop stop-color="#9DE8EE"/>
<stop offset="0.0001" stop-color="#9DE8EE"/>
<stop offset="0.490049" stop-color="#FA7C0B"/>
<stop offset="1" stop-color="#9F8CED"/>
</linearGradient>
<linearGradient id="paint6_linear_8_1978" x1="306.052" y1="60.2778" x2="308.498" y2="68.8932" gradientUnits="userSpaceOnUse">
<stop stop-color="#9DE8EE"/>
<stop offset="0.0001" stop-color="#9DE8EE"/>
<stop offset="0.490049" stop-color="#FA7C0B"/>
<stop offset="1" stop-color="#9F8CED"/>
</linearGradient>
<linearGradient id="paint7_linear_8_1978" x1="290.117" y1="55.8455" x2="290.602" y2="56.7784" gradientUnits="userSpaceOnUse">
<stop stop-color="#9DE8EE"/>
<stop offset="0.0001" stop-color="#9DE8EE"/>
<stop offset="0.490049" stop-color="#FA7C0B"/>
<stop offset="1" stop-color="#9F8CED"/>
</linearGradient>
<linearGradient id="paint8_linear_8_1978" x1="378.079" y1="57.5394" x2="391.58" y2="64.9305" gradientUnits="userSpaceOnUse">
<stop stop-color="#9DE8EE"/>
<stop offset="0.0001" stop-color="#9DE8EE"/>
<stop offset="0.490049" stop-color="#FA7C0B"/>
<stop offset="1" stop-color="#9F8CED"/>
</linearGradient>
<linearGradient id="paint9_linear_8_1978" x1="333.348" y1="78.7766" x2="349.088" y2="91.0115" gradientUnits="userSpaceOnUse">
<stop stop-color="#9DE8EE"/>
<stop offset="0.0001" stop-color="#9DE8EE"/>
<stop offset="0.490049" stop-color="#FA7C0B"/>
<stop offset="1" stop-color="#9F8CED"/>
</linearGradient>
<linearGradient id="paint10_linear_8_1978" x1="272.378" y1="97.9282" x2="308.879" y2="149.54" gradientUnits="userSpaceOnUse">
<stop stop-color="#9DE8EE"/>
<stop offset="0.0001" stop-color="#9DE8EE"/>
<stop offset="0.490049" stop-color="#FA7C0B"/>
<stop offset="1" stop-color="#9F8CED"/>
</linearGradient>
<linearGradient id="paint11_linear_8_1978" x1="316.035" y1="50.414" x2="316.302" y2="55.036" gradientUnits="userSpaceOnUse">
<stop stop-color="#9DE8EE"/>
<stop offset="0.0001" stop-color="#9DE8EE"/>
<stop offset="0.490049" stop-color="#FA7C0B"/>
<stop offset="1" stop-color="#9F8CED"/>
</linearGradient>
<linearGradient id="paint12_linear_8_1978" x1="265.963" y1="64.0722" x2="315.648" y2="108.321" gradientUnits="userSpaceOnUse">
<stop stop-color="#9DE8EE"/>
<stop offset="0.0001" stop-color="#9DE8EE"/>
<stop offset="0.490049" stop-color="#FA7C0B"/>
<stop offset="1" stop-color="#9F8CED"/>
</linearGradient>
<linearGradient id="paint13_linear_8_1978" x1="286.622" y1="59.864" x2="290.709" y2="62.0516" gradientUnits="userSpaceOnUse">
<stop stop-color="#9DE8EE"/>
<stop offset="0.0001" stop-color="#9DE8EE"/>
<stop offset="0.490049" stop-color="#FA7C0B"/>
<stop offset="1" stop-color="#9F8CED"/>
</linearGradient>
<linearGradient id="paint14_linear_8_1978" x1="123.095" y1="11.055" x2="137.587" y2="52.9558" gradientUnits="userSpaceOnUse">
<stop stop-color="#9DE8EE"/>
<stop offset="0.0001" stop-color="#9DE8EE"/>
<stop offset="0.490049" stop-color="#FA7C0B"/>
<stop offset="1" stop-color="#9F8CED"/>
</linearGradient>
<linearGradient id="paint15_linear_8_1978" x1="131.248" y1="11.2946" x2="142.854" y2="24.5269" gradientUnits="userSpaceOnUse">
<stop stop-color="#9DE8EE"/>
<stop offset="0.0001" stop-color="#9DE8EE"/>
<stop offset="0.490049" stop-color="#FA7C0B"/>
<stop offset="1" stop-color="#9F8CED"/>
</linearGradient>
<linearGradient id="paint16_linear_8_1978" x1="109.159" y1="14.6243" x2="119.451" y2="18.1669" gradientUnits="userSpaceOnUse">
<stop stop-color="#9DE8EE"/>
<stop offset="0.0001" stop-color="#9DE8EE"/>
<stop offset="0.490049" stop-color="#FA7C0B"/>
<stop offset="1" stop-color="#9F8CED"/>
</linearGradient>
<linearGradient id="paint17_linear_8_1978" x1="157.771" y1="28.6213" x2="158.234" y2="31.9005" gradientUnits="userSpaceOnUse">
<stop stop-color="#9DE8EE"/>
<stop offset="0.0001" stop-color="#9DE8EE"/>
<stop offset="0.490049" stop-color="#FA7C0B"/>
<stop offset="1" stop-color="#9F8CED"/>
</linearGradient>
<linearGradient id="paint18_linear_8_1978" x1="175.073" y1="47.2192" x2="187.486" y2="53.9585" gradientUnits="userSpaceOnUse">
<stop stop-color="#9DE8EE"/>
<stop offset="0.0001" stop-color="#9DE8EE"/>
<stop offset="0.490049" stop-color="#FA7C0B"/>
<stop offset="1" stop-color="#9F8CED"/>
</linearGradient>
<linearGradient id="paint19_linear_8_1978" x1="120.091" y1="49.2375" x2="150.018" y2="95.0728" gradientUnits="userSpaceOnUse">
<stop stop-color="#9DE8EE"/>
<stop offset="0.0001" stop-color="#9DE8EE"/>
<stop offset="0.490049" stop-color="#FA7C0B"/>
<stop offset="1" stop-color="#9F8CED"/>
</linearGradient>
<linearGradient id="paint20_linear_8_1978" x1="159.405" y1="43.8814" x2="160.455" y2="47.8051" gradientUnits="userSpaceOnUse">
<stop stop-color="#9DE8EE"/>
<stop offset="0.0001" stop-color="#9DE8EE"/>
<stop offset="0.490049" stop-color="#FA7C0B"/>
<stop offset="1" stop-color="#9F8CED"/>
</linearGradient>
<linearGradient id="paint21_linear_8_1978" x1="121.161" y1="46.2848" x2="130.924" y2="53.1361" gradientUnits="userSpaceOnUse">
<stop stop-color="#9DE8EE"/>
<stop offset="0.0001" stop-color="#9DE8EE"/>
<stop offset="0.490049" stop-color="#FA7C0B"/>
<stop offset="1" stop-color="#9F8CED"/>
</linearGradient>
<linearGradient id="paint22_linear_8_1978" x1="141.147" y1="95.7168" x2="145.501" y2="99.4984" gradientUnits="userSpaceOnUse">
<stop stop-color="#9DE8EE"/>
<stop offset="0.0001" stop-color="#9DE8EE"/>
<stop offset="0.490049" stop-color="#FA7C0B"/>
<stop offset="1" stop-color="#9F8CED"/>
</linearGradient>
<linearGradient id="paint23_linear_8_1978" x1="102.435" y1="79.8596" x2="106.232" y2="82.8603" gradientUnits="userSpaceOnUse">
<stop stop-color="#9DE8EE"/>
<stop offset="0.0001" stop-color="#9DE8EE"/>
<stop offset="0.490049" stop-color="#FA7C0B"/>
<stop offset="1" stop-color="#9F8CED"/>
</linearGradient>
<linearGradient id="paint24_linear_8_1978" x1="104.375" y1="115.875" x2="176.296" y2="257.219" gradientUnits="userSpaceOnUse">
<stop stop-color="#9DE8EE"/>
<stop offset="0.0001" stop-color="#9DE8EE"/>
<stop offset="0.490049" stop-color="#FA7C0B"/>
<stop offset="1" stop-color="#9F8CED"/>
</linearGradient>
<linearGradient id="paint25_linear_8_1978" x1="61.9145" y1="257.8" x2="61.9403" y2="260.453" gradientUnits="userSpaceOnUse">
<stop stop-color="#9DE8EE"/>
<stop offset="0.0001" stop-color="#9DE8EE"/>
<stop offset="0.490049" stop-color="#FA7C0B"/>
<stop offset="1" stop-color="#9F8CED"/>
</linearGradient>
<linearGradient id="paint26_linear_8_1978" x1="164.199" y1="50.4869" x2="166.829" y2="53.7612" gradientUnits="userSpaceOnUse">
<stop stop-color="#9DE8EE"/>
<stop offset="0.0001" stop-color="#9DE8EE"/>
<stop offset="0.490049" stop-color="#FA7C0B"/>
<stop offset="1" stop-color="#9F8CED"/>
</linearGradient>
<clipPath id="clip0_8_1978">
<rect width="388" height="260" fill="white" transform="matrix(-1 0 0 1 388 0)"/>
</clipPath>
</defs>
</svg>
