<svg width="150" height="40" viewBox="0 0 150 40" fill="none" xmlns="http://www.w3.org/2000/svg">
<path d="M8.42001 18.7254C9.25839 15.3365 11.2 12.327 13.9358 10.1763C16.6716 8.02557 20.0442 6.85718 23.5166 6.85718C26.989 6.85718 30.3616 8.02557 33.0974 10.1763C35.8332 12.327 37.7748 15.3365 38.6132 18.7254H37.2496C34.9492 18.6913 32.696 19.3828 30.8064 20.7025C30.6973 20.782 30.5834 20.8545 30.4655 20.9197H30.3064C30.1884 20.8545 30.0746 20.782 29.9655 20.7025C28.0591 19.4133 25.8139 18.7247 23.5166 18.7247C21.2193 18.7247 18.9741 19.4133 17.0677 20.7025C16.9586 20.782 16.8448 20.8545 16.7268 20.9197H16.5677C16.4498 20.8545 16.3359 20.782 16.2268 20.7025C14.3372 19.3828 12.084 18.6913 9.78365 18.7254H8.42001ZM34.795 25.8911C35.495 25.3429 36.3626 25.056 37.2496 25.0797H39.0791V21.4111H37.2496C35.6873 21.3921 34.1608 21.8812 32.8973 22.8054C32.1863 23.3326 31.3261 23.6171 30.4427 23.6171C29.5593 23.6171 28.6992 23.3326 27.9882 22.8054C26.6926 21.8984 25.1519 21.4121 23.5734 21.4121C21.9949 21.4121 20.4542 21.8984 19.1586 22.8054C18.4476 23.3326 17.5875 23.6171 16.7041 23.6171C15.8207 23.6171 14.9606 23.3326 14.2496 22.8054C12.9705 21.8693 11.4221 21.3797 9.84046 21.4111H7.9541V25.0797H9.78365C10.6706 25.056 11.5382 25.3429 12.2382 25.8911C13.5314 26.7988 15.0704 27.2854 16.6473 27.2854C18.2242 27.2854 19.7632 26.7988 21.0564 25.8911C21.7573 25.3446 22.6242 25.058 23.5109 25.0797C24.3982 25.0541 25.2664 25.3412 25.9655 25.8911C27.261 26.7982 28.8017 27.2844 30.3802 27.2844C31.9588 27.2844 33.4994 26.7982 34.795 25.8911ZM34.795 32.4511C35.495 31.9029 36.3626 31.616 37.2496 31.6397H39.0791V27.9711H37.2496C35.6873 27.9521 34.1608 28.4412 32.8973 29.3654C32.1863 29.8926 31.3261 30.1771 30.4427 30.1771C29.5593 30.1771 28.6992 29.8926 27.9882 29.3654C26.6926 28.4584 25.1519 27.9723 23.5734 27.9723C21.9949 27.9723 20.4542 28.4584 19.1586 29.3654C18.4476 29.8926 17.5875 30.1771 16.7041 30.1771C15.8207 30.1771 14.9606 29.8926 14.2496 29.3654C12.9705 28.4294 11.4221 27.9397 9.84046 27.9711H7.9541V31.6397H9.78365C10.6706 31.616 11.5382 31.9029 12.2382 32.4511C13.5314 33.3588 15.0704 33.8454 16.6473 33.8454C18.2242 33.8454 19.7632 33.3588 21.0564 32.4511C21.7573 31.9046 22.6242 31.618 23.5109 31.6397C24.3982 31.6141 25.2664 31.9012 25.9655 32.4511C27.261 33.3582 28.8017 33.8444 30.3802 33.8444C31.9588 33.8444 33.4994 33.3582 34.795 32.4511Z" fill="#4B5567"/>
<path d="M64.9926 21.592C64.9926 22.904 64.6966 24.064 64.1046 25.072C63.5286 26.064 62.7446 26.84 61.7526 27.4C60.7766 27.96 59.6806 28.24 58.4646 28.24C57.2486 28.24 56.1446 27.96 55.1526 27.4C54.1766 26.84 53.3926 26.064 52.8006 25.072C52.2246 24.064 51.9366 22.904 51.9366 21.592C51.9366 20.28 52.2246 19.128 52.8006 18.136C53.3926 17.128 54.1766 16.344 55.1526 15.784C56.1446 15.208 57.2486 14.92 58.4646 14.92C59.6806 14.92 60.7766 15.208 61.7526 15.784C62.7446 16.344 63.5286 17.128 64.1046 18.136C64.6966 19.128 64.9926 20.28 64.9926 21.592ZM62.1126 21.592C62.1126 20.776 61.9446 20.072 61.6086 19.48C61.2886 18.872 60.8486 18.4 60.2886 18.064C59.7446 17.728 59.1366 17.56 58.4646 17.56C57.7926 17.56 57.1766 17.728 56.6166 18.064C56.0726 18.4 55.6326 18.872 55.2966 19.48C54.9766 20.072 54.8166 20.776 54.8166 21.592C54.8166 22.392 54.9766 23.096 55.2966 23.704C55.6326 24.296 56.0726 24.76 56.6166 25.096C57.1766 25.432 57.7926 25.6 58.4646 25.6C59.1366 25.6 59.7446 25.432 60.2886 25.096C60.8486 24.76 61.2886 24.296 61.6086 23.704C61.9446 23.096 62.1126 22.392 62.1126 21.592ZM74.5931 10.24C74.9451 10.24 75.2891 10.288 75.6251 10.384C75.9611 10.48 76.2411 10.64 76.4651 10.864C76.6891 11.072 76.8011 11.352 76.8011 11.704C76.8011 12.104 76.6811 12.424 76.4411 12.664C76.2171 12.888 75.9531 13 75.6491 13C75.5051 13 75.2891 12.968 75.0011 12.904C74.7131 12.824 74.4331 12.784 74.1611 12.784C73.7611 12.784 73.4491 12.872 73.2251 13.048C73.0171 13.224 72.8731 13.432 72.7931 13.672C72.7131 13.896 72.6731 14.096 72.6731 14.272V26.536C72.6731 26.952 72.5371 27.304 72.2651 27.592C71.9931 27.864 71.6491 28 71.2331 28C70.8171 28 70.4731 27.864 70.2011 27.592C69.9291 27.304 69.7931 26.952 69.7931 26.536V14.296C69.7931 13.16 70.1931 12.2 70.9931 11.416C71.7931 10.632 72.9931 10.24 74.5931 10.24ZM74.8571 15.4C75.2411 15.4 75.5611 15.528 75.8171 15.784C76.0731 16.024 76.2011 16.336 76.2011 16.72C76.2011 17.104 76.0731 17.424 75.8171 17.68C75.5611 17.92 75.2411 18.04 74.8571 18.04H68.4971C68.1131 18.04 67.7931 17.92 67.5371 17.68C67.2811 17.424 67.1531 17.104 67.1531 16.72C67.1531 16.336 67.2811 16.024 67.5371 15.784C67.7931 15.528 68.1131 15.4 68.4971 15.4H74.8571ZM85.0811 10.24C85.4331 10.24 85.7771 10.288 86.1131 10.384C86.4491 10.48 86.7291 10.64 86.9531 10.864C87.1771 11.072 87.2891 11.352 87.2891 11.704C87.2891 12.104 87.1691 12.424 86.9291 12.664C86.7051 12.888 86.4411 13 86.1371 13C85.9931 13 85.7771 12.968 85.4891 12.904C85.2011 12.824 84.9211 12.784 84.6491 12.784C84.2491 12.784 83.9371 12.872 83.7131 13.048C83.5051 13.224 83.3611 13.432 83.2811 13.672C83.2011 13.896 83.1611 14.096 83.1611 14.272V26.536C83.1611 26.952 83.0251 27.304 82.7531 27.592C82.4811 27.864 82.1371 28 81.7211 28C81.3051 28 80.9611 27.864 80.6891 27.592C80.4171 27.304 80.2811 26.952 80.2811 26.536V14.296C80.2811 13.16 80.6811 12.2 81.4811 11.416C82.2811 10.632 83.4811 10.24 85.0811 10.24ZM85.3451 15.4C85.7291 15.4 86.0491 15.528 86.3051 15.784C86.5611 16.024 86.6891 16.336 86.6891 16.72C86.6891 17.104 86.5611 17.424 86.3051 17.68C86.0491 17.92 85.7291 18.04 85.3451 18.04H78.9851C78.6011 18.04 78.2811 17.92 78.0251 17.68C77.7691 17.424 77.6411 17.104 77.6411 16.72C77.6411 16.336 77.7691 16.024 78.0251 15.784C78.2811 15.528 78.6011 15.4 78.9851 15.4H85.3451ZM96.1937 14.92C97.4737 14.92 98.4177 15.232 99.0257 15.856C99.6337 16.464 100.034 17.256 100.226 18.232L99.8177 18.016L100.01 17.632C100.202 17.264 100.498 16.872 100.898 16.456C101.298 16.024 101.778 15.664 102.338 15.376C102.914 15.072 103.554 14.92 104.258 14.92C105.41 14.92 106.282 15.168 106.874 15.664C107.482 16.16 107.898 16.824 108.122 17.656C108.346 18.472 108.458 19.384 108.458 20.392V26.536C108.458 26.952 108.322 27.304 108.05 27.592C107.778 27.864 107.434 28 107.018 28C106.602 28 106.258 27.864 105.986 27.592C105.714 27.304 105.578 26.952 105.578 26.536V20.392C105.578 19.864 105.514 19.392 105.386 18.976C105.258 18.544 105.026 18.2 104.69 17.944C104.354 17.688 103.874 17.56 103.25 17.56C102.642 17.56 102.122 17.688 101.69 17.944C101.258 18.2 100.93 18.544 100.706 18.976C100.498 19.392 100.394 19.864 100.394 20.392V26.536C100.394 26.952 100.258 27.304 99.9857 27.592C99.7137 27.864 99.3697 28 98.9537 28C98.5377 28 98.1937 27.864 97.9217 27.592C97.6497 27.304 97.5137 26.952 97.5137 26.536V20.392C97.5137 19.864 97.4497 19.392 97.3217 18.976C97.1937 18.544 96.9617 18.2 96.6257 17.944C96.2897 17.688 95.8097 17.56 95.1857 17.56C94.5777 17.56 94.0577 17.688 93.6257 17.944C93.1937 18.2 92.8657 18.544 92.6417 18.976C92.4337 19.392 92.3297 19.864 92.3297 20.392V26.536C92.3297 26.952 92.1937 27.304 91.9217 27.592C91.6497 27.864 91.3057 28 90.8897 28C90.4737 28 90.1297 27.864 89.8577 27.592C89.5857 27.304 89.4497 26.952 89.4497 26.536V16.624C89.4497 16.208 89.5857 15.864 89.8577 15.592C90.1297 15.304 90.4737 15.16 90.8897 15.16C91.3057 15.16 91.6497 15.304 91.9217 15.592C92.1937 15.864 92.3297 16.208 92.3297 16.624V17.656L91.9697 17.584C92.1137 17.312 92.3137 17.024 92.5697 16.72C92.8257 16.4 93.1377 16.104 93.5057 15.832C93.8737 15.56 94.2817 15.344 94.7297 15.184C95.1777 15.008 95.6657 14.92 96.1937 14.92ZM122.567 14.92C122.983 14.92 123.327 15.056 123.599 15.328C123.871 15.6 124.007 15.952 124.007 16.384V26.536C124.007 26.952 123.871 27.304 123.599 27.592C123.327 27.864 122.983 28 122.567 28C122.151 28 121.807 27.864 121.535 27.592C121.263 27.304 121.127 26.952 121.127 26.536V25.36L121.655 25.576C121.655 25.784 121.543 26.04 121.319 26.344C121.095 26.632 120.791 26.92 120.407 27.208C120.023 27.496 119.567 27.744 119.039 27.952C118.527 28.144 117.967 28.24 117.359 28.24C116.255 28.24 115.255 27.96 114.359 27.4C113.463 26.824 112.751 26.04 112.223 25.048C111.711 24.04 111.455 22.888 111.455 21.592C111.455 20.28 111.711 19.128 112.223 18.136C112.751 17.128 113.455 16.344 114.335 15.784C115.215 15.208 116.191 14.92 117.263 14.92C117.951 14.92 118.583 15.024 119.159 15.232C119.735 15.44 120.231 15.704 120.647 16.024C121.079 16.344 121.407 16.672 121.631 17.008C121.871 17.328 121.991 17.6 121.991 17.824L121.127 18.136V16.384C121.127 15.968 121.263 15.624 121.535 15.352C121.807 15.064 122.151 14.92 122.567 14.92ZM117.719 25.6C118.423 25.6 119.039 25.424 119.567 25.072C120.095 24.72 120.503 24.24 120.791 23.632C121.095 23.024 121.247 22.344 121.247 21.592C121.247 20.824 121.095 20.136 120.791 19.528C120.503 18.92 120.095 18.44 119.567 18.088C119.039 17.736 118.423 17.56 117.719 17.56C117.031 17.56 116.423 17.736 115.895 18.088C115.367 18.44 114.951 18.92 114.647 19.528C114.359 20.136 114.215 20.824 114.215 21.592C114.215 22.344 114.359 23.024 114.647 23.632C114.951 24.24 115.367 24.72 115.895 25.072C116.423 25.424 117.031 25.6 117.719 25.6ZM127.869 15.16C128.333 15.16 128.725 15.36 129.045 15.76L137.061 25.72C137.269 25.976 137.373 26.264 137.373 26.584C137.373 26.984 137.221 27.328 136.917 27.616C136.613 27.904 136.277 28.048 135.909 28.048C135.445 28.048 135.053 27.84 134.733 27.424L126.717 17.464C126.509 17.208 126.405 16.92 126.405 16.6C126.405 16.184 126.549 15.84 126.837 15.568C127.141 15.296 127.485 15.16 127.869 15.16ZM127.893 28.024C127.573 28.024 127.253 27.904 126.933 27.664C126.629 27.408 126.477 27.104 126.477 26.752C126.477 26.432 126.597 26.128 126.837 25.84L130.509 21.352L131.949 23.752L129.045 27.424C128.741 27.824 128.357 28.024 127.893 28.024ZM135.885 15.16C136.269 15.16 136.589 15.296 136.845 15.568C137.117 15.824 137.253 16.12 137.253 16.456C137.253 16.616 137.229 16.776 137.181 16.936C137.133 17.096 137.045 17.248 136.917 17.392L133.293 21.808L131.781 19.72L134.733 15.808C135.053 15.376 135.437 15.16 135.885 15.16Z" fill="white"/>
</svg>
