<svg width="2882" height="1740" viewBox="0 0 2882 1740" fill="none" xmlns="http://www.w3.org/2000/svg">
<path d="M72.9843 1V67.8461M72.9843 1H1V67.8461M72.9843 1H144.969M72.9843 67.8461L72.9843 134.692M72.9843 67.8461H1M72.9843 67.8461L144.969 67.8462M72.9843 134.692V201.538M72.9843 134.692H1M72.9843 134.692L144.969 134.692M72.9843 201.538L72.9843 268.385M72.9843 201.538H1M72.9843 201.538H144.968M72.9843 268.385V335.231M72.9843 268.385H1M72.9843 268.385H144.968M72.9843 335.231V402.077M72.9843 335.231H1M72.9843 335.231H144.968M72.9843 402.077L72.9842 468.923M72.9843 402.077H1M72.9843 402.077H144.968M72.9842 468.923V535.769M72.9842 468.923H1M72.9842 468.923H144.968M72.9842 535.769V602.615M72.9842 535.769H1M72.9842 535.769H144.968M72.9842 602.615L72.9842 669.461M72.9842 602.615H1M72.9842 602.615H144.968M72.9842 669.461V736.308M72.9842 669.461H1M72.9842 669.461H144.968M72.9842 736.308L72.9842 803.154M72.9842 736.308H1M72.9842 736.308H144.968M72.9842 803.154V870M72.9842 803.154H1M72.9842 803.154H144.968M72.9842 870L1 870V803.154M72.9842 870H144.968M1 67.8461V134.692M1 134.692V201.538M1 201.538V268.385M1 268.385V335.231M1 335.231V402.077M1 402.077V468.923M1 468.923V535.769M1 535.769V602.615M1 602.615V669.461M1 669.461V736.308M1 736.308V803.154M144.969 1V67.8462M144.969 1H216.953M144.969 67.8462V134.692M144.969 67.8462H216.953M144.969 134.692L144.968 201.538M144.969 134.692H216.953M144.968 201.538V268.385M144.968 201.538L216.953 201.538M144.968 268.385V335.231M144.968 268.385H216.953M144.968 335.231V402.077M144.968 335.231H216.953M144.968 402.077L144.968 468.923M144.968 402.077H216.953M144.968 468.923V535.769M144.968 468.923H216.953M144.968 535.769V602.615M144.968 535.769H216.953M144.968 602.615V669.461M144.968 602.615H216.953M144.968 669.461L144.968 736.308M144.968 669.461H216.953M144.968 736.308V803.154M144.968 736.308H216.953M144.968 803.154V870M144.968 803.154H216.953M144.968 870H216.953M216.953 1V67.8462M216.953 1H288.937M216.953 67.8462V134.692M216.953 67.8462L288.937 67.8462M216.953 134.692L216.953 201.538M216.953 134.692H288.937M216.953 201.538V268.385M216.953 201.538H288.937M216.953 268.385V335.231M216.953 268.385L288.937 268.385M216.953 335.231V402.077M216.953 335.231L288.937 335.231M216.953 402.077L216.953 468.923M216.953 402.077H288.937M216.953 468.923V535.769M216.953 468.923H288.937M216.953 535.769V602.615M216.953 535.769H288.937M216.953 602.615V669.461M216.953 602.615H288.937M216.953 669.461L216.953 736.308M216.953 669.461H288.937M216.953 736.308V803.154M216.953 736.308H288.937M216.953 803.154V870M216.953 803.154H288.937M216.953 870H288.937M288.937 1V67.8462M288.937 1H360.921M288.937 67.8462V134.692M288.937 67.8462H360.921M288.937 134.692V201.538M288.937 134.692L360.921 134.692M288.937 201.538V268.385M288.937 201.538H360.921M288.937 268.385V335.231M288.937 268.385H360.921M288.937 335.231V402.077M288.937 335.231H360.921M288.937 402.077L288.937 468.923M288.937 402.077H360.921M288.937 468.923V535.769M288.937 468.923H360.921M288.937 535.769V602.615M288.937 535.769H360.921M288.937 602.615V669.461M288.937 602.615H360.921M288.937 669.461V736.308M288.937 669.461H360.921M288.937 736.308V803.154M288.937 736.308H360.921M288.937 803.154V870M288.937 803.154H360.921M288.937 870H360.921M504.89 1V67.8462M504.89 1H432.905M504.89 1H576.874M504.89 67.8462V134.692M504.89 67.8462H432.905M504.89 67.8462L576.874 67.8462M504.89 134.692V201.538M504.89 134.692H432.905M504.89 134.692H576.874M504.89 201.538V268.385M504.89 201.538L432.905 201.538M504.89 201.538H576.874M504.89 268.385V335.231M504.89 268.385H432.905M504.89 268.385H576.874M504.89 335.231V402.077M504.89 335.231H432.905M504.89 335.231H576.874M504.89 402.077L504.89 468.923M504.89 402.077L432.905 402.077M504.89 402.077H576.874M504.89 468.923V535.769M504.89 468.923L432.905 468.923M504.89 468.923H576.874M504.89 535.769V602.615M504.89 535.769L432.905 535.769M504.89 535.769H576.874M504.89 602.615V669.462M504.89 602.615H432.905M504.89 602.615H576.874M504.89 669.462V736.308M504.89 669.462L432.905 669.461M504.89 669.462H576.874M504.89 736.308V803.154M504.89 736.308L432.905 736.308M504.89 736.308H576.874M504.89 803.154V870M504.89 803.154L432.905 803.154M504.89 803.154H576.874M504.89 870H432.905M504.89 870H576.874M720.842 1V67.8462M720.842 1H648.858M720.842 1H792.827M720.842 67.8462V134.692M720.842 67.8462L648.858 67.8462M720.842 67.8462H792.827M720.842 134.692V201.538M720.842 134.692H648.858M720.842 134.692H792.827M720.842 201.538V268.385M720.842 201.538H648.858M720.842 201.538L792.827 201.538M720.842 268.385V335.231M720.842 268.385L648.858 268.385M720.842 268.385H792.827M720.842 335.231V402.077M720.842 335.231L648.858 335.231M720.842 335.231H792.827M720.842 402.077L720.842 468.923M720.842 402.077H648.858M720.842 402.077H792.827M720.842 468.923V535.769M720.842 468.923H648.858M720.842 468.923H792.827M720.842 535.769V602.615M720.842 535.769H648.858M720.842 535.769H792.827M720.842 602.615V669.462M720.842 602.615H648.858M720.842 602.615H792.827M720.842 669.462V736.308M720.842 669.462H648.858M720.842 669.462H792.827M720.842 736.308V803.154M720.842 736.308H648.858M720.842 736.308H792.827M720.842 803.154V870M720.842 803.154H648.858M720.842 803.154H792.827M720.842 870H648.858M720.842 870H792.827M360.921 1V67.8462M360.921 1H432.905M360.921 67.8462V134.692M360.921 67.8462L432.905 67.8462M360.921 134.692V201.538M360.921 134.692H432.905M360.921 201.538V268.385M360.921 201.538H432.905M360.921 268.385V335.231M360.921 268.385H432.905M360.921 335.231V402.077M360.921 335.231H432.905M360.921 402.077L360.921 468.923M360.921 402.077H432.905M360.921 468.923V535.769M360.921 468.923H432.905M360.921 535.769V602.615M360.921 535.769H432.905M360.921 602.615V669.461M360.921 602.615H432.905M360.921 669.461V736.308M360.921 669.461H432.905M360.921 736.308V803.154M360.921 736.308H432.905M360.921 803.154V870M360.921 803.154H432.905M360.921 870H432.905M576.874 1V67.8462M576.874 1H648.858M576.874 67.8462V134.692M576.874 67.8462H648.858M576.874 134.692V201.538M576.874 134.692L648.858 134.692M576.874 201.538V268.385M576.874 201.538H648.858M576.874 268.385V335.231M576.874 268.385H648.858M576.874 335.231V402.077M576.874 335.231H648.858M576.874 402.077L576.874 468.923M576.874 402.077H648.858M576.874 468.923V535.769M576.874 468.923H648.858M576.874 535.769V602.615M576.874 535.769H648.858M576.874 602.615V669.462M576.874 602.615H648.858M576.874 669.462V736.308M576.874 669.462H648.858M576.874 736.308V803.154M576.874 736.308H648.858M576.874 803.154V870M576.874 803.154H648.858M576.874 870H648.858M792.827 1V67.8462M792.827 1H864.811M792.827 67.8462V134.692M792.827 67.8462L864.811 67.8462M792.827 134.692V201.538M792.827 134.692L864.811 134.692M792.827 201.538V268.385M792.827 201.538H864.811M792.827 268.385V335.231M792.827 268.385H864.811M792.827 335.231V402.077M792.827 335.231H864.811M792.827 402.077V468.923M792.827 402.077H864.811M792.827 468.923V535.769M792.827 468.923H864.811M792.827 535.769V602.615M792.827 535.769H864.811M792.827 602.615V669.462M792.827 602.615H864.811M792.827 669.462V736.308M792.827 669.462H864.811M792.827 736.308V803.154M792.827 736.308H864.811M792.827 803.154V870M792.827 803.154H864.811M792.827 870H864.811M432.905 1V67.8462M432.905 67.8462V134.692M432.905 134.692V201.538M432.905 201.538L432.905 268.385M432.905 268.385V335.231M432.905 335.231V402.077M432.905 402.077V468.923M432.905 468.923V535.769M432.905 535.769V602.615M432.905 602.615L432.905 669.461M432.905 669.461V736.308M432.905 736.308V803.154M432.905 803.154V870M648.858 1V67.8462M648.858 67.8462V134.692M648.858 134.692V201.538M648.858 201.538V268.385M648.858 268.385V335.231M648.858 335.231V402.077M648.858 402.077V468.923M648.858 468.923V535.769M648.858 535.769V602.615M648.858 602.615V669.462M648.858 669.462V736.308M648.858 736.308V803.154M648.858 803.154V870M864.811 1V67.8462M864.811 1H936.795V870H864.811M864.811 67.8462V134.692M864.811 67.8462H936.794M864.811 134.692V201.538M864.811 134.692H936.794M864.811 201.538V268.385M864.811 201.538H936.794M864.811 268.385V335.231M864.811 268.385H936.794M864.811 335.231V402.077M864.811 335.231H936.794M864.811 402.077V468.923M864.811 402.077H936.794M864.811 468.923V535.769M864.811 468.923H936.794M864.811 535.769V602.615M864.811 535.769H936.794M864.811 602.615V669.462M864.811 602.615H936.794M864.811 669.462V736.308M864.811 669.462H936.794M864.811 736.308V803.154M864.811 736.308H936.794M864.811 803.154V870M864.811 803.154H936.794M577.189 1V67.8461M577.189 1H505.205V67.8461M577.189 1H649.173M577.189 67.8461V134.692M577.189 67.8461H505.205M577.189 67.8461L649.173 67.8462M577.189 134.692V201.538M577.189 134.692H505.205M577.189 134.692L649.173 134.692M577.189 201.538V268.385M577.189 201.538H505.205M577.189 201.538H649.173M577.189 268.385V335.231M577.189 268.385H505.205M577.189 268.385H649.173M577.189 335.231V402.077M577.189 335.231H505.205M577.189 335.231H649.173M577.189 402.077V468.923M577.189 402.077H505.205M577.189 402.077H649.173M577.189 468.923V535.769M577.189 468.923H505.205M577.189 468.923H649.173M577.189 535.769V602.615M577.189 535.769H505.205M577.189 535.769H649.173M577.189 602.615V669.461M577.189 602.615H505.205M577.189 602.615H649.173M577.189 669.461V736.308M577.189 669.461H505.205M577.189 669.461H649.173M577.189 736.308L577.189 803.154M577.189 736.308H505.205M577.189 736.308H649.173M577.189 803.154V870M577.189 803.154H505.205M577.189 803.154H649.173M577.189 870L505.205 870V803.154M577.189 870H649.173M505.205 67.8461V134.692M505.205 134.692V201.538M505.205 201.538V268.385M505.205 268.385V335.231M505.205 335.231V402.077M505.205 402.077V468.923M505.205 468.923V535.769M505.205 535.769V602.615M505.205 602.615V669.461M505.205 669.461V736.308M505.205 736.308V803.154M649.173 1V67.8462M649.173 1H721.158M649.173 67.8462V134.692M649.173 67.8462H721.158M649.173 134.692V201.538M649.173 134.692H721.158M649.173 201.538V268.385M649.173 201.538L721.158 201.538M649.173 268.385V335.231M649.173 268.385H721.158M649.173 335.231V402.077M649.173 335.231H721.158M649.173 402.077V468.923M649.173 402.077H721.158M649.173 468.923V535.769M649.173 468.923H721.158M649.173 535.769V602.615M649.173 535.769H721.158M649.173 602.615V669.461M649.173 602.615H721.158M649.173 669.461V736.308M649.173 669.461H721.158M649.173 736.308V803.154M649.173 736.308H721.158M649.173 803.154V870M649.173 803.154H721.158M649.173 870H721.158M721.158 1V67.8462M721.158 1H793.142M721.158 67.8462V134.692M721.158 67.8462L793.142 67.8462M721.158 134.692L721.158 201.538M721.158 134.692H793.142M721.158 201.538V268.385M721.158 201.538H793.142M721.158 268.385V335.231M721.158 268.385L793.142 268.385M721.158 335.231V402.077M721.158 335.231L793.142 335.231M721.158 402.077V468.923M721.158 402.077H793.142M721.158 468.923V535.769M721.158 468.923H793.142M721.158 535.769V602.615M721.158 535.769H793.142M721.158 602.615V669.461M721.158 602.615H793.142M721.158 669.461V736.308M721.158 669.461H793.142M721.158 736.308V803.154M721.158 736.308H793.142M721.158 803.154V870M721.158 803.154H793.142M721.158 870H793.142M793.142 1V67.8462M793.142 1H865.126M793.142 67.8462V134.692M793.142 67.8462H865.126M793.142 134.692V201.538M793.142 134.692L865.126 134.692M793.142 201.538V268.385M793.142 201.538H865.126M793.142 268.385V335.231M793.142 268.385H865.126M793.142 335.231V402.077M793.142 335.231H865.126M793.142 402.077L793.142 468.923M793.142 402.077H865.126M793.142 468.923V535.769M793.142 468.923H865.126M793.142 535.769V602.615M793.142 535.769H865.126M793.142 602.615V669.461M793.142 602.615H865.126M793.142 669.461V736.308M793.142 669.461H865.126M793.142 736.308V803.154M793.142 736.308H865.126M793.142 803.154V870M793.142 803.154H865.126M793.142 870H865.126M1009.09 1V67.8462M1009.09 1H937.11M1009.09 1H1081.08M1009.09 67.8462V134.692M1009.09 67.8462H937.11M1009.09 67.8462L1081.08 67.8462M1009.09 134.692V201.538M1009.09 134.692H937.11M1009.09 134.692H1081.08M1009.09 201.538V268.385M1009.09 201.538L937.11 201.538M1009.09 201.538H1081.08M1009.09 268.385V335.231M1009.09 268.385H937.11M1009.09 268.385H1081.08M1009.09 335.231V402.077M1009.09 335.231H937.11M1009.09 335.231H1081.08M1009.09 402.077V468.923M1009.09 402.077L937.11 402.077M1009.09 402.077H1081.08M1009.09 468.923V535.769M1009.09 468.923L937.11 468.923M1009.09 468.923H1081.08M1009.09 535.769V602.615M1009.09 535.769L937.11 535.769M1009.09 535.769H1081.08M1009.09 602.615V669.462M1009.09 602.615H937.11M1009.09 602.615H1081.08M1009.09 669.462V736.308M1009.09 669.462L937.11 669.461M1009.09 669.462H1081.08M1009.09 736.308V803.154M1009.09 736.308L937.11 736.308M1009.09 736.308H1081.08M1009.09 803.154V870M1009.09 803.154L937.11 803.154M1009.09 803.154H1081.08M1009.09 870H937.11M1009.09 870H1081.08M1225.05 1V67.8462M1225.05 1H1153.06M1225.05 1H1297.03M1225.05 67.8462V134.692M1225.05 67.8462L1153.06 67.8462M1225.05 67.8462H1297.03M1225.05 134.692V201.538M1225.05 134.692H1153.06M1225.05 134.692H1297.03M1225.05 201.538V268.385M1225.05 201.538H1153.06M1225.05 201.538L1297.03 201.538M1225.05 268.385V335.231M1225.05 268.385L1153.06 268.385M1225.05 268.385H1297.03M1225.05 335.231V402.077M1225.05 335.231L1153.06 335.231M1225.05 335.231H1297.03M1225.05 402.077L1225.05 468.923M1225.05 402.077H1153.06M1225.05 402.077H1297.03M1225.05 468.923V535.769M1225.05 468.923H1153.06M1225.05 468.923H1297.03M1225.05 535.769V602.615M1225.05 535.769H1153.06M1225.05 535.769H1297.03M1225.05 602.615V669.462M1225.05 602.615H1153.06M1225.05 602.615H1297.03M1225.05 669.462V736.308M1225.05 669.462H1153.06M1225.05 669.462H1297.03M1225.05 736.308V803.154M1225.05 736.308H1153.06M1225.05 736.308H1297.03M1225.05 803.154V870M1225.05 803.154H1153.06M1225.05 803.154H1297.03M1225.05 870H1153.06M1225.05 870H1297.03M865.126 1V67.8462M865.126 1H937.11M865.126 67.8462V134.692M865.126 67.8462L937.11 67.8462M865.126 134.692V201.538M865.126 134.692H937.11M865.126 201.538V268.385M865.126 201.538H937.11M865.126 268.385V335.231M865.126 268.385H937.11M865.126 335.231V402.077M865.126 335.231H937.11M865.126 402.077V468.923M865.126 402.077H937.11M865.126 468.923V535.769M865.126 468.923H937.11M865.126 535.769V602.615M865.126 535.769H937.11M865.126 602.615V669.461M865.126 602.615H937.11M865.126 669.461V736.308M865.126 669.461H937.11M865.126 736.308V803.154M865.126 736.308H937.11M865.126 803.154V870M865.126 803.154H937.11M865.126 870H937.11M1081.08 1V67.8462M1081.08 1H1153.06M1081.08 67.8462V134.692M1081.08 67.8462H1153.06M1081.08 134.692V201.538M1081.08 134.692L1153.06 134.692M1081.08 201.538V268.385M1081.08 201.538H1153.06M1081.08 268.385V335.231M1081.08 268.385H1153.06M1081.08 335.231V402.077M1081.08 335.231H1153.06M1081.08 402.077V468.923M1081.08 402.077H1153.06M1081.08 468.923V535.769M1081.08 468.923H1153.06M1081.08 535.769V602.615M1081.08 535.769H1153.06M1081.08 602.615V669.462M1081.08 602.615H1153.06M1081.08 669.462V736.308M1081.08 669.462H1153.06M1081.08 736.308V803.154M1081.08 736.308H1153.06M1081.08 803.154V870M1081.08 803.154H1153.06M1081.08 870H1153.06M1297.03 1V67.8462M1297.03 1H1369.02M1297.03 67.8462V134.692M1297.03 67.8462L1369.02 67.8462M1297.03 134.692V201.538M1297.03 134.692L1369.02 134.692M1297.03 201.538V268.385M1297.03 201.538H1369.02M1297.03 268.385V335.231M1297.03 268.385H1369.02M1297.03 335.231V402.077M1297.03 335.231H1369.02M1297.03 402.077V468.923M1297.03 402.077H1369.02M1297.03 468.923V535.769M1297.03 468.923H1369.02M1297.03 535.769V602.615M1297.03 535.769H1369.02M1297.03 602.615V669.462M1297.03 602.615H1369.02M1297.03 669.462V736.308M1297.03 669.462H1369.02M1297.03 736.308V803.154M1297.03 736.308H1369.02M1297.03 803.154V870M1297.03 803.154H1369.02M1297.03 870H1369.02M937.11 1V67.8462M937.11 67.8462V134.692M937.11 134.692V201.538M937.11 201.538V268.385M937.11 268.385V335.231M937.11 335.231V402.077M937.11 402.077V468.923M937.11 468.923V535.769M937.11 535.769V602.615M937.11 602.615L937.11 669.461M937.11 669.461V736.308M937.11 736.308V803.154M937.11 803.154V870M1153.06 1V67.8462M1153.06 67.8462V134.692M1153.06 134.692V201.538M1153.06 201.538V268.385M1153.06 268.385V335.231M1153.06 335.231V402.077M1153.06 402.077V468.923M1153.06 468.923V535.769M1153.06 535.769V602.615M1153.06 602.615V669.462M1153.06 669.462V736.308M1153.06 736.308V803.154M1153.06 803.154V870M1369.02 1V67.8462M1369.02 1H1441V870H1369.02M1369.02 67.8462V134.692M1369.02 67.8462H1441M1369.02 134.692V201.538M1369.02 134.692H1441M1369.02 201.538V268.385M1369.02 201.538H1441M1369.02 268.385V335.231M1369.02 268.385H1441M1369.02 335.231V402.077M1369.02 335.231H1441M1369.02 402.077V468.923M1369.02 402.077H1441M1369.02 468.923V535.769M1369.02 468.923H1441M1369.02 535.769V602.615M1369.02 535.769H1441M1369.02 602.615V669.462M1369.02 602.615H1441M1369.02 669.462V736.308M1369.02 669.462H1441M1369.02 736.308V803.154M1369.02 736.308H1441M1369.02 803.154V870M1369.02 803.154H1441" stroke="#808080" stroke-opacity="0.3"/>
<path d="M72.9843 870V936.846M72.9843 870H1V936.846M72.9843 870H144.969M72.9843 936.846L72.9843 1003.69M72.9843 936.846H1M72.9843 936.846L144.969 936.846M72.9843 1003.69V1070.54M72.9843 1003.69H1M72.9843 1003.69L144.969 1003.69M72.9843 1070.54L72.9843 1137.38M72.9843 1070.54H1M72.9843 1070.54H144.968M72.9843 1137.38V1204.23M72.9843 1137.38H1M72.9843 1137.38H144.968M72.9843 1204.23V1271.08M72.9843 1204.23H1M72.9843 1204.23H144.968M72.9843 1271.08L72.9842 1337.92M72.9843 1271.08H1M72.9843 1271.08H144.968M72.9842 1337.92V1404.77M72.9842 1337.92H1M72.9842 1337.92H144.968M72.9842 1404.77V1471.62M72.9842 1404.77H1M72.9842 1404.77H144.968M72.9842 1471.62L72.9842 1538.46M72.9842 1471.62H1M72.9842 1471.62H144.968M72.9842 1538.46V1605.31M72.9842 1538.46H1M72.9842 1538.46H144.968M72.9842 1605.31L72.9842 1672.15M72.9842 1605.31H1M72.9842 1605.31H144.968M72.9842 1672.15V1739M72.9842 1672.15H1M72.9842 1672.15H144.968M72.9842 1739L1 1739V1672.15M72.9842 1739H144.968M1 936.846V1003.69M1 1003.69V1070.54M1 1070.54V1137.38M1 1137.38V1204.23M1 1204.23V1271.08M1 1271.08V1337.92M1 1337.92V1404.77M1 1404.77V1471.62M1 1471.62V1538.46M1 1538.46V1605.31M1 1605.31V1672.15M144.969 870V936.846M144.969 870H216.953M144.969 936.846V1003.69M144.969 936.846H216.953M144.969 1003.69L144.968 1070.54M144.969 1003.69H216.953M144.968 1070.54V1137.38M144.968 1070.54L216.953 1070.54M144.968 1137.38V1204.23M144.968 1137.38H216.953M144.968 1204.23V1271.08M144.968 1204.23H216.953M144.968 1271.08L144.968 1337.92M144.968 1271.08H216.953M144.968 1337.92V1404.77M144.968 1337.92H216.953M144.968 1404.77V1471.62M144.968 1404.77H216.953M144.968 1471.62V1538.46M144.968 1471.62H216.953M144.968 1538.46L144.968 1605.31M144.968 1538.46H216.953M144.968 1605.31V1672.15M144.968 1605.31H216.953M144.968 1672.15V1739M144.968 1672.15H216.953M144.968 1739H216.953M216.953 870V936.846M216.953 870H288.937M216.953 936.846V1003.69M216.953 936.846L288.937 936.846M216.953 1003.69L216.953 1070.54M216.953 1003.69H288.937M216.953 1070.54V1137.38M216.953 1070.54H288.937M216.953 1137.38V1204.23M216.953 1137.38L288.937 1137.38M216.953 1204.23V1271.08M216.953 1204.23L288.937 1204.23M216.953 1271.08L216.953 1337.92M216.953 1271.08H288.937M216.953 1337.92V1404.77M216.953 1337.92H288.937M216.953 1404.77V1471.62M216.953 1404.77H288.937M216.953 1471.62V1538.46M216.953 1471.62H288.937M216.953 1538.46L216.953 1605.31M216.953 1538.46H288.937M216.953 1605.31V1672.15M216.953 1605.31H288.937M216.953 1672.15V1739M216.953 1672.15H288.937M216.953 1739H288.937M288.937 870V936.846M288.937 870H360.921M288.937 936.846V1003.69M288.937 936.846H360.921M288.937 1003.69V1070.54M288.937 1003.69L360.921 1003.69M288.937 1070.54V1137.38M288.937 1070.54H360.921M288.937 1137.38V1204.23M288.937 1137.38H360.921M288.937 1204.23V1271.08M288.937 1204.23H360.921M288.937 1271.08L288.937 1337.92M288.937 1271.08H360.921M288.937 1337.92V1404.77M288.937 1337.92H360.921M288.937 1404.77V1471.62M288.937 1404.77H360.921M288.937 1471.62V1538.46M288.937 1471.62H360.921M288.937 1538.46V1605.31M288.937 1538.46H360.921M288.937 1605.31V1672.15M288.937 1605.31H360.921M288.937 1672.15V1739M288.937 1672.15H360.921M288.937 1739H360.921M504.89 870V936.846M504.89 870H432.905M504.89 870H576.874M504.89 936.846V1003.69M504.89 936.846H432.905M504.89 936.846L576.874 936.846M504.89 1003.69V1070.54M504.89 1003.69H432.905M504.89 1003.69H576.874M504.89 1070.54V1137.38M504.89 1070.54L432.905 1070.54M504.89 1070.54H576.874M504.89 1137.38V1204.23M504.89 1137.38H432.905M504.89 1137.38H576.874M504.89 1204.23V1271.08M504.89 1204.23H432.905M504.89 1204.23H576.874M504.89 1271.08L504.89 1337.92M504.89 1271.08L432.905 1271.08M504.89 1271.08H576.874M504.89 1337.92V1404.77M504.89 1337.92L432.905 1337.92M504.89 1337.92H576.874M504.89 1404.77V1471.62M504.89 1404.77L432.905 1404.77M504.89 1404.77H576.874M504.89 1471.62V1538.46M504.89 1471.62H432.905M504.89 1471.62H576.874M504.89 1538.46V1605.31M504.89 1538.46L432.905 1538.46M504.89 1538.46H576.874M504.89 1605.31V1672.15M504.89 1605.31L432.905 1605.31M504.89 1605.31H576.874M504.89 1672.15V1739M504.89 1672.15L432.905 1672.15M504.89 1672.15H576.874M504.89 1739H432.905M504.89 1739H576.874M720.842 870V936.846M720.842 870H648.858M720.842 870H792.827M720.842 936.846V1003.69M720.842 936.846L648.858 936.846M720.842 936.846H792.827M720.842 1003.69V1070.54M720.842 1003.69H648.858M720.842 1003.69H792.827M720.842 1070.54V1137.38M720.842 1070.54H648.858M720.842 1070.54L792.827 1070.54M720.842 1137.38V1204.23M720.842 1137.38L648.858 1137.38M720.842 1137.38H792.827M720.842 1204.23V1271.08M720.842 1204.23L648.858 1204.23M720.842 1204.23H792.827M720.842 1271.08L720.842 1337.92M720.842 1271.08H648.858M720.842 1271.08H792.827M720.842 1337.92V1404.77M720.842 1337.92H648.858M720.842 1337.92H792.827M720.842 1404.77V1471.62M720.842 1404.77H648.858M720.842 1404.77H792.827M720.842 1471.62V1538.46M720.842 1471.62H648.858M720.842 1471.62H792.827M720.842 1538.46V1605.31M720.842 1538.46H648.858M720.842 1538.46H792.827M720.842 1605.31V1672.15M720.842 1605.31H648.858M720.842 1605.31H792.827M720.842 1672.15V1739M720.842 1672.15H648.858M720.842 1672.15H792.827M720.842 1739H648.858M720.842 1739H792.827M360.921 870V936.846M360.921 870H432.905M360.921 936.846V1003.69M360.921 936.846L432.905 936.846M360.921 1003.69V1070.54M360.921 1003.69H432.905M360.921 1070.54V1137.38M360.921 1070.54H432.905M360.921 1137.38V1204.23M360.921 1137.38H432.905M360.921 1204.23V1271.08M360.921 1204.23H432.905M360.921 1271.08L360.921 1337.92M360.921 1271.08H432.905M360.921 1337.92V1404.77M360.921 1337.92H432.905M360.921 1404.77V1471.62M360.921 1404.77H432.905M360.921 1471.62V1538.46M360.921 1471.62H432.905M360.921 1538.46V1605.31M360.921 1538.46H432.905M360.921 1605.31V1672.15M360.921 1605.31H432.905M360.921 1672.15V1739M360.921 1672.15H432.905M360.921 1739H432.905M576.874 870V936.846M576.874 870H648.858M576.874 936.846V1003.69M576.874 936.846H648.858M576.874 1003.69V1070.54M576.874 1003.69L648.858 1003.69M576.874 1070.54V1137.38M576.874 1070.54H648.858M576.874 1137.38V1204.23M576.874 1137.38H648.858M576.874 1204.23V1271.08M576.874 1204.23H648.858M576.874 1271.08L576.874 1337.92M576.874 1271.08H648.858M576.874 1337.92V1404.77M576.874 1337.92H648.858M576.874 1404.77V1471.62M576.874 1404.77H648.858M576.874 1471.62V1538.46M576.874 1471.62H648.858M576.874 1538.46V1605.31M576.874 1538.46H648.858M576.874 1605.31V1672.15M576.874 1605.31H648.858M576.874 1672.15V1739M576.874 1672.15H648.858M576.874 1739H648.858M792.827 870V936.846M792.827 870H864.811M792.827 936.846V1003.69M792.827 936.846L864.811 936.846M792.827 1003.69V1070.54M792.827 1003.69L864.811 1003.69M792.827 1070.54V1137.38M792.827 1070.54H864.811M792.827 1137.38V1204.23M792.827 1137.38H864.811M792.827 1204.23V1271.08M792.827 1204.23H864.811M792.827 1271.08V1337.92M792.827 1271.08H864.811M792.827 1337.92V1404.77M792.827 1337.92H864.811M792.827 1404.77V1471.62M792.827 1404.77H864.811M792.827 1471.62V1538.46M792.827 1471.62H864.811M792.827 1538.46V1605.31M792.827 1538.46H864.811M792.827 1605.31V1672.15M792.827 1605.31H864.811M792.827 1672.15V1739M792.827 1672.15H864.811M792.827 1739H864.811M432.905 870V936.846M432.905 936.846V1003.69M432.905 1003.69V1070.54M432.905 1070.54L432.905 1137.38M432.905 1137.38V1204.23M432.905 1204.23V1271.08M432.905 1271.08V1337.92M432.905 1337.92V1404.77M432.905 1404.77V1471.62M432.905 1471.62L432.905 1538.46M432.905 1538.46V1605.31M432.905 1605.31V1672.15M432.905 1672.15V1739M648.858 870V936.846M648.858 936.846V1003.69M648.858 1003.69V1070.54M648.858 1070.54V1137.38M648.858 1137.38V1204.23M648.858 1204.23V1271.08M648.858 1271.08V1337.92M648.858 1337.92V1404.77M648.858 1404.77V1471.62M648.858 1471.62V1538.46M648.858 1538.46V1605.31M648.858 1605.31V1672.15M648.858 1672.15V1739M864.811 870V936.846M864.811 870H936.795V1739H864.811M864.811 936.846V1003.69M864.811 936.846H936.794M864.811 1003.69V1070.54M864.811 1003.69H936.794M864.811 1070.54V1137.38M864.811 1070.54H936.794M864.811 1137.38V1204.23M864.811 1137.38H936.794M864.811 1204.23V1271.08M864.811 1204.23H936.794M864.811 1271.08V1337.92M864.811 1271.08H936.794M864.811 1337.92V1404.77M864.811 1337.92H936.794M864.811 1404.77V1471.62M864.811 1404.77H936.794M864.811 1471.62V1538.46M864.811 1471.62H936.794M864.811 1538.46V1605.31M864.811 1538.46H936.794M864.811 1605.31V1672.15M864.811 1605.31H936.794M864.811 1672.15V1739M864.811 1672.15H936.794M577.189 870V936.846M577.189 870H505.205V936.846M577.189 870H649.173M577.189 936.846V1003.69M577.189 936.846H505.205M577.189 936.846L649.173 936.846M577.189 1003.69V1070.54M577.189 1003.69H505.205M577.189 1003.69L649.173 1003.69M577.189 1070.54V1137.38M577.189 1070.54H505.205M577.189 1070.54H649.173M577.189 1137.38V1204.23M577.189 1137.38H505.205M577.189 1137.38H649.173M577.189 1204.23V1271.08M577.189 1204.23H505.205M577.189 1204.23H649.173M577.189 1271.08V1337.92M577.189 1271.08H505.205M577.189 1271.08H649.173M577.189 1337.92V1404.77M577.189 1337.92H505.205M577.189 1337.92H649.173M577.189 1404.77V1471.62M577.189 1404.77H505.205M577.189 1404.77H649.173M577.189 1471.62V1538.46M577.189 1471.62H505.205M577.189 1471.62H649.173M577.189 1538.46V1605.31M577.189 1538.46H505.205M577.189 1538.46H649.173M577.189 1605.31L577.189 1672.15M577.189 1605.31H505.205M577.189 1605.31H649.173M577.189 1672.15V1739M577.189 1672.15H505.205M577.189 1672.15H649.173M577.189 1739L505.205 1739V1672.15M577.189 1739H649.173M505.205 936.846V1003.69M505.205 1003.69V1070.54M505.205 1070.54V1137.38M505.205 1137.38V1204.23M505.205 1204.23V1271.08M505.205 1271.08V1337.92M505.205 1337.92V1404.77M505.205 1404.77V1471.62M505.205 1471.62V1538.46M505.205 1538.46V1605.31M505.205 1605.31V1672.15M649.173 870V936.846M649.173 870H721.158M649.173 936.846V1003.69M649.173 936.846H721.158M649.173 1003.69V1070.54M649.173 1003.69H721.158M649.173 1070.54V1137.38M649.173 1070.54L721.158 1070.54M649.173 1137.38V1204.23M649.173 1137.38H721.158M649.173 1204.23V1271.08M649.173 1204.23H721.158M649.173 1271.08V1337.92M649.173 1271.08H721.158M649.173 1337.92V1404.77M649.173 1337.92H721.158M649.173 1404.77V1471.62M649.173 1404.77H721.158M649.173 1471.62V1538.46M649.173 1471.62H721.158M649.173 1538.46V1605.31M649.173 1538.46H721.158M649.173 1605.31V1672.15M649.173 1605.31H721.158M649.173 1672.15V1739M649.173 1672.15H721.158M649.173 1739H721.158M721.158 870V936.846M721.158 870H793.142M721.158 936.846V1003.69M721.158 936.846L793.142 936.846M721.158 1003.69L721.158 1070.54M721.158 1003.69H793.142M721.158 1070.54V1137.38M721.158 1070.54H793.142M721.158 1137.38V1204.23M721.158 1137.38L793.142 1137.38M721.158 1204.23V1271.08M721.158 1204.23L793.142 1204.23M721.158 1271.08V1337.92M721.158 1271.08H793.142M721.158 1337.92V1404.77M721.158 1337.92H793.142M721.158 1404.77V1471.62M721.158 1404.77H793.142M721.158 1471.62V1538.46M721.158 1471.62H793.142M721.158 1538.46V1605.31M721.158 1538.46H793.142M721.158 1605.31V1672.15M721.158 1605.31H793.142M721.158 1672.15V1739M721.158 1672.15H793.142M721.158 1739H793.142M793.142 870V936.846M793.142 870H865.126M793.142 936.846V1003.69M793.142 936.846H865.126M793.142 1003.69V1070.54M793.142 1003.69L865.126 1003.69M793.142 1070.54V1137.38M793.142 1070.54H865.126M793.142 1137.38V1204.23M793.142 1137.38H865.126M793.142 1204.23V1271.08M793.142 1204.23H865.126M793.142 1271.08L793.142 1337.92M793.142 1271.08H865.126M793.142 1337.92V1404.77M793.142 1337.92H865.126M793.142 1404.77V1471.62M793.142 1404.77H865.126M793.142 1471.62V1538.46M793.142 1471.62H865.126M793.142 1538.46V1605.31M793.142 1538.46H865.126M793.142 1605.31V1672.15M793.142 1605.31H865.126M793.142 1672.15V1739M793.142 1672.15H865.126M793.142 1739H865.126M1009.09 870V936.846M1009.09 870H937.11M1009.09 870H1081.08M1009.09 936.846V1003.69M1009.09 936.846H937.11M1009.09 936.846L1081.08 936.846M1009.09 1003.69V1070.54M1009.09 1003.69H937.11M1009.09 1003.69H1081.08M1009.09 1070.54V1137.38M1009.09 1070.54L937.11 1070.54M1009.09 1070.54H1081.08M1009.09 1137.38V1204.23M1009.09 1137.38H937.11M1009.09 1137.38H1081.08M1009.09 1204.23V1271.08M1009.09 1204.23H937.11M1009.09 1204.23H1081.08M1009.09 1271.08V1337.92M1009.09 1271.08L937.11 1271.08M1009.09 1271.08H1081.08M1009.09 1337.92V1404.77M1009.09 1337.92L937.11 1337.92M1009.09 1337.92H1081.08M1009.09 1404.77V1471.62M1009.09 1404.77L937.11 1404.77M1009.09 1404.77H1081.08M1009.09 1471.62V1538.46M1009.09 1471.62H937.11M1009.09 1471.62H1081.08M1009.09 1538.46V1605.31M1009.09 1538.46L937.11 1538.46M1009.09 1538.46H1081.08M1009.09 1605.31V1672.15M1009.09 1605.31L937.11 1605.31M1009.09 1605.31H1081.08M1009.09 1672.15V1739M1009.09 1672.15L937.11 1672.15M1009.09 1672.15H1081.08M1009.09 1739H937.11M1009.09 1739H1081.08M1225.05 870V936.846M1225.05 870H1153.06M1225.05 870H1297.03M1225.05 936.846V1003.69M1225.05 936.846L1153.06 936.846M1225.05 936.846H1297.03M1225.05 1003.69V1070.54M1225.05 1003.69H1153.06M1225.05 1003.69H1297.03M1225.05 1070.54V1137.38M1225.05 1070.54H1153.06M1225.05 1070.54L1297.03 1070.54M1225.05 1137.38V1204.23M1225.05 1137.38L1153.06 1137.38M1225.05 1137.38H1297.03M1225.05 1204.23V1271.08M1225.05 1204.23L1153.06 1204.23M1225.05 1204.23H1297.03M1225.05 1271.08L1225.05 1337.92M1225.05 1271.08H1153.06M1225.05 1271.08H1297.03M1225.05 1337.92V1404.77M1225.05 1337.92H1153.06M1225.05 1337.92H1297.03M1225.05 1404.77V1471.62M1225.05 1404.77H1153.06M1225.05 1404.77H1297.03M1225.05 1471.62V1538.46M1225.05 1471.62H1153.06M1225.05 1471.62H1297.03M1225.05 1538.46V1605.31M1225.05 1538.46H1153.06M1225.05 1538.46H1297.03M1225.05 1605.31V1672.15M1225.05 1605.31H1153.06M1225.05 1605.31H1297.03M1225.05 1672.15V1739M1225.05 1672.15H1153.06M1225.05 1672.15H1297.03M1225.05 1739H1153.06M1225.05 1739H1297.03M865.126 870V936.846M865.126 870H937.11M865.126 936.846V1003.69M865.126 936.846L937.11 936.846M865.126 1003.69V1070.54M865.126 1003.69H937.11M865.126 1070.54V1137.38M865.126 1070.54H937.11M865.126 1137.38V1204.23M865.126 1137.38H937.11M865.126 1204.23V1271.08M865.126 1204.23H937.11M865.126 1271.08V1337.92M865.126 1271.08H937.11M865.126 1337.92V1404.77M865.126 1337.92H937.11M865.126 1404.77V1471.62M865.126 1404.77H937.11M865.126 1471.62V1538.46M865.126 1471.62H937.11M865.126 1538.46V1605.31M865.126 1538.46H937.11M865.126 1605.31V1672.15M865.126 1605.31H937.11M865.126 1672.15V1739M865.126 1672.15H937.11M865.126 1739H937.11M1081.08 870V936.846M1081.08 870H1153.06M1081.08 936.846V1003.69M1081.08 936.846H1153.06M1081.08 1003.69V1070.54M1081.08 1003.69L1153.06 1003.69M1081.08 1070.54V1137.38M1081.08 1070.54H1153.06M1081.08 1137.38V1204.23M1081.08 1137.38H1153.06M1081.08 1204.23V1271.08M1081.08 1204.23H1153.06M1081.08 1271.08V1337.92M1081.08 1271.08H1153.06M1081.08 1337.92V1404.77M1081.08 1337.92H1153.06M1081.08 1404.77V1471.62M1081.08 1404.77H1153.06M1081.08 1471.62V1538.46M1081.08 1471.62H1153.06M1081.08 1538.46V1605.31M1081.08 1538.46H1153.06M1081.08 1605.31V1672.15M1081.08 1605.31H1153.06M1081.08 1672.15V1739M1081.08 1672.15H1153.06M1081.08 1739H1153.06M1297.03 870V936.846M1297.03 870H1369.02M1297.03 936.846V1003.69M1297.03 936.846L1369.02 936.846M1297.03 1003.69V1070.54M1297.03 1003.69L1369.02 1003.69M1297.03 1070.54V1137.38M1297.03 1070.54H1369.02M1297.03 1137.38V1204.23M1297.03 1137.38H1369.02M1297.03 1204.23V1271.08M1297.03 1204.23H1369.02M1297.03 1271.08V1337.92M1297.03 1271.08H1369.02M1297.03 1337.92V1404.77M1297.03 1337.92H1369.02M1297.03 1404.77V1471.62M1297.03 1404.77H1369.02M1297.03 1471.62V1538.46M1297.03 1471.62H1369.02M1297.03 1538.46V1605.31M1297.03 1538.46H1369.02M1297.03 1605.31V1672.15M1297.03 1605.31H1369.02M1297.03 1672.15V1739M1297.03 1672.15H1369.02M1297.03 1739H1369.02M937.11 870V936.846M937.11 936.846V1003.69M937.11 1003.69V1070.54M937.11 1070.54V1137.38M937.11 1137.38V1204.23M937.11 1204.23V1271.08M937.11 1271.08V1337.92M937.11 1337.92V1404.77M937.11 1404.77V1471.62M937.11 1471.62L937.11 1538.46M937.11 1538.46V1605.31M937.11 1605.31V1672.15M937.11 1672.15V1739M1153.06 870V936.846M1153.06 936.846V1003.69M1153.06 1003.69V1070.54M1153.06 1070.54V1137.38M1153.06 1137.38V1204.23M1153.06 1204.23V1271.08M1153.06 1271.08V1337.92M1153.06 1337.92V1404.77M1153.06 1404.77V1471.62M1153.06 1471.62V1538.46M1153.06 1538.46V1605.31M1153.06 1605.31V1672.15M1153.06 1672.15V1739M1369.02 870V936.846M1369.02 870H1441V1739H1369.02M1369.02 936.846V1003.69M1369.02 936.846H1441M1369.02 1003.69V1070.54M1369.02 1003.69H1441M1369.02 1070.54V1137.38M1369.02 1070.54H1441M1369.02 1137.38V1204.23M1369.02 1137.38H1441M1369.02 1204.23V1271.08M1369.02 1204.23H1441M1369.02 1271.08V1337.92M1369.02 1271.08H1441M1369.02 1337.92V1404.77M1369.02 1337.92H1441M1369.02 1404.77V1471.62M1369.02 1404.77H1441M1369.02 1471.62V1538.46M1369.02 1471.62H1441M1369.02 1538.46V1605.31M1369.02 1538.46H1441M1369.02 1605.31V1672.15M1369.02 1605.31H1441M1369.02 1672.15V1739M1369.02 1672.15H1441" stroke="#808080" stroke-opacity="0.3"/>
<path d="M1512.98 870V936.846M1512.98 870H1441V936.846M1512.98 870H1584.97M1512.98 936.846L1512.98 1003.69M1512.98 936.846H1441M1512.98 936.846L1584.97 936.846M1512.98 1003.69V1070.54M1512.98 1003.69H1441M1512.98 1003.69L1584.97 1003.69M1512.98 1070.54L1512.98 1137.38M1512.98 1070.54H1441M1512.98 1070.54H1584.97M1512.98 1137.38V1204.23M1512.98 1137.38H1441M1512.98 1137.38H1584.97M1512.98 1204.23V1271.08M1512.98 1204.23H1441M1512.98 1204.23H1584.97M1512.98 1271.08L1512.98 1337.92M1512.98 1271.08H1441M1512.98 1271.08H1584.97M1512.98 1337.92V1404.77M1512.98 1337.92H1441M1512.98 1337.92H1584.97M1512.98 1404.77V1471.62M1512.98 1404.77H1441M1512.98 1404.77H1584.97M1512.98 1471.62L1512.98 1538.46M1512.98 1471.62H1441M1512.98 1471.62H1584.97M1512.98 1538.46V1605.31M1512.98 1538.46H1441M1512.98 1538.46H1584.97M1512.98 1605.31L1512.98 1672.15M1512.98 1605.31H1441M1512.98 1605.31H1584.97M1512.98 1672.15V1739M1512.98 1672.15H1441M1512.98 1672.15H1584.97M1512.98 1739L1441 1739V1672.15M1512.98 1739H1584.97M1441 936.846V1003.69M1441 1003.69V1070.54M1441 1070.54V1137.38M1441 1137.38V1204.23M1441 1204.23V1271.08M1441 1271.08V1337.92M1441 1337.92V1404.77M1441 1404.77V1471.62M1441 1471.62V1538.46M1441 1538.46V1605.31M1441 1605.31V1672.15M1584.97 870V936.846M1584.97 870H1656.95M1584.97 936.846V1003.69M1584.97 936.846H1656.95M1584.97 1003.69L1584.97 1070.54M1584.97 1003.69H1656.95M1584.97 1070.54V1137.38M1584.97 1070.54L1656.95 1070.54M1584.97 1137.38V1204.23M1584.97 1137.38H1656.95M1584.97 1204.23V1271.08M1584.97 1204.23H1656.95M1584.97 1271.08L1584.97 1337.92M1584.97 1271.08H1656.95M1584.97 1337.92V1404.77M1584.97 1337.92H1656.95M1584.97 1404.77V1471.62M1584.97 1404.77H1656.95M1584.97 1471.62V1538.46M1584.97 1471.62H1656.95M1584.97 1538.46L1584.97 1605.31M1584.97 1538.46H1656.95M1584.97 1605.31V1672.15M1584.97 1605.31H1656.95M1584.97 1672.15V1739M1584.97 1672.15H1656.95M1584.97 1739H1656.95M1656.95 870V936.846M1656.95 870H1728.94M1656.95 936.846V1003.69M1656.95 936.846L1728.94 936.846M1656.95 1003.69L1656.95 1070.54M1656.95 1003.69H1728.94M1656.95 1070.54V1137.38M1656.95 1070.54H1728.94M1656.95 1137.38V1204.23M1656.95 1137.38L1728.94 1137.38M1656.95 1204.23V1271.08M1656.95 1204.23L1728.94 1204.23M1656.95 1271.08L1656.95 1337.92M1656.95 1271.08H1728.94M1656.95 1337.92V1404.77M1656.95 1337.92H1728.94M1656.95 1404.77V1471.62M1656.95 1404.77H1728.94M1656.95 1471.62V1538.46M1656.95 1471.62H1728.94M1656.95 1538.46L1656.95 1605.31M1656.95 1538.46H1728.94M1656.95 1605.31V1672.15M1656.95 1605.31H1728.94M1656.95 1672.15V1739M1656.95 1672.15H1728.94M1656.95 1739H1728.94M1728.94 870V936.846M1728.94 870H1800.92M1728.94 936.846V1003.69M1728.94 936.846H1800.92M1728.94 1003.69V1070.54M1728.94 1003.69L1800.92 1003.69M1728.94 1070.54V1137.38M1728.94 1070.54H1800.92M1728.94 1137.38V1204.23M1728.94 1137.38H1800.92M1728.94 1204.23V1271.08M1728.94 1204.23H1800.92M1728.94 1271.08L1728.94 1337.92M1728.94 1271.08H1800.92M1728.94 1337.92V1404.77M1728.94 1337.92H1800.92M1728.94 1404.77V1471.62M1728.94 1404.77H1800.92M1728.94 1471.62V1538.46M1728.94 1471.62H1800.92M1728.94 1538.46V1605.31M1728.94 1538.46H1800.92M1728.94 1605.31V1672.15M1728.94 1605.31H1800.92M1728.94 1672.15V1739M1728.94 1672.15H1800.92M1728.94 1739H1800.92M1944.89 870V936.846M1944.89 870H1872.91M1944.89 870H2016.87M1944.89 936.846V1003.69M1944.89 936.846H1872.91M1944.89 936.846L2016.87 936.846M1944.89 1003.69V1070.54M1944.89 1003.69H1872.91M1944.89 1003.69H2016.87M1944.89 1070.54V1137.38M1944.89 1070.54L1872.91 1070.54M1944.89 1070.54H2016.87M1944.89 1137.38V1204.23M1944.89 1137.38H1872.91M1944.89 1137.38H2016.87M1944.89 1204.23V1271.08M1944.89 1204.23H1872.91M1944.89 1204.23H2016.87M1944.89 1271.08L1944.89 1337.92M1944.89 1271.08L1872.91 1271.08M1944.89 1271.08H2016.87M1944.89 1337.92V1404.77M1944.89 1337.92L1872.91 1337.92M1944.89 1337.92H2016.87M1944.89 1404.77V1471.62M1944.89 1404.77L1872.91 1404.77M1944.89 1404.77H2016.87M1944.89 1471.62V1538.46M1944.89 1471.62H1872.91M1944.89 1471.62H2016.87M1944.89 1538.46V1605.31M1944.89 1538.46L1872.91 1538.46M1944.89 1538.46H2016.87M1944.89 1605.31V1672.15M1944.89 1605.31L1872.91 1605.31M1944.89 1605.31H2016.87M1944.89 1672.15V1739M1944.89 1672.15L1872.91 1672.15M1944.89 1672.15H2016.87M1944.89 1739H1872.91M1944.89 1739H2016.87M2160.84 870V936.846M2160.84 870H2088.86M2160.84 870H2232.83M2160.84 936.846V1003.69M2160.84 936.846L2088.86 936.846M2160.84 936.846H2232.83M2160.84 1003.69V1070.54M2160.84 1003.69H2088.86M2160.84 1003.69H2232.83M2160.84 1070.54V1137.38M2160.84 1070.54H2088.86M2160.84 1070.54L2232.83 1070.54M2160.84 1137.38V1204.23M2160.84 1137.38L2088.86 1137.38M2160.84 1137.38H2232.83M2160.84 1204.23V1271.08M2160.84 1204.23L2088.86 1204.23M2160.84 1204.23H2232.83M2160.84 1271.08L2160.84 1337.92M2160.84 1271.08H2088.86M2160.84 1271.08H2232.83M2160.84 1337.92V1404.77M2160.84 1337.92H2088.86M2160.84 1337.92H2232.83M2160.84 1404.77V1471.62M2160.84 1404.77H2088.86M2160.84 1404.77H2232.83M2160.84 1471.62V1538.46M2160.84 1471.62H2088.86M2160.84 1471.62H2232.83M2160.84 1538.46V1605.31M2160.84 1538.46H2088.86M2160.84 1538.46H2232.83M2160.84 1605.31V1672.15M2160.84 1605.31H2088.86M2160.84 1605.31H2232.83M2160.84 1672.15V1739M2160.84 1672.15H2088.86M2160.84 1672.15H2232.83M2160.84 1739H2088.86M2160.84 1739H2232.83M1800.92 870V936.846M1800.92 870H1872.91M1800.92 936.846V1003.69M1800.92 936.846L1872.91 936.846M1800.92 1003.69V1070.54M1800.92 1003.69H1872.91M1800.92 1070.54V1137.38M1800.92 1070.54H1872.91M1800.92 1137.38V1204.23M1800.92 1137.38H1872.91M1800.92 1204.23V1271.08M1800.92 1204.23H1872.91M1800.92 1271.08L1800.92 1337.92M1800.92 1271.08H1872.91M1800.92 1337.92V1404.77M1800.92 1337.92H1872.91M1800.92 1404.77V1471.62M1800.92 1404.77H1872.91M1800.92 1471.62V1538.46M1800.92 1471.62H1872.91M1800.92 1538.46V1605.31M1800.92 1538.46H1872.91M1800.92 1605.31V1672.15M1800.92 1605.31H1872.91M1800.92 1672.15V1739M1800.92 1672.15H1872.91M1800.92 1739H1872.91M2016.87 870V936.846M2016.87 870H2088.86M2016.87 936.846V1003.69M2016.87 936.846H2088.86M2016.87 1003.69V1070.54M2016.87 1003.69L2088.86 1003.69M2016.87 1070.54V1137.38M2016.87 1070.54H2088.86M2016.87 1137.38V1204.23M2016.87 1137.38H2088.86M2016.87 1204.23V1271.08M2016.87 1204.23H2088.86M2016.87 1271.08L2016.87 1337.92M2016.87 1271.08H2088.86M2016.87 1337.92V1404.77M2016.87 1337.92H2088.86M2016.87 1404.77V1471.62M2016.87 1404.77H2088.86M2016.87 1471.62V1538.46M2016.87 1471.62H2088.86M2016.87 1538.46V1605.31M2016.87 1538.46H2088.86M2016.87 1605.31V1672.15M2016.87 1605.31H2088.86M2016.87 1672.15V1739M2016.87 1672.15H2088.86M2016.87 1739H2088.86M2232.83 870V936.846M2232.83 870H2304.81M2232.83 936.846V1003.69M2232.83 936.846L2304.81 936.846M2232.83 1003.69V1070.54M2232.83 1003.69L2304.81 1003.69M2232.83 1070.54V1137.38M2232.83 1070.54H2304.81M2232.83 1137.38V1204.23M2232.83 1137.38H2304.81M2232.83 1204.23V1271.08M2232.83 1204.23H2304.81M2232.83 1271.08V1337.92M2232.83 1271.08H2304.81M2232.83 1337.92V1404.77M2232.83 1337.92H2304.81M2232.83 1404.77V1471.62M2232.83 1404.77H2304.81M2232.83 1471.62V1538.46M2232.83 1471.62H2304.81M2232.83 1538.46V1605.31M2232.83 1538.46H2304.81M2232.83 1605.31V1672.15M2232.83 1605.31H2304.81M2232.83 1672.15V1739M2232.83 1672.15H2304.81M2232.83 1739H2304.81M1872.91 870V936.846M1872.91 936.846V1003.69M1872.91 1003.69V1070.54M1872.91 1070.54L1872.91 1137.38M1872.91 1137.38V1204.23M1872.91 1204.23V1271.08M1872.91 1271.08V1337.92M1872.91 1337.92V1404.77M1872.91 1404.77V1471.62M1872.91 1471.62L1872.91 1538.46M1872.91 1538.46V1605.31M1872.91 1605.31V1672.15M1872.91 1672.15V1739M2088.86 870V936.846M2088.86 936.846V1003.69M2088.86 1003.69V1070.54M2088.86 1070.54V1137.38M2088.86 1137.38V1204.23M2088.86 1204.23V1271.08M2088.86 1271.08V1337.92M2088.86 1337.92V1404.77M2088.86 1404.77V1471.62M2088.86 1471.62V1538.46M2088.86 1538.46V1605.31M2088.86 1605.31V1672.15M2088.86 1672.15V1739M2304.81 870V936.846M2304.81 870H2376.8V1739H2304.81M2304.81 936.846V1003.69M2304.81 936.846H2376.79M2304.81 1003.69V1070.54M2304.81 1003.69H2376.79M2304.81 1070.54V1137.38M2304.81 1070.54H2376.79M2304.81 1137.38V1204.23M2304.81 1137.38H2376.79M2304.81 1204.23V1271.08M2304.81 1204.23H2376.79M2304.81 1271.08V1337.92M2304.81 1271.08H2376.79M2304.81 1337.92V1404.77M2304.81 1337.92H2376.79M2304.81 1404.77V1471.62M2304.81 1404.77H2376.79M2304.81 1471.62V1538.46M2304.81 1471.62H2376.79M2304.81 1538.46V1605.31M2304.81 1538.46H2376.79M2304.81 1605.31V1672.15M2304.81 1605.31H2376.79M2304.81 1672.15V1739M2304.81 1672.15H2376.79M2017.19 870V936.846M2017.19 870H1945.2V936.846M2017.19 870H2089.17M2017.19 936.846V1003.69M2017.19 936.846H1945.2M2017.19 936.846L2089.17 936.846M2017.19 1003.69V1070.54M2017.19 1003.69H1945.2M2017.19 1003.69L2089.17 1003.69M2017.19 1070.54V1137.38M2017.19 1070.54H1945.2M2017.19 1070.54H2089.17M2017.19 1137.38V1204.23M2017.19 1137.38H1945.2M2017.19 1137.38H2089.17M2017.19 1204.23V1271.08M2017.19 1204.23H1945.2M2017.19 1204.23H2089.17M2017.19 1271.08V1337.92M2017.19 1271.08H1945.2M2017.19 1271.08H2089.17M2017.19 1337.92V1404.77M2017.19 1337.92H1945.2M2017.19 1337.92H2089.17M2017.19 1404.77V1471.62M2017.19 1404.77H1945.2M2017.19 1404.77H2089.17M2017.19 1471.62V1538.46M2017.19 1471.62H1945.2M2017.19 1471.62H2089.17M2017.19 1538.46V1605.31M2017.19 1538.46H1945.2M2017.19 1538.46H2089.17M2017.19 1605.31L2017.19 1672.15M2017.19 1605.31H1945.2M2017.19 1605.31H2089.17M2017.19 1672.15V1739M2017.19 1672.15H1945.2M2017.19 1672.15H2089.17M2017.19 1739L1945.2 1739V1672.15M2017.19 1739H2089.17M1945.2 936.846V1003.69M1945.2 1003.69V1070.54M1945.2 1070.54V1137.38M1945.2 1137.38V1204.23M1945.2 1204.23V1271.08M1945.2 1271.08V1337.92M1945.2 1337.92V1404.77M1945.2 1404.77V1471.62M1945.2 1471.62V1538.46M1945.2 1538.46V1605.31M1945.2 1605.31V1672.15M2089.17 870V936.846M2089.17 870H2161.16M2089.17 936.846V1003.69M2089.17 936.846H2161.16M2089.17 1003.69V1070.54M2089.17 1003.69H2161.16M2089.17 1070.54V1137.38M2089.17 1070.54L2161.16 1070.54M2089.17 1137.38V1204.23M2089.17 1137.38H2161.16M2089.17 1204.23V1271.08M2089.17 1204.23H2161.16M2089.17 1271.08V1337.92M2089.17 1271.08H2161.16M2089.17 1337.92V1404.77M2089.17 1337.92H2161.16M2089.17 1404.77V1471.62M2089.17 1404.77H2161.16M2089.17 1471.62V1538.46M2089.17 1471.62H2161.16M2089.17 1538.46V1605.31M2089.17 1538.46H2161.16M2089.17 1605.31V1672.15M2089.17 1605.31H2161.16M2089.17 1672.15V1739M2089.17 1672.15H2161.16M2089.17 1739H2161.16M2161.16 870V936.846M2161.16 870H2233.14M2161.16 936.846V1003.69M2161.16 936.846L2233.14 936.846M2161.16 1003.69L2161.16 1070.54M2161.16 1003.69H2233.14M2161.16 1070.54V1137.38M2161.16 1070.54H2233.14M2161.16 1137.38V1204.23M2161.16 1137.38L2233.14 1137.38M2161.16 1204.23V1271.08M2161.16 1204.23L2233.14 1204.23M2161.16 1271.08V1337.92M2161.16 1271.08H2233.14M2161.16 1337.92V1404.77M2161.16 1337.92H2233.14M2161.16 1404.77V1471.62M2161.16 1404.77H2233.14M2161.16 1471.62V1538.46M2161.16 1471.62H2233.14M2161.16 1538.46V1605.31M2161.16 1538.46H2233.14M2161.16 1605.31V1672.15M2161.16 1605.31H2233.14M2161.16 1672.15V1739M2161.16 1672.15H2233.14M2161.16 1739H2233.14M2233.14 870V936.846M2233.14 870H2305.13M2233.14 936.846V1003.69M2233.14 936.846H2305.13M2233.14 1003.69V1070.54M2233.14 1003.69L2305.13 1003.69M2233.14 1070.54V1137.38M2233.14 1070.54H2305.13M2233.14 1137.38V1204.23M2233.14 1137.38H2305.13M2233.14 1204.23V1271.08M2233.14 1204.23H2305.13M2233.14 1271.08L2233.14 1337.92M2233.14 1271.08H2305.13M2233.14 1337.92V1404.77M2233.14 1337.92H2305.13M2233.14 1404.77V1471.62M2233.14 1404.77H2305.13M2233.14 1471.62V1538.46M2233.14 1471.62H2305.13M2233.14 1538.46V1605.31M2233.14 1538.46H2305.13M2233.14 1605.31V1672.15M2233.14 1605.31H2305.13M2233.14 1672.15V1739M2233.14 1672.15H2305.13M2233.14 1739H2305.13M2449.09 870V936.846M2449.09 870H2377.11M2449.09 870H2521.08M2449.09 936.846V1003.69M2449.09 936.846H2377.11M2449.09 936.846L2521.08 936.846M2449.09 1003.69V1070.54M2449.09 1003.69H2377.11M2449.09 1003.69H2521.08M2449.09 1070.54V1137.38M2449.09 1070.54L2377.11 1070.54M2449.09 1070.54H2521.08M2449.09 1137.38V1204.23M2449.09 1137.38H2377.11M2449.09 1137.38H2521.08M2449.09 1204.23V1271.08M2449.09 1204.23H2377.11M2449.09 1204.23H2521.08M2449.09 1271.08V1337.92M2449.09 1271.08L2377.11 1271.08M2449.09 1271.08H2521.08M2449.09 1337.92V1404.77M2449.09 1337.92L2377.11 1337.92M2449.09 1337.92H2521.08M2449.09 1404.77V1471.62M2449.09 1404.77L2377.11 1404.77M2449.09 1404.77H2521.08M2449.09 1471.62V1538.46M2449.09 1471.62H2377.11M2449.09 1471.62H2521.08M2449.09 1538.46V1605.31M2449.09 1538.46L2377.11 1538.46M2449.09 1538.46H2521.08M2449.09 1605.31V1672.15M2449.09 1605.31L2377.11 1605.31M2449.09 1605.31H2521.08M2449.09 1672.15V1739M2449.09 1672.15L2377.11 1672.15M2449.09 1672.15H2521.08M2449.09 1739H2377.11M2449.09 1739H2521.08M2665.05 870V936.846M2665.05 870H2593.06M2665.05 870H2737.03M2665.05 936.846V1003.69M2665.05 936.846L2593.06 936.846M2665.05 936.846H2737.03M2665.05 1003.69V1070.54M2665.05 1003.69H2593.06M2665.05 1003.69H2737.03M2665.05 1070.54V1137.38M2665.05 1070.54H2593.06M2665.05 1070.54L2737.03 1070.54M2665.05 1137.38V1204.23M2665.05 1137.38L2593.06 1137.38M2665.05 1137.38H2737.03M2665.05 1204.23V1271.08M2665.05 1204.23L2593.06 1204.23M2665.05 1204.23H2737.03M2665.05 1271.08L2665.05 1337.92M2665.05 1271.08H2593.06M2665.05 1271.08H2737.03M2665.05 1337.92V1404.77M2665.05 1337.92H2593.06M2665.05 1337.92H2737.03M2665.05 1404.77V1471.62M2665.05 1404.77H2593.06M2665.05 1404.77H2737.03M2665.05 1471.62V1538.46M2665.05 1471.62H2593.06M2665.05 1471.62H2737.03M2665.05 1538.46V1605.31M2665.05 1538.46H2593.06M2665.05 1538.46H2737.03M2665.05 1605.31V1672.15M2665.05 1605.31H2593.06M2665.05 1605.31H2737.03M2665.05 1672.15V1739M2665.05 1672.15H2593.06M2665.05 1672.15H2737.03M2665.05 1739H2593.06M2665.05 1739H2737.03M2305.13 870V936.846M2305.13 870H2377.11M2305.13 936.846V1003.69M2305.13 936.846L2377.11 936.846M2305.13 1003.69V1070.54M2305.13 1003.69H2377.11M2305.13 1070.54V1137.38M2305.13 1070.54H2377.11M2305.13 1137.38V1204.23M2305.13 1137.38H2377.11M2305.13 1204.23V1271.08M2305.13 1204.23H2377.11M2305.13 1271.08V1337.92M2305.13 1271.08H2377.11M2305.13 1337.92V1404.77M2305.13 1337.92H2377.11M2305.13 1404.77V1471.62M2305.13 1404.77H2377.11M2305.13 1471.62V1538.46M2305.13 1471.62H2377.11M2305.13 1538.46V1605.31M2305.13 1538.46H2377.11M2305.13 1605.31V1672.15M2305.13 1605.31H2377.11M2305.13 1672.15V1739M2305.13 1672.15H2377.11M2305.13 1739H2377.11M2521.08 870V936.846M2521.08 870H2593.06M2521.08 936.846V1003.69M2521.08 936.846H2593.06M2521.08 1003.69V1070.54M2521.08 1003.69L2593.06 1003.69M2521.08 1070.54V1137.38M2521.08 1070.54H2593.06M2521.08 1137.38V1204.23M2521.08 1137.38H2593.06M2521.08 1204.23V1271.08M2521.08 1204.23H2593.06M2521.08 1271.08V1337.92M2521.08 1271.08H2593.06M2521.08 1337.92V1404.77M2521.08 1337.92H2593.06M2521.08 1404.77V1471.62M2521.08 1404.77H2593.06M2521.08 1471.62V1538.46M2521.08 1471.62H2593.06M2521.08 1538.46V1605.31M2521.08 1538.46H2593.06M2521.08 1605.31V1672.15M2521.08 1605.31H2593.06M2521.08 1672.15V1739M2521.08 1672.15H2593.06M2521.08 1739H2593.06M2737.03 870V936.846M2737.03 870H2809.02M2737.03 936.846V1003.69M2737.03 936.846L2809.02 936.846M2737.03 1003.69V1070.54M2737.03 1003.69L2809.02 1003.69M2737.03 1070.54V1137.38M2737.03 1070.54H2809.02M2737.03 1137.38V1204.23M2737.03 1137.38H2809.02M2737.03 1204.23V1271.08M2737.03 1204.23H2809.02M2737.03 1271.08V1337.92M2737.03 1271.08H2809.02M2737.03 1337.92V1404.77M2737.03 1337.92H2809.02M2737.03 1404.77V1471.62M2737.03 1404.77H2809.02M2737.03 1471.62V1538.46M2737.03 1471.62H2809.02M2737.03 1538.46V1605.31M2737.03 1538.46H2809.02M2737.03 1605.31V1672.15M2737.03 1605.31H2809.02M2737.03 1672.15V1739M2737.03 1672.15H2809.02M2737.03 1739H2809.02M2377.11 870V936.846M2377.11 936.846V1003.69M2377.11 1003.69V1070.54M2377.11 1070.54V1137.38M2377.11 1137.38V1204.23M2377.11 1204.23V1271.08M2377.11 1271.08V1337.92M2377.11 1337.92V1404.77M2377.11 1404.77V1471.62M2377.11 1471.62L2377.11 1538.46M2377.11 1538.46V1605.31M2377.11 1605.31V1672.15M2377.11 1672.15V1739M2593.06 870V936.846M2593.06 936.846V1003.69M2593.06 1003.69V1070.54M2593.06 1070.54V1137.38M2593.06 1137.38V1204.23M2593.06 1204.23V1271.08M2593.06 1271.08V1337.92M2593.06 1337.92V1404.77M2593.06 1404.77V1471.62M2593.06 1471.62V1538.46M2593.06 1538.46V1605.31M2593.06 1605.31V1672.15M2593.06 1672.15V1739M2809.02 870V936.846M2809.02 870H2881V1739H2809.02M2809.02 936.846V1003.69M2809.02 936.846H2881M2809.02 1003.69V1070.54M2809.02 1003.69H2881M2809.02 1070.54V1137.38M2809.02 1070.54H2881M2809.02 1137.38V1204.23M2809.02 1137.38H2881M2809.02 1204.23V1271.08M2809.02 1204.23H2881M2809.02 1271.08V1337.92M2809.02 1271.08H2881M2809.02 1337.92V1404.77M2809.02 1337.92H2881M2809.02 1404.77V1471.62M2809.02 1404.77H2881M2809.02 1471.62V1538.46M2809.02 1471.62H2881M2809.02 1538.46V1605.31M2809.02 1538.46H2881M2809.02 1605.31V1672.15M2809.02 1605.31H2881M2809.02 1672.15V1739M2809.02 1672.15H2881" stroke="#808080" stroke-opacity="0.3"/>
<path d="M1512.98 1V67.8461M1512.98 1H1441V67.8461M1512.98 1H1584.97M1512.98 67.8461L1512.98 134.692M1512.98 67.8461H1441M1512.98 67.8461L1584.97 67.8462M1512.98 134.692V201.538M1512.98 134.692H1441M1512.98 134.692L1584.97 134.692M1512.98 201.538L1512.98 268.385M1512.98 201.538H1441M1512.98 201.538H1584.97M1512.98 268.385V335.231M1512.98 268.385H1441M1512.98 268.385H1584.97M1512.98 335.231V402.077M1512.98 335.231H1441M1512.98 335.231H1584.97M1512.98 402.077L1512.98 468.923M1512.98 402.077H1441M1512.98 402.077H1584.97M1512.98 468.923V535.769M1512.98 468.923H1441M1512.98 468.923H1584.97M1512.98 535.769V602.615M1512.98 535.769H1441M1512.98 535.769H1584.97M1512.98 602.615L1512.98 669.461M1512.98 602.615H1441M1512.98 602.615H1584.97M1512.98 669.461V736.308M1512.98 669.461H1441M1512.98 669.461H1584.97M1512.98 736.308L1512.98 803.154M1512.98 736.308H1441M1512.98 736.308H1584.97M1512.98 803.154V870M1512.98 803.154H1441M1512.98 803.154H1584.97M1512.98 870L1441 870V803.154M1512.98 870H1584.97M1441 67.8461V134.692M1441 134.692V201.538M1441 201.538V268.385M1441 268.385V335.231M1441 335.231V402.077M1441 402.077V468.923M1441 468.923V535.769M1441 535.769V602.615M1441 602.615V669.461M1441 669.461V736.308M1441 736.308V803.154M1584.97 1V67.8462M1584.97 1H1656.95M1584.97 67.8462V134.692M1584.97 67.8462H1656.95M1584.97 134.692L1584.97 201.538M1584.97 134.692H1656.95M1584.97 201.538V268.385M1584.97 201.538L1656.95 201.538M1584.97 268.385V335.231M1584.97 268.385H1656.95M1584.97 335.231V402.077M1584.97 335.231H1656.95M1584.97 402.077L1584.97 468.923M1584.97 402.077H1656.95M1584.97 468.923V535.769M1584.97 468.923H1656.95M1584.97 535.769V602.615M1584.97 535.769H1656.95M1584.97 602.615V669.461M1584.97 602.615H1656.95M1584.97 669.461L1584.97 736.308M1584.97 669.461H1656.95M1584.97 736.308V803.154M1584.97 736.308H1656.95M1584.97 803.154V870M1584.97 803.154H1656.95M1584.97 870H1656.95M1656.95 1V67.8462M1656.95 1H1728.94M1656.95 67.8462V134.692M1656.95 67.8462L1728.94 67.8462M1656.95 134.692L1656.95 201.538M1656.95 134.692H1728.94M1656.95 201.538V268.385M1656.95 201.538H1728.94M1656.95 268.385V335.231M1656.95 268.385L1728.94 268.385M1656.95 335.231V402.077M1656.95 335.231L1728.94 335.231M1656.95 402.077L1656.95 468.923M1656.95 402.077H1728.94M1656.95 468.923V535.769M1656.95 468.923H1728.94M1656.95 535.769V602.615M1656.95 535.769H1728.94M1656.95 602.615V669.461M1656.95 602.615H1728.94M1656.95 669.461L1656.95 736.308M1656.95 669.461H1728.94M1656.95 736.308V803.154M1656.95 736.308H1728.94M1656.95 803.154V870M1656.95 803.154H1728.94M1656.95 870H1728.94M1728.94 1V67.8462M1728.94 1H1800.92M1728.94 67.8462V134.692M1728.94 67.8462H1800.92M1728.94 134.692V201.538M1728.94 134.692L1800.92 134.692M1728.94 201.538V268.385M1728.94 201.538H1800.92M1728.94 268.385V335.231M1728.94 268.385H1800.92M1728.94 335.231V402.077M1728.94 335.231H1800.92M1728.94 402.077L1728.94 468.923M1728.94 402.077H1800.92M1728.94 468.923V535.769M1728.94 468.923H1800.92M1728.94 535.769V602.615M1728.94 535.769H1800.92M1728.94 602.615V669.461M1728.94 602.615H1800.92M1728.94 669.461V736.308M1728.94 669.461H1800.92M1728.94 736.308V803.154M1728.94 736.308H1800.92M1728.94 803.154V870M1728.94 803.154H1800.92M1728.94 870H1800.92M1944.89 1V67.8462M1944.89 1H1872.91M1944.89 1H2016.87M1944.89 67.8462V134.692M1944.89 67.8462H1872.91M1944.89 67.8462L2016.87 67.8462M1944.89 134.692V201.538M1944.89 134.692H1872.91M1944.89 134.692H2016.87M1944.89 201.538V268.385M1944.89 201.538L1872.91 201.538M1944.89 201.538H2016.87M1944.89 268.385V335.231M1944.89 268.385H1872.91M1944.89 268.385H2016.87M1944.89 335.231V402.077M1944.89 335.231H1872.91M1944.89 335.231H2016.87M1944.89 402.077L1944.89 468.923M1944.89 402.077L1872.91 402.077M1944.89 402.077H2016.87M1944.89 468.923V535.769M1944.89 468.923L1872.91 468.923M1944.89 468.923H2016.87M1944.89 535.769V602.615M1944.89 535.769L1872.91 535.769M1944.89 535.769H2016.87M1944.89 602.615V669.462M1944.89 602.615H1872.91M1944.89 602.615H2016.87M1944.89 669.462V736.308M1944.89 669.462L1872.91 669.461M1944.89 669.462H2016.87M1944.89 736.308V803.154M1944.89 736.308L1872.91 736.308M1944.89 736.308H2016.87M1944.89 803.154V870M1944.89 803.154L1872.91 803.154M1944.89 803.154H2016.87M1944.89 870H1872.91M1944.89 870H2016.87M2160.84 1V67.8462M2160.84 1H2088.86M2160.84 1H2232.83M2160.84 67.8462V134.692M2160.84 67.8462L2088.86 67.8462M2160.84 67.8462H2232.83M2160.84 134.692V201.538M2160.84 134.692H2088.86M2160.84 134.692H2232.83M2160.84 201.538V268.385M2160.84 201.538H2088.86M2160.84 201.538L2232.83 201.538M2160.84 268.385V335.231M2160.84 268.385L2088.86 268.385M2160.84 268.385H2232.83M2160.84 335.231V402.077M2160.84 335.231L2088.86 335.231M2160.84 335.231H2232.83M2160.84 402.077L2160.84 468.923M2160.84 402.077H2088.86M2160.84 402.077H2232.83M2160.84 468.923V535.769M2160.84 468.923H2088.86M2160.84 468.923H2232.83M2160.84 535.769V602.615M2160.84 535.769H2088.86M2160.84 535.769H2232.83M2160.84 602.615V669.462M2160.84 602.615H2088.86M2160.84 602.615H2232.83M2160.84 669.462V736.308M2160.84 669.462H2088.86M2160.84 669.462H2232.83M2160.84 736.308V803.154M2160.84 736.308H2088.86M2160.84 736.308H2232.83M2160.84 803.154V870M2160.84 803.154H2088.86M2160.84 803.154H2232.83M2160.84 870H2088.86M2160.84 870H2232.83M1800.92 1V67.8462M1800.92 1H1872.91M1800.92 67.8462V134.692M1800.92 67.8462L1872.91 67.8462M1800.92 134.692V201.538M1800.92 134.692H1872.91M1800.92 201.538V268.385M1800.92 201.538H1872.91M1800.92 268.385V335.231M1800.92 268.385H1872.91M1800.92 335.231V402.077M1800.92 335.231H1872.91M1800.92 402.077L1800.92 468.923M1800.92 402.077H1872.91M1800.92 468.923V535.769M1800.92 468.923H1872.91M1800.92 535.769V602.615M1800.92 535.769H1872.91M1800.92 602.615V669.461M1800.92 602.615H1872.91M1800.92 669.461V736.308M1800.92 669.461H1872.91M1800.92 736.308V803.154M1800.92 736.308H1872.91M1800.92 803.154V870M1800.92 803.154H1872.91M1800.92 870H1872.91M2016.87 1V67.8462M2016.87 1H2088.86M2016.87 67.8462V134.692M2016.87 67.8462H2088.86M2016.87 134.692V201.538M2016.87 134.692L2088.86 134.692M2016.87 201.538V268.385M2016.87 201.538H2088.86M2016.87 268.385V335.231M2016.87 268.385H2088.86M2016.87 335.231V402.077M2016.87 335.231H2088.86M2016.87 402.077L2016.87 468.923M2016.87 402.077H2088.86M2016.87 468.923V535.769M2016.87 468.923H2088.86M2016.87 535.769V602.615M2016.87 535.769H2088.86M2016.87 602.615V669.462M2016.87 602.615H2088.86M2016.87 669.462V736.308M2016.87 669.462H2088.86M2016.87 736.308V803.154M2016.87 736.308H2088.86M2016.87 803.154V870M2016.87 803.154H2088.86M2016.87 870H2088.86M2232.83 1V67.8462M2232.83 1H2304.81M2232.83 67.8462V134.692M2232.83 67.8462L2304.81 67.8462M2232.83 134.692V201.538M2232.83 134.692L2304.81 134.692M2232.83 201.538V268.385M2232.83 201.538H2304.81M2232.83 268.385V335.231M2232.83 268.385H2304.81M2232.83 335.231V402.077M2232.83 335.231H2304.81M2232.83 402.077V468.923M2232.83 402.077H2304.81M2232.83 468.923V535.769M2232.83 468.923H2304.81M2232.83 535.769V602.615M2232.83 535.769H2304.81M2232.83 602.615V669.462M2232.83 602.615H2304.81M2232.83 669.462V736.308M2232.83 669.462H2304.81M2232.83 736.308V803.154M2232.83 736.308H2304.81M2232.83 803.154V870M2232.83 803.154H2304.81M2232.83 870H2304.81M1872.91 1V67.8462M1872.91 67.8462V134.692M1872.91 134.692V201.538M1872.91 201.538L1872.91 268.385M1872.91 268.385V335.231M1872.91 335.231V402.077M1872.91 402.077V468.923M1872.91 468.923V535.769M1872.91 535.769V602.615M1872.91 602.615L1872.91 669.461M1872.91 669.461V736.308M1872.91 736.308V803.154M1872.91 803.154V870M2088.86 1V67.8462M2088.86 67.8462V134.692M2088.86 134.692V201.538M2088.86 201.538V268.385M2088.86 268.385V335.231M2088.86 335.231V402.077M2088.86 402.077V468.923M2088.86 468.923V535.769M2088.86 535.769V602.615M2088.86 602.615V669.462M2088.86 669.462V736.308M2088.86 736.308V803.154M2088.86 803.154V870M2304.81 1V67.8462M2304.81 1H2376.8V870H2304.81M2304.81 67.8462V134.692M2304.81 67.8462H2376.79M2304.81 134.692V201.538M2304.81 134.692H2376.79M2304.81 201.538V268.385M2304.81 201.538H2376.79M2304.81 268.385V335.231M2304.81 268.385H2376.79M2304.81 335.231V402.077M2304.81 335.231H2376.79M2304.81 402.077V468.923M2304.81 402.077H2376.79M2304.81 468.923V535.769M2304.81 468.923H2376.79M2304.81 535.769V602.615M2304.81 535.769H2376.79M2304.81 602.615V669.462M2304.81 602.615H2376.79M2304.81 669.462V736.308M2304.81 669.462H2376.79M2304.81 736.308V803.154M2304.81 736.308H2376.79M2304.81 803.154V870M2304.81 803.154H2376.79M2017.19 1V67.8461M2017.19 1H1945.2V67.8461M2017.19 1H2089.17M2017.19 67.8461V134.692M2017.19 67.8461H1945.2M2017.19 67.8461L2089.17 67.8462M2017.19 134.692V201.538M2017.19 134.692H1945.2M2017.19 134.692L2089.17 134.692M2017.19 201.538V268.385M2017.19 201.538H1945.2M2017.19 201.538H2089.17M2017.19 268.385V335.231M2017.19 268.385H1945.2M2017.19 268.385H2089.17M2017.19 335.231V402.077M2017.19 335.231H1945.2M2017.19 335.231H2089.17M2017.19 402.077V468.923M2017.19 402.077H1945.2M2017.19 402.077H2089.17M2017.19 468.923V535.769M2017.19 468.923H1945.2M2017.19 468.923H2089.17M2017.19 535.769V602.615M2017.19 535.769H1945.2M2017.19 535.769H2089.17M2017.19 602.615V669.461M2017.19 602.615H1945.2M2017.19 602.615H2089.17M2017.19 669.461V736.308M2017.19 669.461H1945.2M2017.19 669.461H2089.17M2017.19 736.308L2017.19 803.154M2017.19 736.308H1945.2M2017.19 736.308H2089.17M2017.19 803.154V870M2017.19 803.154H1945.2M2017.19 803.154H2089.17M2017.19 870L1945.2 870V803.154M2017.19 870H2089.17M1945.2 67.8461V134.692M1945.2 134.692V201.538M1945.2 201.538V268.385M1945.2 268.385V335.231M1945.2 335.231V402.077M1945.2 402.077V468.923M1945.2 468.923V535.769M1945.2 535.769V602.615M1945.2 602.615V669.461M1945.2 669.461V736.308M1945.2 736.308V803.154M2089.17 1V67.8462M2089.17 1H2161.16M2089.17 67.8462V134.692M2089.17 67.8462H2161.16M2089.17 134.692V201.538M2089.17 134.692H2161.16M2089.17 201.538V268.385M2089.17 201.538L2161.16 201.538M2089.17 268.385V335.231M2089.17 268.385H2161.16M2089.17 335.231V402.077M2089.17 335.231H2161.16M2089.17 402.077V468.923M2089.17 402.077H2161.16M2089.17 468.923V535.769M2089.17 468.923H2161.16M2089.17 535.769V602.615M2089.17 535.769H2161.16M2089.17 602.615V669.461M2089.17 602.615H2161.16M2089.17 669.461V736.308M2089.17 669.461H2161.16M2089.17 736.308V803.154M2089.17 736.308H2161.16M2089.17 803.154V870M2089.17 803.154H2161.16M2089.17 870H2161.16M2161.16 1V67.8462M2161.16 1H2233.14M2161.16 67.8462V134.692M2161.16 67.8462L2233.14 67.8462M2161.16 134.692L2161.16 201.538M2161.16 134.692H2233.14M2161.16 201.538V268.385M2161.16 201.538H2233.14M2161.16 268.385V335.231M2161.16 268.385L2233.14 268.385M2161.16 335.231V402.077M2161.16 335.231L2233.14 335.231M2161.16 402.077V468.923M2161.16 402.077H2233.14M2161.16 468.923V535.769M2161.16 468.923H2233.14M2161.16 535.769V602.615M2161.16 535.769H2233.14M2161.16 602.615V669.461M2161.16 602.615H2233.14M2161.16 669.461V736.308M2161.16 669.461H2233.14M2161.16 736.308V803.154M2161.16 736.308H2233.14M2161.16 803.154V870M2161.16 803.154H2233.14M2161.16 870H2233.14M2233.14 1V67.8462M2233.14 1H2305.13M2233.14 67.8462V134.692M2233.14 67.8462H2305.13M2233.14 134.692V201.538M2233.14 134.692L2305.13 134.692M2233.14 201.538V268.385M2233.14 201.538H2305.13M2233.14 268.385V335.231M2233.14 268.385H2305.13M2233.14 335.231V402.077M2233.14 335.231H2305.13M2233.14 402.077L2233.14 468.923M2233.14 402.077H2305.13M2233.14 468.923V535.769M2233.14 468.923H2305.13M2233.14 535.769V602.615M2233.14 535.769H2305.13M2233.14 602.615V669.461M2233.14 602.615H2305.13M2233.14 669.461V736.308M2233.14 669.461H2305.13M2233.14 736.308V803.154M2233.14 736.308H2305.13M2233.14 803.154V870M2233.14 803.154H2305.13M2233.14 870H2305.13M2449.09 1V67.8462M2449.09 1H2377.11M2449.09 1H2521.08M2449.09 67.8462V134.692M2449.09 67.8462H2377.11M2449.09 67.8462L2521.08 67.8462M2449.09 134.692V201.538M2449.09 134.692H2377.11M2449.09 134.692H2521.08M2449.09 201.538V268.385M2449.09 201.538L2377.11 201.538M2449.09 201.538H2521.08M2449.09 268.385V335.231M2449.09 268.385H2377.11M2449.09 268.385H2521.08M2449.09 335.231V402.077M2449.09 335.231H2377.11M2449.09 335.231H2521.08M2449.09 402.077V468.923M2449.09 402.077L2377.11 402.077M2449.09 402.077H2521.08M2449.09 468.923V535.769M2449.09 468.923L2377.11 468.923M2449.09 468.923H2521.08M2449.09 535.769V602.615M2449.09 535.769L2377.11 535.769M2449.09 535.769H2521.08M2449.09 602.615V669.462M2449.09 602.615H2377.11M2449.09 602.615H2521.08M2449.09 669.462V736.308M2449.09 669.462L2377.11 669.461M2449.09 669.462H2521.08M2449.09 736.308V803.154M2449.09 736.308L2377.11 736.308M2449.09 736.308H2521.08M2449.09 803.154V870M2449.09 803.154L2377.11 803.154M2449.09 803.154H2521.08M2449.09 870H2377.11M2449.09 870H2521.08M2665.05 1V67.8462M2665.05 1H2593.06M2665.05 1H2737.03M2665.05 67.8462V134.692M2665.05 67.8462L2593.06 67.8462M2665.05 67.8462H2737.03M2665.05 134.692V201.538M2665.05 134.692H2593.06M2665.05 134.692H2737.03M2665.05 201.538V268.385M2665.05 201.538H2593.06M2665.05 201.538L2737.03 201.538M2665.05 268.385V335.231M2665.05 268.385L2593.06 268.385M2665.05 268.385H2737.03M2665.05 335.231V402.077M2665.05 335.231L2593.06 335.231M2665.05 335.231H2737.03M2665.05 402.077L2665.05 468.923M2665.05 402.077H2593.06M2665.05 402.077H2737.03M2665.05 468.923V535.769M2665.05 468.923H2593.06M2665.05 468.923H2737.03M2665.05 535.769V602.615M2665.05 535.769H2593.06M2665.05 535.769H2737.03M2665.05 602.615V669.462M2665.05 602.615H2593.06M2665.05 602.615H2737.03M2665.05 669.462V736.308M2665.05 669.462H2593.06M2665.05 669.462H2737.03M2665.05 736.308V803.154M2665.05 736.308H2593.06M2665.05 736.308H2737.03M2665.05 803.154V870M2665.05 803.154H2593.06M2665.05 803.154H2737.03M2665.05 870H2593.06M2665.05 870H2737.03M2305.13 1V67.8462M2305.13 1H2377.11M2305.13 67.8462V134.692M2305.13 67.8462L2377.11 67.8462M2305.13 134.692V201.538M2305.13 134.692H2377.11M2305.13 201.538V268.385M2305.13 201.538H2377.11M2305.13 268.385V335.231M2305.13 268.385H2377.11M2305.13 335.231V402.077M2305.13 335.231H2377.11M2305.13 402.077V468.923M2305.13 402.077H2377.11M2305.13 468.923V535.769M2305.13 468.923H2377.11M2305.13 535.769V602.615M2305.13 535.769H2377.11M2305.13 602.615V669.461M2305.13 602.615H2377.11M2305.13 669.461V736.308M2305.13 669.461H2377.11M2305.13 736.308V803.154M2305.13 736.308H2377.11M2305.13 803.154V870M2305.13 803.154H2377.11M2305.13 870H2377.11M2521.08 1V67.8462M2521.08 1H2593.06M2521.08 67.8462V134.692M2521.08 67.8462H2593.06M2521.08 134.692V201.538M2521.08 134.692L2593.06 134.692M2521.08 201.538V268.385M2521.08 201.538H2593.06M2521.08 268.385V335.231M2521.08 268.385H2593.06M2521.08 335.231V402.077M2521.08 335.231H2593.06M2521.08 402.077V468.923M2521.08 402.077H2593.06M2521.08 468.923V535.769M2521.08 468.923H2593.06M2521.08 535.769V602.615M2521.08 535.769H2593.06M2521.08 602.615V669.462M2521.08 602.615H2593.06M2521.08 669.462V736.308M2521.08 669.462H2593.06M2521.08 736.308V803.154M2521.08 736.308H2593.06M2521.08 803.154V870M2521.08 803.154H2593.06M2521.08 870H2593.06M2737.03 1V67.8462M2737.03 1H2809.02M2737.03 67.8462V134.692M2737.03 67.8462L2809.02 67.8462M2737.03 134.692V201.538M2737.03 134.692L2809.02 134.692M2737.03 201.538V268.385M2737.03 201.538H2809.02M2737.03 268.385V335.231M2737.03 268.385H2809.02M2737.03 335.231V402.077M2737.03 335.231H2809.02M2737.03 402.077V468.923M2737.03 402.077H2809.02M2737.03 468.923V535.769M2737.03 468.923H2809.02M2737.03 535.769V602.615M2737.03 535.769H2809.02M2737.03 602.615V669.462M2737.03 602.615H2809.02M2737.03 669.462V736.308M2737.03 669.462H2809.02M2737.03 736.308V803.154M2737.03 736.308H2809.02M2737.03 803.154V870M2737.03 803.154H2809.02M2737.03 870H2809.02M2377.11 1V67.8462M2377.11 67.8462V134.692M2377.11 134.692V201.538M2377.11 201.538V268.385M2377.11 268.385V335.231M2377.11 335.231V402.077M2377.11 402.077V468.923M2377.11 468.923V535.769M2377.11 535.769V602.615M2377.11 602.615L2377.11 669.461M2377.11 669.461V736.308M2377.11 736.308V803.154M2377.11 803.154V870M2593.06 1V67.8462M2593.06 67.8462V134.692M2593.06 134.692V201.538M2593.06 201.538V268.385M2593.06 268.385V335.231M2593.06 335.231V402.077M2593.06 402.077V468.923M2593.06 468.923V535.769M2593.06 535.769V602.615M2593.06 602.615V669.462M2593.06 669.462V736.308M2593.06 736.308V803.154M2593.06 803.154V870M2809.02 1V67.8462M2809.02 1H2881V870H2809.02M2809.02 67.8462V134.692M2809.02 67.8462H2881M2809.02 134.692V201.538M2809.02 134.692H2881M2809.02 201.538V268.385M2809.02 201.538H2881M2809.02 268.385V335.231M2809.02 268.385H2881M2809.02 335.231V402.077M2809.02 335.231H2881M2809.02 402.077V468.923M2809.02 402.077H2881M2809.02 468.923V535.769M2809.02 468.923H2881M2809.02 535.769V602.615M2809.02 535.769H2881M2809.02 602.615V669.462M2809.02 602.615H2881M2809.02 669.462V736.308M2809.02 669.462H2881M2809.02 736.308V803.154M2809.02 736.308H2881M2809.02 803.154V870M2809.02 803.154H2881" stroke="#808080" stroke-opacity="0.3"/>
</svg>
