<svg width="150" height="40" viewBox="0 0 150 40" fill="none" xmlns="http://www.w3.org/2000/svg">
<path d="M0.862305 28.9471L0.862308 10.6393L10.072 15.7248V23.9124L17.4399 28.0317L24.8076 23.9124V15.7248L34.0174 10.6393V28.9471L17.4399 38.101L0.862305 28.9471Z" fill="white"/>
<path fill-rule="evenodd" clip-rule="evenodd" d="M5.46718 13.1822L0.862305 10.6394L17.4399 1.48547L34.0174 10.6394L29.4125 13.1822V26.6587L17.4399 33.5242L5.46717 26.6587L5.46718 13.1822ZM28.9137 13.4577L24.8076 15.7249V15.6741L17.4399 11.5548L10.072 15.6741V15.7249L5.96604 13.4577V26.3771L17.4399 32.9565L28.9137 26.3771V13.4577Z" fill="#A1AEBF"/>
<path d="M42.8428 27.5003V12.1217H45.7604V24.8639H52.8336V27.5003H42.8428Z" fill="white"/>
<path d="M59.1326 27.8079C58.0422 27.8079 57.0623 27.5882 56.1929 27.1487C55.3235 26.7094 54.6383 26.0723 54.1373 25.2375C53.6362 24.4026 53.3857 23.3993 53.3857 22.2277V21.8761C53.3857 20.7044 53.6362 19.7011 54.1373 18.8663C54.6383 18.0315 55.3235 17.3944 56.1929 16.955C57.0623 16.5155 58.0422 16.2959 59.1326 16.2959C60.2231 16.2959 61.203 16.5155 62.0724 16.955C62.9418 17.3944 63.627 18.0315 64.128 18.8663C64.629 19.7011 64.8796 20.7044 64.8796 21.8761V22.2277C64.8796 23.3993 64.629 24.4026 64.128 25.2375C63.627 26.0723 62.9418 26.7094 62.0724 27.1487C61.203 27.5882 60.2231 27.8079 59.1326 27.8079ZM59.1326 25.3473C59.9873 25.3473 60.6947 25.0764 61.2546 24.5344C61.8146 23.9779 62.0945 23.1869 62.0945 22.1617V21.9421C62.0945 20.9168 61.8146 20.1332 61.2546 19.5913C60.7094 19.0348 60.002 18.7565 59.1326 18.7565C58.278 18.7565 57.5706 19.0348 57.0107 19.5913C56.4507 20.1332 56.1708 20.9168 56.1708 21.9421V22.1617C56.1708 23.1869 56.4507 23.9779 57.0107 24.5344C57.5706 25.0764 58.278 25.3473 59.1326 25.3473Z" fill="white"/>
<path d="M65.9258 22.0958V21.7443C65.9258 20.6019 66.1541 19.6279 66.611 18.8224C67.0677 18.0022 67.672 17.3797 68.4234 16.955C69.1897 16.5155 70.0223 16.2959 70.9211 16.2959C71.9231 16.2959 72.6821 16.4717 73.1977 16.8232C73.7135 17.1747 74.0893 17.5409 74.325 17.9217H74.7229V16.6034H77.4637V29.4336C77.4637 30.1805 77.2426 30.7737 76.8006 31.2132C76.3585 31.6672 75.7691 31.8942 75.0323 31.8942H67.694V29.4776H74.0598C74.4724 29.4776 74.6787 29.2578 74.6787 28.8185V25.9844H74.2808C74.1334 26.2187 73.9272 26.4604 73.662 26.7094C73.3967 26.9437 73.043 27.1414 72.601 27.3026C72.1589 27.4637 71.5989 27.5443 70.9211 27.5443C70.0223 27.5443 69.1897 27.3318 68.4234 26.9071C67.672 26.4677 67.0677 25.8452 66.611 25.0397C66.1541 24.2195 65.9258 23.2383 65.9258 22.0958ZM71.7169 25.1276C72.5715 25.1276 73.2862 24.8566 73.8609 24.3147C74.4356 23.7729 74.7229 23.0112 74.7229 22.03V21.8102C74.7229 20.8142 74.4356 20.0527 73.8609 19.5254C73.3009 18.9835 72.5863 18.7125 71.7169 18.7125C70.8622 18.7125 70.1474 18.9835 69.5728 19.5254C68.9981 20.0527 68.7108 20.8142 68.7108 21.8102V22.03C68.7108 23.0112 68.9981 23.7729 69.5728 24.3147C70.1474 24.8566 70.8622 25.1276 71.7169 25.1276Z" fill="white"/>
<path d="M84.7732 27.8079C83.6827 27.8079 82.7028 27.5882 81.8334 27.1487C80.964 26.7094 80.2788 26.0723 79.7778 25.2375C79.2769 24.4026 79.0264 23.3993 79.0264 22.2277V21.8761C79.0264 20.7044 79.2769 19.7011 79.7778 18.8663C80.2788 18.0315 80.964 17.3944 81.8334 16.955C82.7028 16.5155 83.6827 16.2959 84.7732 16.2959C85.8636 16.2959 86.8435 16.5155 87.7129 16.955C88.5823 17.3944 89.2675 18.0315 89.7685 18.8663C90.2696 19.7011 90.5201 20.7044 90.5201 21.8761V22.2277C90.5201 23.3993 90.2696 24.4026 89.7685 25.2375C89.2675 26.0723 88.5823 26.7094 87.7129 27.1487C86.8435 27.5882 85.8636 27.8079 84.7732 27.8079ZM84.7732 25.3473C85.6278 25.3473 86.3352 25.0764 86.8951 24.5344C87.4551 23.9779 87.7351 23.1869 87.7351 22.1617V21.9421C87.7351 20.9168 87.4551 20.1332 86.8951 19.5913C86.3499 19.0348 85.6426 18.7565 84.7732 18.7565C83.9185 18.7565 83.2113 19.0348 82.6513 19.5913C82.0914 20.1332 81.8114 20.9168 81.8114 21.9421V22.1617C81.8114 23.1869 82.0914 23.9779 82.6513 24.5344C83.2113 25.0764 83.9185 25.3473 84.7732 25.3473Z" fill="white"/>
<path d="M92.0961 27.5003V16.6034H94.8811V27.5003H92.0961ZM93.4885 15.3292C92.9876 15.3292 92.5602 15.1681 92.2066 14.8459C91.8676 14.5236 91.6982 14.0989 91.6982 13.5717C91.6982 13.0444 91.8676 12.6197 92.2066 12.2974C92.5602 11.9753 92.9876 11.8141 93.4885 11.8141C94.0043 11.8141 94.4317 11.9753 94.7706 12.2974C95.1095 12.6197 95.2789 13.0444 95.2789 13.5717C95.2789 14.0989 95.1095 14.5236 94.7706 14.8459C94.4317 15.1681 94.0043 15.3292 93.4885 15.3292Z" fill="white"/>
<path d="M96.9727 31.8942V16.6034H99.7136V17.9217H100.112C100.362 17.4969 100.752 17.1234 101.283 16.8012C101.814 16.4643 102.572 16.2959 103.56 16.2959C104.444 16.2959 105.262 16.5155 106.013 16.955C106.765 17.3797 107.369 18.0095 107.825 18.8444C108.282 19.6792 108.511 20.6898 108.511 21.8761V22.2277C108.511 23.414 108.282 24.4246 107.825 25.2594C107.369 26.0943 106.765 26.7314 106.013 27.1708C105.262 27.5955 104.444 27.8079 103.56 27.8079C102.896 27.8079 102.336 27.7273 101.879 27.5662C101.437 27.4197 101.076 27.2293 100.797 26.995C100.531 26.746 100.318 26.497 100.156 26.2481H99.7578V31.8942H96.9727ZM102.72 25.3912C103.589 25.3912 104.304 25.1202 104.864 24.5783C105.438 24.0218 105.725 23.2162 105.725 22.1617V21.9421C105.725 20.8875 105.438 20.0892 104.864 19.5473C104.289 18.9908 103.574 18.7125 102.72 18.7125C101.865 18.7125 101.15 18.9908 100.575 19.5473C100.001 20.0892 99.7136 20.8875 99.7136 21.9421V22.1617C99.7136 23.2162 100.001 24.0218 100.575 24.5783C101.15 25.1202 101.865 25.3912 102.72 25.3912Z" fill="white"/>
<path d="M114.627 27.8079C113.197 27.8079 112.026 27.5003 111.112 26.8852C110.199 26.27 109.646 25.3912 109.454 24.2488L112.019 23.5898C112.122 24.1023 112.291 24.5052 112.527 24.7981C112.778 25.091 113.08 25.3033 113.434 25.4352C113.801 25.5523 114.199 25.611 114.627 25.611C115.275 25.611 115.754 25.501 116.064 25.2814C116.373 25.047 116.528 24.7614 116.528 24.4246C116.528 24.0877 116.381 23.8314 116.085 23.6556C115.791 23.4652 115.32 23.3115 114.671 23.1943L114.052 23.0844C113.285 22.9379 112.585 22.7402 111.952 22.4913C111.319 22.2277 110.81 21.8688 110.427 21.4148C110.044 20.9607 109.852 20.3748 109.852 19.6572C109.852 18.5734 110.25 17.7459 111.046 17.1747C111.841 16.5888 112.888 16.2959 114.184 16.2959C115.408 16.2959 116.425 16.5669 117.234 17.1088C118.045 17.6507 118.576 18.3611 118.827 19.2398L116.24 20.0307C116.123 19.4742 115.88 19.0786 115.511 18.8444C115.157 18.61 114.715 18.4928 114.184 18.4928C113.654 18.4928 113.249 18.588 112.969 18.7784C112.689 18.9542 112.549 19.2032 112.549 19.5254C112.549 19.8769 112.696 20.1405 112.991 20.3163C113.285 20.4774 113.684 20.6019 114.184 20.6898L114.803 20.7996C115.629 20.9461 116.373 21.1438 117.036 21.3928C117.714 21.6271 118.244 21.9713 118.628 22.4254C119.026 22.8648 119.225 23.4652 119.225 24.2269C119.225 25.3693 118.804 26.2554 117.964 26.8852C117.139 27.5003 116.027 27.8079 114.627 27.8079Z" fill="white"/>
<path d="M124.847 27.676C123.993 27.676 123.241 27.4856 122.593 27.1049C121.959 26.7093 121.465 26.1674 121.111 25.4791C120.759 24.7907 120.581 23.9998 120.581 23.1064V16.6034H123.366V22.8867C123.366 23.7068 123.565 24.322 123.963 24.7321C124.375 25.1422 124.958 25.3472 125.709 25.3472C126.563 25.3472 127.227 25.0689 127.699 24.5124C128.17 23.9412 128.406 23.1503 128.406 22.1397V16.6034H131.191V27.5003H128.45V26.0722H128.053C127.875 26.4384 127.544 26.7972 127.058 27.1487C126.571 27.5003 125.834 27.676 124.847 27.676Z" fill="white"/>
<path d="M133.296 27.5003V16.6034H136.036V17.7898H136.434C136.625 17.4236 136.943 17.1088 137.384 16.8451C137.826 16.5669 138.409 16.4277 139.131 16.4277C139.912 16.4277 140.538 16.5815 141.01 16.889C141.481 17.182 141.842 17.5701 142.093 18.0534H142.49C142.741 17.5848 143.095 17.1967 143.552 16.889C144.009 16.5815 144.657 16.4277 145.497 16.4277C146.174 16.4277 146.786 16.5742 147.331 16.8671C147.891 17.1453 148.333 17.5774 148.658 18.1633C148.996 18.7345 149.165 19.4594 149.165 20.3383V27.5003H146.38V20.536C146.38 19.9355 146.226 19.4888 145.916 19.1959C145.607 18.8883 145.172 18.7345 144.613 18.7345C143.979 18.7345 143.485 18.9396 143.131 19.3496C142.793 19.7451 142.623 20.3163 142.623 21.0633V27.5003H139.838V20.536C139.838 19.9355 139.683 19.4888 139.374 19.1959C139.065 18.8883 138.63 18.7345 138.069 18.7345C137.436 18.7345 136.943 18.9396 136.589 19.3496C136.25 19.7451 136.08 20.3163 136.08 21.0633V27.5003H133.296Z" fill="white"/>
</svg>
