<svg width="150" height="40" viewBox="0 0 150 40" fill="none" xmlns="http://www.w3.org/2000/svg">
<path d="M22.8153 29.4629L3.31526 16.0933C1.33917 14.7385 2.01091 11.9177 4.47504 11.2543L25.2 5.6634C25.6391 5.50594 26.1095 5.45483 26.5724 5.51431C27.0353 5.57378 27.4772 5.74212 27.8616 6.00537C28.2458 6.26861 28.5615 6.61916 28.7821 7.02791C29.0028 7.43667 29.1222 7.89185 29.1305 8.35568L27.9022 27.3151C27.7566 29.5655 24.7913 30.8176 22.8153 29.4629Z" fill="#A1AEBF"/>
<path d="M16.631 32.7634L5.14296 10.4333C4.88035 9.9225 4.76479 9.34948 4.80902 8.7775C4.85325 8.20552 5.05555 7.65679 5.39361 7.19183C5.73167 6.72687 6.19236 6.36374 6.72487 6.14248C7.25738 5.92122 7.84102 5.85043 8.41143 5.93793L29.7017 9.20388C30.1918 9.27908 30.657 9.46885 31.0591 9.75758C31.461 10.0463 31.7883 10.4258 32.0141 10.8647C32.2397 11.3037 32.3574 11.7896 32.3573 12.2826C32.3572 12.7756 32.2394 13.2615 32.0136 13.7004L22.206 32.7645C21.9427 33.2739 21.5431 33.7013 21.0512 33.9996C20.5594 34.298 19.9944 34.4557 19.4182 34.4556C18.842 34.4555 18.277 34.2976 17.7853 33.9991C17.2935 33.7004 16.8942 33.2729 16.631 32.7634Z" fill="#728095"/>
<path d="M29.0781 9.10773L18.465 7.47961L5.43457 10.9962L10.6357 21.1095L22.815 29.4629C23.0837 29.6452 23.3792 29.7848 23.6911 29.8767L28.3172 20.8848L29.0781 9.10773Z" fill="white"/>
<path d="M64.9926 20.592C64.9926 21.904 64.6966 23.064 64.1046 24.072C63.5286 25.064 62.7446 25.84 61.7526 26.4C60.7766 26.96 59.6806 27.24 58.4646 27.24C57.2486 27.24 56.1446 26.96 55.1526 26.4C54.1766 25.84 53.3926 25.064 52.8006 24.072C52.2246 23.064 51.9366 21.904 51.9366 20.592C51.9366 19.28 52.2246 18.128 52.8006 17.136C53.3926 16.128 54.1766 15.344 55.1526 14.784C56.1446 14.208 57.2486 13.92 58.4646 13.92C59.6806 13.92 60.7766 14.208 61.7526 14.784C62.7446 15.344 63.5286 16.128 64.1046 17.136C64.6966 18.128 64.9926 19.28 64.9926 20.592ZM62.1126 20.592C62.1126 19.776 61.9446 19.072 61.6086 18.48C61.2886 17.872 60.8486 17.4 60.2886 17.064C59.7446 16.728 59.1366 16.56 58.4646 16.56C57.7926 16.56 57.1766 16.728 56.6166 17.064C56.0726 17.4 55.6326 17.872 55.2966 18.48C54.9766 19.072 54.8166 19.776 54.8166 20.592C54.8166 21.392 54.9766 22.096 55.2966 22.704C55.6326 23.296 56.0726 23.76 56.6166 24.096C57.1766 24.432 57.7926 24.6 58.4646 24.6C59.1366 24.6 59.7446 24.432 60.2886 24.096C60.8486 23.76 61.2886 23.296 61.6086 22.704C61.9446 22.096 62.1126 21.392 62.1126 20.592ZM74.5931 9.24C74.9451 9.24 75.2891 9.288 75.6251 9.384C75.9611 9.48 76.2411 9.64 76.4651 9.864C76.6891 10.072 76.8011 10.352 76.8011 10.704C76.8011 11.104 76.6811 11.424 76.4411 11.664C76.2171 11.888 75.9531 12 75.6491 12C75.5051 12 75.2891 11.968 75.0011 11.904C74.7131 11.824 74.4331 11.784 74.1611 11.784C73.7611 11.784 73.4491 11.872 73.2251 12.048C73.0171 12.224 72.8731 12.432 72.7931 12.672C72.7131 12.896 72.6731 13.096 72.6731 13.272V25.536C72.6731 25.952 72.5371 26.304 72.2651 26.592C71.9931 26.864 71.6491 27 71.2331 27C70.8171 27 70.4731 26.864 70.2011 26.592C69.9291 26.304 69.7931 25.952 69.7931 25.536V13.296C69.7931 12.16 70.1931 11.2 70.9931 10.416C71.7931 9.632 72.9931 9.24 74.5931 9.24ZM74.8571 14.4C75.2411 14.4 75.5611 14.528 75.8171 14.784C76.0731 15.024 76.2011 15.336 76.2011 15.72C76.2011 16.104 76.0731 16.424 75.8171 16.68C75.5611 16.92 75.2411 17.04 74.8571 17.04H68.4971C68.1131 17.04 67.7931 16.92 67.5371 16.68C67.2811 16.424 67.1531 16.104 67.1531 15.72C67.1531 15.336 67.2811 15.024 67.5371 14.784C67.7931 14.528 68.1131 14.4 68.4971 14.4H74.8571ZM85.0811 9.24C85.4331 9.24 85.7771 9.288 86.1131 9.384C86.4491 9.48 86.7291 9.64 86.9531 9.864C87.1771 10.072 87.2891 10.352 87.2891 10.704C87.2891 11.104 87.1691 11.424 86.9291 11.664C86.7051 11.888 86.4411 12 86.1371 12C85.9931 12 85.7771 11.968 85.4891 11.904C85.2011 11.824 84.9211 11.784 84.6491 11.784C84.2491 11.784 83.9371 11.872 83.7131 12.048C83.5051 12.224 83.3611 12.432 83.2811 12.672C83.2011 12.896 83.1611 13.096 83.1611 13.272V25.536C83.1611 25.952 83.0251 26.304 82.7531 26.592C82.4811 26.864 82.1371 27 81.7211 27C81.3051 27 80.9611 26.864 80.6891 26.592C80.4171 26.304 80.2811 25.952 80.2811 25.536V13.296C80.2811 12.16 80.6811 11.2 81.4811 10.416C82.2811 9.632 83.4811 9.24 85.0811 9.24ZM85.3451 14.4C85.7291 14.4 86.0491 14.528 86.3051 14.784C86.5611 15.024 86.6891 15.336 86.6891 15.72C86.6891 16.104 86.5611 16.424 86.3051 16.68C86.0491 16.92 85.7291 17.04 85.3451 17.04H78.9851C78.6011 17.04 78.2811 16.92 78.0251 16.68C77.7691 16.424 77.6411 16.104 77.6411 15.72C77.6411 15.336 77.7691 15.024 78.0251 14.784C78.2811 14.528 78.6011 14.4 78.9851 14.4H85.3451ZM96.1937 13.92C97.4737 13.92 98.4177 14.232 99.0257 14.856C99.6337 15.464 100.034 16.256 100.226 17.232L99.8177 17.016L100.01 16.632C100.202 16.264 100.498 15.872 100.898 15.456C101.298 15.024 101.778 14.664 102.338 14.376C102.914 14.072 103.554 13.92 104.258 13.92C105.41 13.92 106.282 14.168 106.874 14.664C107.482 15.16 107.898 15.824 108.122 16.656C108.346 17.472 108.458 18.384 108.458 19.392V25.536C108.458 25.952 108.322 26.304 108.05 26.592C107.778 26.864 107.434 27 107.018 27C106.602 27 106.258 26.864 105.986 26.592C105.714 26.304 105.578 25.952 105.578 25.536V19.392C105.578 18.864 105.514 18.392 105.386 17.976C105.258 17.544 105.026 17.2 104.69 16.944C104.354 16.688 103.874 16.56 103.25 16.56C102.642 16.56 102.122 16.688 101.69 16.944C101.258 17.2 100.93 17.544 100.706 17.976C100.498 18.392 100.394 18.864 100.394 19.392V25.536C100.394 25.952 100.258 26.304 99.9857 26.592C99.7137 26.864 99.3697 27 98.9537 27C98.5377 27 98.1937 26.864 97.9217 26.592C97.6497 26.304 97.5137 25.952 97.5137 25.536V19.392C97.5137 18.864 97.4497 18.392 97.3217 17.976C97.1937 17.544 96.9617 17.2 96.6257 16.944C96.2897 16.688 95.8097 16.56 95.1857 16.56C94.5777 16.56 94.0577 16.688 93.6257 16.944C93.1937 17.2 92.8657 17.544 92.6417 17.976C92.4337 18.392 92.3297 18.864 92.3297 19.392V25.536C92.3297 25.952 92.1937 26.304 91.9217 26.592C91.6497 26.864 91.3057 27 90.8897 27C90.4737 27 90.1297 26.864 89.8577 26.592C89.5857 26.304 89.4497 25.952 89.4497 25.536V15.624C89.4497 15.208 89.5857 14.864 89.8577 14.592C90.1297 14.304 90.4737 14.16 90.8897 14.16C91.3057 14.16 91.6497 14.304 91.9217 14.592C92.1937 14.864 92.3297 15.208 92.3297 15.624V16.656L91.9697 16.584C92.1137 16.312 92.3137 16.024 92.5697 15.72C92.8257 15.4 93.1377 15.104 93.5057 14.832C93.8737 14.56 94.2817 14.344 94.7297 14.184C95.1777 14.008 95.6657 13.92 96.1937 13.92ZM122.567 13.92C122.983 13.92 123.327 14.056 123.599 14.328C123.871 14.6 124.007 14.952 124.007 15.384V25.536C124.007 25.952 123.871 26.304 123.599 26.592C123.327 26.864 122.983 27 122.567 27C122.151 27 121.807 26.864 121.535 26.592C121.263 26.304 121.127 25.952 121.127 25.536V24.36L121.655 24.576C121.655 24.784 121.543 25.04 121.319 25.344C121.095 25.632 120.791 25.92 120.407 26.208C120.023 26.496 119.567 26.744 119.039 26.952C118.527 27.144 117.967 27.24 117.359 27.24C116.255 27.24 115.255 26.96 114.359 26.4C113.463 25.824 112.751 25.04 112.223 24.048C111.711 23.04 111.455 21.888 111.455 20.592C111.455 19.28 111.711 18.128 112.223 17.136C112.751 16.128 113.455 15.344 114.335 14.784C115.215 14.208 116.191 13.92 117.263 13.92C117.951 13.92 118.583 14.024 119.159 14.232C119.735 14.44 120.231 14.704 120.647 15.024C121.079 15.344 121.407 15.672 121.631 16.008C121.871 16.328 121.991 16.6 121.991 16.824L121.127 17.136V15.384C121.127 14.968 121.263 14.624 121.535 14.352C121.807 14.064 122.151 13.92 122.567 13.92ZM117.719 24.6C118.423 24.6 119.039 24.424 119.567 24.072C120.095 23.72 120.503 23.24 120.791 22.632C121.095 22.024 121.247 21.344 121.247 20.592C121.247 19.824 121.095 19.136 120.791 18.528C120.503 17.92 120.095 17.44 119.567 17.088C119.039 16.736 118.423 16.56 117.719 16.56C117.031 16.56 116.423 16.736 115.895 17.088C115.367 17.44 114.951 17.92 114.647 18.528C114.359 19.136 114.215 19.824 114.215 20.592C114.215 21.344 114.359 22.024 114.647 22.632C114.951 23.24 115.367 23.72 115.895 24.072C116.423 24.424 117.031 24.6 117.719 24.6ZM127.869 14.16C128.333 14.16 128.725 14.36 129.045 14.76L137.061 24.72C137.269 24.976 137.373 25.264 137.373 25.584C137.373 25.984 137.221 26.328 136.917 26.616C136.613 26.904 136.277 27.048 135.909 27.048C135.445 27.048 135.053 26.84 134.733 26.424L126.717 16.464C126.509 16.208 126.405 15.92 126.405 15.6C126.405 15.184 126.549 14.84 126.837 14.568C127.141 14.296 127.485 14.16 127.869 14.16ZM127.893 27.024C127.573 27.024 127.253 26.904 126.933 26.664C126.629 26.408 126.477 26.104 126.477 25.752C126.477 25.432 126.597 25.128 126.837 24.84L130.509 20.352L131.949 22.752L129.045 26.424C128.741 26.824 128.357 27.024 127.893 27.024ZM135.885 14.16C136.269 14.16 136.589 14.296 136.845 14.568C137.117 14.824 137.253 15.12 137.253 15.456C137.253 15.616 137.229 15.776 137.181 15.936C137.133 16.096 137.045 16.248 136.917 16.392L133.293 20.808L131.781 18.72L134.733 14.808C135.053 14.376 135.437 14.16 135.885 14.16Z" fill="white"/>
</svg>
