<svg width="150" height="40" viewBox="0 0 150 40" fill="none" xmlns="http://www.w3.org/2000/svg">
<path d="M27.4392 0.909058C25.037 0.909058 22.6582 1.39115 20.4388 2.32766C18.2194 3.26427 16.203 4.63697 14.5043 6.36749C12.8056 8.09811 11.4583 10.1525 10.5389 12.4136C9.61969 14.6746 9.14648 17.0981 9.14648 19.5454C9.14648 21.9927 9.61969 24.4162 10.5389 26.6773C11.4583 28.9384 12.8056 30.9927 14.5043 32.7233C16.203 34.4539 18.8174 35.427 21.0367 36.3636C23.2561 37.3001 25.037 38.1818 27.4392 38.1818V29.7306C26.238 29.7306 24.8903 29.1047 23.7806 28.6363C22.6709 28.1681 21.821 26.9996 20.9717 26.1344C20.1224 25.2691 19.4487 24.2419 18.9891 23.1114C18.5294 21.9808 18.2928 21.2237 18.2928 20C18.2928 18.7762 18.5294 17.11 18.9891 15.9795C19.4487 14.849 20.1224 13.8217 20.9717 12.9565C21.821 12.0912 22.8293 11.4048 23.939 10.9366C25.0487 10.4682 26.238 10.2272 27.4392 10.2272V0.909058Z" fill="white"/>
<path d="M27.8963 25.4545C31.1797 25.4545 33.8414 22.809 33.8414 19.5454C33.8414 16.2819 31.1797 13.6364 27.8963 13.6364C24.6128 13.6364 21.9512 16.2819 21.9512 19.5454C21.9512 22.809 24.6128 25.4545 27.8963 25.4545Z" fill="white"/>
<path d="M9.14648 20C9.14648 22.3876 9.63152 24.752 10.5737 26.9579C11.5161 29.1638 12.8971 31.1681 14.6382 32.8565C16.3794 34.5448 18.4463 35.8841 20.7211 36.7978C22.996 37.7115 25.4342 38.1818 27.8965 38.1818C30.3587 38.1818 32.797 37.7115 35.0718 36.7978C37.3467 35.8841 39.4136 34.5448 41.1548 32.8565C42.8958 31.1681 44.2769 29.1638 45.2192 26.9579C46.1614 24.752 46.6465 22.3876 46.6465 20H37.2715C37.2715 21.1939 37.029 22.376 36.5578 23.479C36.0867 24.5819 35.3962 25.5841 34.5256 26.4283C33.6551 27.2724 32.6216 27.942 31.4842 28.3989C30.3467 28.8558 29.1277 29.0909 27.8965 29.0909C26.6653 29.0909 25.4462 28.8558 24.3088 28.3989C23.1714 27.942 22.1379 27.2724 21.2673 26.4283C20.3968 25.5841 19.7063 24.5819 19.2352 23.479C18.7639 22.376 18.5215 21.1939 18.5215 20H9.14648Z" fill="white"/>
<path d="M33.8414 20C33.8414 18.3123 33.215 16.6937 32.1002 15.5003C30.9852 14.3068 29.4731 13.6364 27.8963 13.6364C26.3196 13.6364 24.8075 14.3068 23.6925 15.5003C22.5775 16.6937 21.9512 18.3123 21.9512 20H27.8963H33.8414Z" fill="white"/>
<path d="M56.7078 12.7273H53.9639V25.4546H56.7078V12.7273Z" fill="white"/>
<path d="M57.6221 20.9091C57.6221 23.7196 59.789 25.4546 62.6526 25.4546C65.5161 25.4546 67.683 23.7196 67.683 20.9091C67.683 18.0986 65.5161 16.3636 62.6526 16.3636C59.789 16.3636 57.6221 18.0986 57.6221 20.9091ZM60.0599 20.9091C60.0599 19.2436 61.1434 18.272 62.6526 18.272C64.1617 18.272 65.2452 19.2436 65.2452 20.9091C65.2452 22.5746 64.1617 23.5462 62.6526 23.5462C61.1434 23.5462 60.0599 22.5746 60.0599 20.9091Z" fill="white"/>
<path d="M75.5713 16.6098V17.7875H75.3961C74.8704 17.0317 74.0294 16.3636 72.5225 16.3636C70.455 16.3636 68.5977 18.1216 68.5977 20.8287C68.5977 23.5359 70.455 25.2938 72.5225 25.2938C74.0294 25.2938 74.8704 24.6082 75.361 23.9227H75.5363V24.7665C75.5363 26.4541 74.555 27.2275 73.1183 27.2275C71.6815 27.2275 70.9456 26.4541 70.6476 25.452L68.6677 26.3134C69.1233 27.6318 70.455 29.0909 73.1533 29.0909C75.9217 29.0909 77.744 27.6318 77.744 24.8191V16.6098H75.5713ZM73.1884 23.3953C71.8217 23.3953 70.8054 22.4109 70.8054 20.8287C70.8054 19.2466 71.8217 18.2622 73.1884 18.2622C74.555 18.2622 75.5713 19.2466 75.5713 20.8287C75.5713 22.4109 74.555 23.3953 73.1884 23.3953Z" fill="white"/>
<path d="M79.5732 20.9091C79.5732 23.7196 81.7402 25.4546 84.6038 25.4546C87.4673 25.4546 89.6342 23.7196 89.6342 20.9091C89.6342 18.0986 87.4673 16.3636 84.6038 16.3636C81.7402 16.3636 79.5732 18.0986 79.5732 20.9091ZM82.0111 20.9091C82.0111 19.2436 83.0946 18.272 84.6038 18.272C86.1129 18.272 87.1965 19.2436 87.1965 20.9091C87.1965 22.5746 86.1129 23.5462 84.6038 23.5462C83.0946 23.5462 82.0111 22.5746 82.0111 20.9091Z" fill="white"/>
<path d="M91.4639 13.4336C91.4639 14.3915 92.0652 15.0489 92.8363 15.0489C93.6065 15.0489 94.2078 14.3915 94.2078 13.4336C94.2078 12.4757 93.6065 11.8182 92.8363 11.8182C92.0652 11.8182 91.4639 12.4757 91.4639 13.4336ZM93.8066 16.1383H91.865V25.4546H93.8066V16.1383Z" fill="white"/>
<path d="M96.0361 29.0909H98.2443V24.3585H98.419C98.9095 25.0756 99.7505 25.7567 101.258 25.7567C103.325 25.7567 105.182 23.9642 105.182 21.0602C105.182 18.1562 103.325 16.3636 101.258 16.3636C99.7505 16.3636 98.9095 17.0448 98.3844 17.8157H98.2087V16.6146H96.0361V29.0909ZM100.592 23.8208C99.2254 23.8208 98.2087 22.8169 98.2087 21.0602C98.2087 19.3035 99.2254 18.2996 100.592 18.2996C101.959 18.2996 102.974 19.3035 102.974 21.0602C102.974 22.8169 101.959 23.8208 100.592 23.8208Z" fill="white"/>
<path d="M107.347 19.0181C107.347 20.7183 108.874 21.3429 110.811 21.6899L111.295 21.7766C112.449 21.9847 112.971 22.245 112.971 22.8002C112.971 23.3554 112.449 23.789 111.37 23.789C110.289 23.789 109.415 23.3727 109.172 22.1235L107.012 22.644C107.329 24.4483 108.948 25.4546 111.37 25.4546C113.716 25.4546 115.243 24.431 115.243 22.6267C115.243 20.8223 113.679 20.3366 111.593 19.955L111.109 19.8682C110.14 19.6947 109.619 19.4518 109.619 18.8793C109.619 18.3588 110.104 18.0292 110.997 18.0292C111.891 18.0292 112.524 18.3761 112.747 19.313L114.871 18.7058C114.424 17.3179 113.065 16.3636 110.997 16.3636C108.799 16.3636 107.347 17.3179 107.347 19.0181Z" fill="white"/>
<path d="M125.305 25.3103V16.3636H122.904V20.9813C122.904 22.6407 122.047 23.6147 120.579 23.6147C119.283 23.6147 118.56 22.9474 118.56 21.5945V16.3636H116.158V21.7028C116.158 23.9214 117.626 25.4546 119.837 25.4546C121.57 25.4546 122.371 24.7331 122.752 23.9755H122.942V25.3103H125.305Z" fill="white"/>
<path d="M127.134 16.5079V25.4546H129.542V20.1155C129.542 18.8889 130.153 18.2035 131.261 18.2035C132.217 18.2035 132.79 18.7085 132.79 19.6826V25.4546H135.198V20.1155C135.198 18.8889 135.809 18.2035 136.917 18.2035C137.873 18.2035 138.445 18.7085 138.445 19.6826V25.4546H140.853V19.5743C140.853 17.4098 139.439 16.3636 137.681 16.3636C136.134 16.3636 135.427 17.013 134.968 17.7706H134.777C134.337 16.9229 133.554 16.3636 132.178 16.3636C130.802 16.3636 130.057 16.9408 129.695 17.6263H129.503V16.5079H127.134Z" fill="white"/>
</svg>
