<svg width="150" height="40" viewBox="0 0 150 40" fill="none" xmlns="http://www.w3.org/2000/svg">
<path d="M59.2828 11.5288H56.1406V25.6212H64.8392V22.8598H59.2828V11.5288Z" fill="white"/>
<path d="M65.1396 20.8412C65.1396 23.8501 67.1706 25.8497 70.2361 25.8497C73.2825 25.8497 75.3135 23.8501 75.3135 20.8412C75.3135 17.8323 73.2825 15.8136 70.2361 15.8136C67.1706 15.8136 65.1396 17.8323 65.1396 20.8412ZM68.1094 20.8221C68.1094 19.3939 68.9525 18.4417 70.2361 18.4417C71.5007 18.4417 72.3438 19.3939 72.3438 20.8221C72.3438 22.2695 71.5007 23.2217 70.2361 23.2217C68.9525 23.2217 68.1094 22.2695 68.1094 20.8221Z" fill="white"/>
<path d="M75.7874 20.6889C75.7874 23.5645 77.6651 25.5069 80.3282 25.5069C81.612 25.5069 82.7232 25.0499 83.2788 24.3072V25.6212C83.2788 26.9352 82.455 27.8112 80.9988 27.8112C79.6959 27.8112 78.7954 27.2018 78.738 26.1164H75.749C76.0173 28.7254 78.0482 30.4773 80.8264 30.4773C84.1027 30.4773 86.172 28.3635 86.172 25.0118V16.0994H83.5088L83.3555 17.0705C82.819 16.2898 81.6886 15.7756 80.3858 15.7756C77.7033 15.7756 75.7874 17.7752 75.7874 20.6889ZM78.7763 20.6127C78.7763 19.2415 79.6959 18.3274 80.8647 18.3274C82.2251 18.3274 83.2214 19.2225 83.2214 20.6127C83.2214 22.0029 82.2442 22.9551 80.8838 22.9551C79.7152 22.9551 78.7763 22.0029 78.7763 20.6127Z" fill="white"/>
<path d="M87.0322 20.8412C87.0322 23.8501 89.0633 25.8497 92.1291 25.8497C95.1756 25.8497 97.2063 23.8501 97.2063 20.8412C97.2063 17.8323 95.1756 15.8136 92.1291 15.8136C89.0633 15.8136 87.0322 17.8323 87.0322 20.8412ZM90.0019 20.8221C90.0019 19.3939 90.8449 18.4417 92.1291 18.4417C93.3931 18.4417 94.2361 19.3939 94.2361 20.8221C94.2361 22.2695 93.3931 23.2217 92.1291 23.2217C90.8449 23.2217 90.0019 22.2695 90.0019 20.8221Z" fill="white"/>
<path d="M99.7504 14.6138C100.67 14.6138 101.417 13.8711 101.417 12.9379C101.417 12.0048 100.67 11.2811 99.7504 11.2811C98.8118 11.2811 98.0645 12.0048 98.0645 12.9379C98.0645 13.8711 98.8118 14.6138 99.7504 14.6138ZM98.2557 25.6211H101.226V16.0992H98.2557V25.6211Z" fill="white"/>
<path d="M102.954 30.1916H105.866V24.669C106.422 25.3926 107.687 25.8877 109.008 25.8877C111.863 25.8877 113.587 23.7168 113.511 20.7078C113.434 17.6418 111.652 15.7946 108.989 15.7946C107.629 15.7946 106.345 16.3849 105.808 17.261L105.655 16.0993H102.954V30.1916ZM105.923 20.8602C105.923 19.4319 106.881 18.4798 108.261 18.4798C109.659 18.4798 110.541 19.4509 110.541 20.8602C110.541 22.2695 109.659 23.2406 108.261 23.2406C106.881 23.2406 105.923 22.2885 105.923 20.8602Z" fill="white"/>
<path d="M113.825 22.6122C113.902 24.5356 115.435 25.8687 117.849 25.8687C120.167 25.8687 121.777 24.6499 121.777 22.6884C121.777 21.2792 120.934 20.346 119.362 19.9651L117.658 19.5462C117.044 19.3938 116.661 19.2414 116.661 18.7463C116.661 18.2512 117.063 17.9274 117.658 17.9274C118.328 17.9274 118.768 18.3655 118.75 19.0129H121.413C121.336 17.0324 119.823 15.7946 117.715 15.7946C115.588 15.7946 113.998 17.0515 113.998 18.9558C113.998 20.2317 114.707 21.2792 116.603 21.7743L118.289 22.2123C118.787 22.3456 118.998 22.5741 118.998 22.8978C118.998 23.374 118.558 23.6787 117.81 23.6787C116.948 23.6787 116.488 23.2787 116.488 22.6122H113.825Z" fill="white"/>
<path d="M126.293 25.8686C127.462 25.8686 128.631 25.3354 129.225 24.5546L129.417 25.6211H132.195V16.0992H129.244V21.0506C129.244 22.4788 128.823 23.2596 127.462 23.2596C126.408 23.2596 125.718 22.7836 125.718 21.0125V16.0992H122.768V22.0789C122.768 24.3452 124.032 25.8686 126.293 25.8686Z" fill="white"/>
<path d="M136.873 25.6212V20.4223C136.873 18.8226 137.736 18.3655 138.579 18.3655C139.517 18.3655 140.131 18.9369 140.131 20.1176V25.6212H143.043V20.4223C143.043 18.8036 143.886 18.3465 144.729 18.3465C145.667 18.3465 146.3 18.9178 146.3 20.1176V25.6212H149.174V19.3939C149.174 17.2229 148.024 15.7756 145.552 15.7756C144.173 15.7756 143.043 16.4421 142.545 17.4705C141.97 16.4421 140.974 15.7756 139.383 15.7756C138.33 15.7756 137.352 16.2517 136.778 17.0134L136.663 16.0994H133.903V25.6212H136.873Z" fill="white"/>
<path d="M0 20.0001C0 12.2957 6.28372 6.05005 14.0351 6.05005H32.4561C40.2075 6.05005 46.4912 12.2957 46.4912 20.0001V33.9501H14.0351C6.28372 33.9501 0 27.7045 0 20.0001Z" fill="white"/>
<path d="M32.4557 11.2811H14.0346C9.19002 11.2811 5.2627 15.1847 5.2627 19.9999C5.2627 24.8151 9.19002 28.7187 14.0346 28.7187H32.4557C37.3003 28.7187 41.2276 24.8151 41.2276 19.9999C41.2276 15.1847 37.3003 11.2811 32.4557 11.2811Z" fill="#4B5567"/>
<path d="M14.0354 24.3594C16.4577 24.3594 18.4213 22.4076 18.4213 20C18.4213 17.5924 16.4577 15.6406 14.0354 15.6406C11.6131 15.6406 9.64941 17.5924 9.64941 20C9.64941 22.4076 11.6131 24.3594 14.0354 24.3594Z" fill="white"/>
<path d="M12.2819 19.1282C12.7666 19.1282 13.1595 18.7378 13.1595 18.2563C13.1595 17.7748 12.7666 17.3844 12.2819 17.3844C11.7972 17.3844 11.4043 17.7748 11.4043 18.2563C11.4043 18.7378 11.7972 19.1282 12.2819 19.1282Z" fill="#0D0D0D"/>
<path d="M33.3342 24.3594C35.7565 24.3594 37.7202 22.4076 37.7202 20C37.7202 17.5924 35.7565 15.6406 33.3342 15.6406C30.9119 15.6406 28.9482 17.5924 28.9482 20C28.9482 22.4076 30.9119 24.3594 33.3342 24.3594Z" fill="white"/>
<path d="M31.5797 19.1282C32.0644 19.1282 32.4573 18.7378 32.4573 18.2563C32.4573 17.7748 32.0644 17.3844 31.5797 17.3844C31.0951 17.3844 30.7021 17.7748 30.7021 18.2563C30.7021 18.7378 31.0951 19.1282 31.5797 19.1282Z" fill="#0D0D0D"/>
</svg>
