<svg width="150" height="40" viewBox="0 0 150 40" fill="none" xmlns="http://www.w3.org/2000/svg">
<path d="M10.1099 28.5089C7.22006 31.3812 2.32576 31.3698 0.958919 27.5416C0.69131 26.7921 0.477347 26.0214 0.319978 25.2351C-0.322557 22.0244 0.0072152 18.6965 1.2676 15.672C2.52797 12.6477 4.66235 10.0627 7.40082 8.24401C10.1393 6.42532 13.3589 5.45459 16.6524 5.45459C19.9459 5.45459 23.1655 6.42532 25.9039 8.24401C28.6425 10.0627 30.7768 12.6477 32.0372 15.6721C33.2976 18.6965 33.6273 22.0244 32.9848 25.2351C32.8275 26.0214 32.6135 26.7921 32.3458 27.5416C30.979 31.3698 26.0847 31.3812 23.1948 28.5089L18.7339 24.075C18.3077 23.6514 18.3518 22.9528 18.4694 22.3652C18.5408 22.0081 18.5041 21.6379 18.3639 21.3014C18.2236 20.9649 17.9863 20.6773 17.6816 20.4751C17.377 20.2728 17.0188 20.1648 16.6524 20.1648C16.286 20.1648 15.9279 20.2728 15.6232 20.4751C15.3185 20.6773 15.0811 20.9649 14.9409 21.3014C14.8006 21.6379 14.764 22.0081 14.8355 22.3652C14.9531 22.9528 14.997 23.6514 14.5708 24.075L10.1099 28.5089Z" fill="#728095"/>
<path d="M46.8526 24.5349H51.3287V27.1567H43.4355V13.2137H46.8526V24.5349Z" fill="white"/>
<path d="M57.4348 27.3157C56.3424 27.3157 55.3565 27.084 54.4772 26.6205C53.6114 26.1571 52.9253 25.495 52.419 24.6344C51.9262 23.7737 51.6797 22.7674 51.6797 21.6153C51.6797 20.4766 51.9328 19.4769 52.439 18.6162C52.9453 17.7423 53.638 17.0736 54.5172 16.6102C55.3965 16.1468 56.3823 15.915 57.4747 15.915C58.5671 15.915 59.5529 16.1468 60.4321 16.6102C61.3114 17.0736 62.0041 17.7423 62.5104 18.6162C63.0166 19.4769 63.2697 20.4766 63.2697 21.6153C63.2697 22.7541 63.0099 23.7604 62.4904 24.6344C61.9842 25.495 61.2848 26.1571 60.3922 26.6205C59.513 27.084 58.5271 27.3157 57.4348 27.3157ZM57.4348 24.3761C58.0875 24.3761 58.6404 24.1378 59.0934 23.6611C59.5596 23.1844 59.7928 22.5025 59.7928 21.6153C59.7928 20.7282 59.5662 20.0463 59.1133 19.5696C58.6737 19.0929 58.1275 18.8545 57.4747 18.8545C56.8086 18.8545 56.2558 19.0929 55.8161 19.5696C55.3765 20.033 55.1567 20.7149 55.1567 21.6153C55.1567 22.5025 55.3699 23.1844 55.7962 23.6611C56.2358 24.1378 56.782 24.3761 57.4348 24.3761Z" fill="white"/>
<path d="M68.7195 15.915C69.5055 15.915 70.1916 16.0739 70.7777 16.3917C71.3772 16.7095 71.8368 17.1266 72.1566 17.643V16.0739H75.5736V27.1369C75.5736 28.1565 75.3672 29.0768 74.9541 29.8976C74.5545 30.7319 73.935 31.3939 73.0958 31.8838C72.2698 32.3738 71.2373 32.6188 69.9984 32.6188C68.3465 32.6188 67.0076 32.2282 65.9818 31.4469C64.9561 30.6789 64.3698 29.6328 64.2233 28.3087H67.6004C67.707 28.7324 67.9602 29.0635 68.3598 29.3019C68.7594 29.5534 69.2524 29.6792 69.8386 29.6792C70.5446 29.6792 71.1041 29.4739 71.5171 29.0635C71.9434 28.6663 72.1566 28.0241 72.1566 27.1369V25.5679C71.8235 26.0842 71.3639 26.508 70.7777 26.839C70.1916 27.1568 69.5055 27.3157 68.7195 27.3157C67.8003 27.3157 66.9676 27.084 66.2216 26.6205C65.4756 26.1438 64.8827 25.4751 64.4432 24.6144C64.0169 23.7406 63.8037 22.7343 63.8037 21.5955C63.8037 20.4567 64.0169 19.4571 64.4432 18.5964C64.8827 17.7357 65.4756 17.0736 66.2216 16.6102C66.9676 16.1468 67.8003 15.915 68.7195 15.915ZM72.1566 21.6153C72.1566 20.7679 71.9168 20.0992 71.4372 19.6093C70.9709 19.1194 70.398 18.8744 69.7186 18.8744C69.0392 18.8744 68.4597 19.1194 67.9801 19.6093C67.5138 20.086 67.2807 20.7481 67.2807 21.5955C67.2807 22.4429 67.5138 23.1182 67.9801 23.6214C68.4597 24.1113 69.0392 24.3563 69.7186 24.3563C70.398 24.3563 70.9709 24.1113 71.4372 23.6214C71.9168 23.1314 72.1566 22.4628 72.1566 21.6153Z" fill="white"/>
<path d="M82.5217 27.3157C81.4293 27.3157 80.4434 27.084 79.5642 26.6205C78.6983 26.1571 78.0122 25.495 77.506 24.6344C77.0131 23.7737 76.7666 22.7674 76.7666 21.6153C76.7666 20.4766 77.0197 19.4769 77.526 18.6162C78.0322 17.7423 78.7249 17.0736 79.6041 16.6102C80.4834 16.1468 81.4693 15.915 82.5616 15.915C83.654 15.915 84.6399 16.1468 85.5191 16.6102C86.3983 17.0736 87.0911 17.7423 87.5973 18.6162C88.1035 19.4769 88.3567 20.4766 88.3567 21.6153C88.3567 22.7541 88.0969 23.7604 87.5773 24.6344C87.0711 25.495 86.3717 26.1571 85.4791 26.6205C84.5999 27.084 83.6141 27.3157 82.5217 27.3157ZM82.5217 24.3761C83.1744 24.3761 83.7273 24.1378 84.1803 23.6611C84.6465 23.1844 84.8797 22.5025 84.8797 21.6153C84.8797 20.7282 84.6531 20.0463 84.2002 19.5696C83.7606 19.0929 83.2144 18.8545 82.5616 18.8545C81.8955 18.8545 81.3427 19.0929 80.903 19.5696C80.4635 20.033 80.2436 20.7149 80.2436 21.6153C80.2436 22.5025 80.4568 23.1844 80.8831 23.6611C81.3227 24.1378 81.8689 24.3761 82.5217 24.3761Z" fill="white"/>
<path d="M91.2892 14.922C90.6897 14.922 90.1968 14.7498 89.8105 14.4056C89.4375 14.0481 89.251 13.6111 89.251 13.0947C89.251 12.5651 89.4375 12.1281 89.8105 11.7838C90.1968 11.4263 90.6897 11.2476 91.2892 11.2476C91.8754 11.2476 92.355 11.4263 92.728 11.7838C93.1143 12.1281 93.3075 12.5651 93.3075 13.0947C93.3075 13.6111 93.1143 14.0481 92.728 14.4056C92.355 14.7498 91.8754 14.922 91.2892 14.922ZM92.9877 16.074V27.1568H89.5707V16.074H92.9877Z" fill="white"/>
<path d="M98.2811 17.643C98.614 17.1266 99.0736 16.7095 99.6601 16.3917C100.247 16.0739 100.933 15.915 101.718 15.915C102.638 15.915 103.47 16.1468 104.216 16.6102C104.962 17.0736 105.549 17.7357 105.975 18.5964C106.414 19.4571 106.635 20.4567 106.635 21.5955C106.635 22.7343 106.414 23.7406 105.975 24.6144C105.549 25.4751 104.962 26.1438 104.216 26.6205C103.47 27.084 102.638 27.3157 101.718 27.3157C100.945 27.3157 100.26 27.1568 99.6601 26.839C99.0736 26.5212 98.614 26.1107 98.2811 25.6076V32.44H94.8643V16.0739H98.2811V17.643ZM103.158 21.5955C103.158 20.7481 102.918 20.086 102.438 19.6093C101.971 19.1194 101.392 18.8744 100.699 18.8744C100.02 18.8744 99.4404 19.1194 98.9604 19.6093C98.4949 20.0992 98.2617 20.7679 98.2617 21.6153C98.2617 22.4628 98.4949 23.1314 98.9604 23.6214C99.4404 24.1113 100.02 24.3563 100.699 24.3563C101.379 24.3563 101.958 24.1113 102.438 23.6214C102.918 23.1182 103.158 22.4429 103.158 21.5955Z" fill="white"/>
<path d="M112.363 27.3157C111.391 27.3157 110.525 27.1501 109.765 26.8192C109.006 26.4881 108.406 26.0379 107.967 25.4685C107.528 24.8859 107.281 24.2371 107.228 23.522H110.605C110.645 23.906 110.825 24.2172 111.144 24.4555C111.464 24.6939 111.857 24.8131 112.324 24.8131C112.749 24.8131 113.076 24.7336 113.302 24.5747C113.542 24.4026 113.662 24.1841 113.662 23.9193C113.662 23.6015 113.496 23.3698 113.163 23.2241C112.83 23.0652 112.29 22.8932 111.544 22.7077C110.744 22.5224 110.079 22.3304 109.545 22.1317C109.013 21.9199 108.553 21.5955 108.167 21.1585C107.78 20.7084 107.588 20.1058 107.588 19.3512C107.588 18.7155 107.761 18.1396 108.107 17.6231C108.466 17.0935 108.986 16.6764 109.665 16.3718C110.358 16.0673 111.178 15.915 112.123 15.915C113.522 15.915 114.621 16.2593 115.42 16.9478C116.233 17.6364 116.7 18.55 116.82 19.6888H113.662C113.609 19.3048 113.436 19.0003 113.142 18.7751C112.863 18.55 112.49 18.4375 112.024 18.4375C111.624 18.4375 111.317 18.5169 111.104 18.6758C110.891 18.8214 110.785 19.0267 110.785 19.2915C110.785 19.6093 110.951 19.8477 111.284 20.0066C111.631 20.1655 112.163 20.3244 112.883 20.4832C113.709 20.6951 114.381 20.907 114.901 21.1188C115.42 21.3174 115.873 21.6484 116.259 22.1119C116.659 22.5621 116.866 23.1711 116.88 23.9392C116.88 24.588 116.693 25.1706 116.319 25.687C115.96 26.1902 115.434 26.5874 114.741 26.8787C114.062 27.1701 113.269 27.3157 112.363 27.3157Z" fill="white"/>
<path d="M129.381 16.0739V27.1567H125.964V25.6472C125.618 26.1371 125.144 26.5344 124.545 26.8389C123.959 27.1302 123.307 27.2759 122.587 27.2759C121.734 27.2759 120.981 27.0905 120.329 26.7197C119.676 26.3357 119.17 25.7862 118.811 25.0712C118.451 24.3562 118.271 23.5154 118.271 22.5487V16.0739H121.667V22.0919C121.667 22.8334 121.861 23.4094 122.247 23.8199C122.633 24.2304 123.153 24.4356 123.806 24.4356C124.472 24.4356 124.998 24.2304 125.384 23.8199C125.77 23.4094 125.964 22.8334 125.964 22.0919V16.0739H129.381Z" fill="white"/>
<path d="M145.464 15.9547C146.849 15.9547 147.948 16.3718 148.761 17.206C149.587 18.0402 150 19.1987 150 20.6818V27.1567H146.603V21.1387C146.603 20.4236 146.41 19.8741 146.023 19.4901C145.65 19.0928 145.131 18.8942 144.464 18.8942C143.799 18.8942 143.272 19.0928 142.886 19.4901C142.513 19.8741 142.327 20.4236 142.327 21.1387V27.1567H138.929V21.1387C138.929 20.4236 138.736 19.8741 138.35 19.4901C137.977 19.0928 137.457 18.8942 136.791 18.8942C136.125 18.8942 135.599 19.0928 135.213 19.4901C134.839 19.8741 134.653 20.4236 134.653 21.1387V27.1567H131.236V16.0739H134.653V17.4642C135 17.0008 135.453 16.6366 136.012 16.3718C136.572 16.0937 137.204 15.9547 137.91 15.9547C138.75 15.9547 139.496 16.1334 140.148 16.491C140.814 16.8485 141.334 17.3583 141.707 18.0203C142.093 17.4112 142.62 16.9147 143.286 16.5307C143.951 16.1467 144.678 15.9547 145.464 15.9547Z" fill="white"/>
</svg>
